<svg width="364" height="385" viewBox="0 0 364 385" fill="none" xmlns="http://www.w3.org/2000/svg">
<circle cx="95" cy="89" r="13" fill="#B60707"/>
<circle cx="208" cy="109" r="13" fill="#B60707"/>
<g filter="url(#filter0_d_28_2)">
<path d="M100.787 76.817C95.6342 75.3374 90.2926 76.2005 88.2659 76.817C88.0652 77.6554 87.7843 79.4803 88.2659 80.0721C88.3433 80.1671 88.4189 80.2915 88.8077 80.368L89.2366 80.991C89.3442 81.1472 89.5784 81.1365 89.6713 80.9711C89.7797 80.778 90.0654 80.804 90.1373 81.0134L90.1706 81.1105C90.2418 81.3178 90.5254 81.3348 90.6055 81.1308C90.6857 80.9266 90.9114 80.9198 90.9747 81.1298L91.1243 81.6257C91.1702 81.7281 91.2896 81.7275 91.3334 81.6236C91.4825 81.2702 91.8621 81.2601 91.9754 81.6266L92.0437 81.8476C92.0897 81.9501 92.209 81.9494 92.2529 81.8456C92.4289 81.4283 92.7316 81.3934 92.8556 81.8289L92.8723 81.8874C92.8791 81.9115 92.8864 81.9362 92.9019 81.9559C92.9559 82.0245 93.0531 82.0131 93.0917 81.9216C93.0974 81.9082 93.1032 81.8933 93.109 81.877C93.2614 81.4559 93.5997 81.4215 93.7308 81.8497C93.7768 81.9521 93.8962 81.9515 93.94 81.8476C93.9596 81.801 93.9816 81.7379 94.0043 81.6647C94.1074 81.3336 94.4781 81.2993 94.6008 81.6236C94.6468 81.7261 94.7662 81.7255 94.81 81.6216C94.9493 81.2912 95.2836 81.2728 95.3922 81.6145L95.4898 81.9216C95.5357 82.0241 95.6551 82.0234 95.6989 81.9195C95.7238 81.8606 95.7492 81.7711 95.7735 81.6661C95.856 81.3087 96.1297 81.2771 96.2438 81.6257C96.2898 81.7281 96.4091 81.7275 96.453 81.6236C96.5956 81.2853 96.9956 81.263 97.1175 81.6093L97.1753 81.7736C97.2213 81.8761 97.3407 81.8755 97.3845 81.7716C97.5626 81.3494 97.7908 81.308 97.9098 81.7505L97.9437 81.8765C97.9514 81.9052 97.9595 81.9348 97.979 81.9571C98.0338 82.0197 98.1269 82.0066 98.1645 81.9175C98.1898 81.8575 98.2157 81.7717 98.2406 81.6734C98.3834 81.1078 98.489 81.0832 98.7114 81.6224C98.7401 81.6921 98.8028 81.7161 98.8552 81.6942C98.9149 81.6693 98.9285 81.5939 98.9431 81.5308L99.102 80.8443C99.1166 80.7812 99.1303 80.706 99.19 80.6809C99.2398 80.66 99.2991 80.6798 99.3311 80.7415L99.5947 81.3377C99.6438 81.4326 99.7576 81.4282 99.8018 81.3298L100.152 80.3747C100.541 80.2981 100.71 80.1671 100.787 80.0721C101.173 79.3027 100.948 77.5814 100.787 76.817Z" fill="#B3BB16"/>
<path d="M100.787 76.817C95.6342 75.3374 90.2926 76.2005 88.2659 76.817C88.0652 77.6554 87.7843 79.4803 88.2659 80.0721C88.3433 80.1671 88.4189 80.2915 88.8077 80.368L89.2366 80.991C89.3442 81.1472 89.5784 81.1365 89.6713 80.9711C89.7797 80.778 90.0654 80.804 90.1373 81.0134L90.1706 81.1105C90.2418 81.3178 90.5254 81.3348 90.6055 81.1308C90.6857 80.9266 90.9114 80.9198 90.9747 81.1298L91.1243 81.6257C91.1702 81.7281 91.2896 81.7275 91.3334 81.6236C91.4825 81.2702 91.8621 81.2601 91.9754 81.6266L92.0437 81.8476C92.0897 81.9501 92.209 81.9494 92.2529 81.8456C92.4289 81.4283 92.7316 81.3934 92.8556 81.8289L92.8723 81.8874C92.8791 81.9115 92.8864 81.9362 92.9019 81.9559C92.9559 82.0245 93.0531 82.0131 93.0917 81.9216C93.0974 81.9082 93.1032 81.8933 93.109 81.877C93.2614 81.4559 93.5997 81.4215 93.7308 81.8497C93.7768 81.9521 93.8962 81.9515 93.94 81.8476C93.9596 81.801 93.9816 81.7379 94.0043 81.6647C94.1074 81.3336 94.4781 81.2993 94.6008 81.6236C94.6468 81.7261 94.7662 81.7255 94.81 81.6216C94.9493 81.2912 95.2836 81.2728 95.3922 81.6145L95.4898 81.9216C95.5357 82.0241 95.6551 82.0234 95.6989 81.9195C95.7238 81.8606 95.7492 81.7711 95.7735 81.6661C95.856 81.3087 96.1297 81.2771 96.2438 81.6257C96.2898 81.7281 96.4091 81.7275 96.453 81.6236C96.5956 81.2853 96.9956 81.263 97.1175 81.6093L97.1753 81.7736C97.2213 81.8761 97.3407 81.8755 97.3845 81.7716C97.5626 81.3494 97.7908 81.308 97.9098 81.7505L97.9437 81.8765C97.9514 81.9052 97.9595 81.9348 97.979 81.9571C98.0338 82.0197 98.1269 82.0066 98.1645 81.9175C98.1898 81.8575 98.2157 81.7717 98.2406 81.6734C98.3834 81.1078 98.489 81.0832 98.7114 81.6224C98.7401 81.6921 98.8028 81.7161 98.8552 81.6942C98.9149 81.6693 98.9285 81.5939 98.9431 81.5308L99.102 80.8443C99.1166 80.7812 99.1303 80.706 99.19 80.6809C99.2398 80.66 99.2991 80.6798 99.3311 80.7415L99.5947 81.3377C99.6438 81.4326 99.7576 81.4282 99.8018 81.3298L100.152 80.3747C100.541 80.2981 100.71 80.1671 100.787 80.0721C101.173 79.3027 100.948 77.5814 100.787 76.817Z" fill="black" fill-opacity="0.2"/>
<path d="M100.787 76.817C95.6342 75.3374 90.2926 76.2005 88.2659 76.817C88.0652 77.6554 87.7843 79.4803 88.2659 80.0721C88.3433 80.1671 88.4189 80.2915 88.8077 80.368L89.2366 80.991C89.3442 81.1472 89.5784 81.1365 89.6713 80.9711C89.7797 80.778 90.0654 80.804 90.1373 81.0134L90.1706 81.1105C90.2418 81.3178 90.5254 81.3348 90.6055 81.1308C90.6857 80.9266 90.9114 80.9198 90.9747 81.1298L91.1243 81.6257C91.1702 81.7281 91.2896 81.7275 91.3334 81.6236C91.4825 81.2702 91.8621 81.2601 91.9754 81.6266L92.0437 81.8476C92.0897 81.9501 92.209 81.9494 92.2529 81.8456C92.4289 81.4283 92.7316 81.3934 92.8556 81.8289L92.8723 81.8874C92.8791 81.9115 92.8864 81.9362 92.9019 81.9559C92.9559 82.0245 93.0531 82.0131 93.0917 81.9216C93.0974 81.9082 93.1032 81.8933 93.109 81.877C93.2614 81.4559 93.5997 81.4215 93.7308 81.8497C93.7768 81.9521 93.8962 81.9515 93.94 81.8476C93.9596 81.801 93.9816 81.7379 94.0043 81.6647C94.1074 81.3336 94.4781 81.2993 94.6008 81.6236C94.6468 81.7261 94.7662 81.7255 94.81 81.6216C94.9493 81.2912 95.2836 81.2728 95.3922 81.6145L95.4898 81.9216C95.5357 82.0241 95.6551 82.0234 95.6989 81.9195C95.7238 81.8606 95.7492 81.7711 95.7735 81.6661C95.856 81.3087 96.1297 81.2771 96.2438 81.6257C96.2898 81.7281 96.4091 81.7275 96.453 81.6236C96.5956 81.2853 96.9956 81.263 97.1175 81.6093L97.1753 81.7736C97.2213 81.8761 97.3407 81.8755 97.3845 81.7716C97.5626 81.3494 97.7908 81.308 97.9098 81.7505L97.9437 81.8765C97.9514 81.9052 97.9595 81.9348 97.979 81.9571C98.0338 82.0197 98.1269 82.0066 98.1645 81.9175C98.1898 81.8575 98.2157 81.7717 98.2406 81.6734C98.3834 81.1078 98.489 81.0832 98.7114 81.6224C98.7401 81.6921 98.8028 81.7161 98.8552 81.6942C98.9149 81.6693 98.9285 81.5939 98.9431 81.5308L99.102 80.8443C99.1166 80.7812 99.1303 80.706 99.19 80.6809C99.2398 80.66 99.2991 80.6798 99.3311 80.7415L99.5947 81.3377C99.6438 81.4326 99.7576 81.4282 99.8018 81.3298L100.152 80.3747C100.541 80.2981 100.71 80.1671 100.787 80.0721C101.173 79.3027 100.948 77.5814 100.787 76.817Z" stroke="black"/>
</g>
<path d="M89.2018 77.0637C91.1543 77.8986 96.0068 79.0673 99.7965 77.0637C95.6809 75.1372 91.0185 76.261 89.2018 77.0637Z" fill="#636712" stroke="black"/>
<path d="M217.92 289.566C217.92 230.366 197.253 197.233 186.92 188.066C164.253 177.399 115.12 160.266 99.9199 177.066C80.9199 198.066 164.42 167.566 163.42 155.066C162.42 142.566 114.92 58.566 77.4199 91.066C39.9199 123.566 -14.5801 66.566 15.9199 66.566C46.4199 66.566 13.4199 115.066 58.9199 116.066C104.42 117.066 207.92 94.566 191.92 129.566C175.92 164.566 101.42 28.066 119.92 26.566C138.42 25.066 119.92 82.566 94.9199 60.066C69.9199 37.566 175.92 35.5661 163.42 60.066C150.92 84.5659 194.92 174.066 212.92 164.566C230.92 155.066 220.42 -13.4341 191.92 9.06592C163.42 31.5659 253.42 26.0659 249.42 17.5659C245.42 9.06592 129.92 153.066 191.92 170.566C253.92 188.066 290.92 22.0661 311.92 66.566C332.92 111.066 260.42 43.0659 249.42 110.066C238.42 177.066 234.42 188.066 249.42 188.066C264.42 188.066 351.92 128.566 349.92 91.066C347.92 53.5659 319.42 112.066 287.92 159.566C262.72 197.566 258.087 262.066 258.92 289.566H217.92Z" stroke="black" stroke-width="13"/>
<path d="M190 378H289" stroke="black" stroke-width="13" stroke-linecap="round"/>
<path d="M357 290L289 378" stroke="black" stroke-width="13" stroke-linecap="round"/>
<path d="M190 378L122 290" stroke="black" stroke-width="13" stroke-linecap="round"/>
<path d="M190 378L239 290" stroke="black" stroke-width="13" stroke-linecap="round"/>
<path d="M239 298L289 378" stroke="black" stroke-width="13" stroke-linecap="round"/>
<path d="M156 334H323" stroke="black" stroke-width="13" stroke-linecap="round"/>
<path d="M122 290H357" stroke="black" stroke-width="13" stroke-linecap="round"/>
<circle cx="20" cy="135" r="13" fill="#B60707"/>
<g filter="url(#filter1_d_28_2)">
<path d="M25.7873 122.817C20.6342 121.337 15.2926 122.2 13.2659 122.817C13.0652 123.655 12.7843 125.48 13.2659 126.072C13.3433 126.167 13.4189 126.291 13.8077 126.368L14.2366 126.991C14.3442 127.147 14.5784 127.137 14.6713 126.971C14.7797 126.778 15.0654 126.804 15.1373 127.013L15.1706 127.111C15.2418 127.318 15.5254 127.335 15.6055 127.131C15.6857 126.927 15.9114 126.92 15.9747 127.13L16.1243 127.626C16.1702 127.728 16.2896 127.727 16.3334 127.624C16.4825 127.27 16.8621 127.26 16.9754 127.627L17.0437 127.848C17.0897 127.95 17.209 127.949 17.2529 127.846C17.4289 127.428 17.7316 127.393 17.8556 127.829L17.8723 127.887C17.8791 127.912 17.8864 127.936 17.9019 127.956C17.9559 128.024 18.0531 128.013 18.0917 127.922C18.0974 127.908 18.1032 127.893 18.109 127.877C18.2614 127.456 18.5997 127.421 18.7308 127.85C18.7768 127.952 18.8962 127.951 18.94 127.848C18.9596 127.801 18.9816 127.738 19.0043 127.665C19.1074 127.334 19.4781 127.299 19.6008 127.624C19.6468 127.726 19.7662 127.725 19.81 127.622C19.9493 127.291 20.2836 127.273 20.3922 127.614L20.4898 127.922C20.5357 128.024 20.6551 128.023 20.6989 127.92C20.7238 127.861 20.7492 127.771 20.7735 127.666C20.856 127.309 21.1297 127.277 21.2438 127.626C21.2898 127.728 21.4091 127.727 21.453 127.624C21.5956 127.285 21.9956 127.263 22.1175 127.609L22.1753 127.774C22.2213 127.876 22.3407 127.875 22.3845 127.772C22.5626 127.349 22.7908 127.308 22.9098 127.75L22.9437 127.877C22.9514 127.905 22.9595 127.935 22.979 127.957C23.0338 128.02 23.1269 128.007 23.1645 127.918C23.1898 127.857 23.2157 127.772 23.2406 127.673C23.3834 127.108 23.489 127.083 23.7114 127.622C23.7401 127.692 23.8028 127.716 23.8552 127.694C23.9149 127.669 23.9285 127.594 23.9431 127.531L24.102 126.844C24.1166 126.781 24.1303 126.706 24.19 126.681C24.2398 126.66 24.2991 126.68 24.3311 126.742L24.5947 127.338C24.6438 127.433 24.7576 127.428 24.8018 127.33L25.1522 126.375C25.541 126.298 25.7099 126.167 25.7873 126.072C26.1725 125.303 25.9478 123.581 25.7873 122.817Z" fill="#B3BB16"/>
<path d="M25.7873 122.817C20.6342 121.337 15.2926 122.2 13.2659 122.817C13.0652 123.655 12.7843 125.48 13.2659 126.072C13.3433 126.167 13.4189 126.291 13.8077 126.368L14.2366 126.991C14.3442 127.147 14.5784 127.137 14.6713 126.971C14.7797 126.778 15.0654 126.804 15.1373 127.013L15.1706 127.111C15.2418 127.318 15.5254 127.335 15.6055 127.131C15.6857 126.927 15.9114 126.92 15.9747 127.13L16.1243 127.626C16.1702 127.728 16.2896 127.727 16.3334 127.624C16.4825 127.27 16.8621 127.26 16.9754 127.627L17.0437 127.848C17.0897 127.95 17.209 127.949 17.2529 127.846C17.4289 127.428 17.7316 127.393 17.8556 127.829L17.8723 127.887C17.8791 127.912 17.8864 127.936 17.9019 127.956C17.9559 128.024 18.0531 128.013 18.0917 127.922C18.0974 127.908 18.1032 127.893 18.109 127.877C18.2614 127.456 18.5997 127.421 18.7308 127.85C18.7768 127.952 18.8962 127.951 18.94 127.848C18.9596 127.801 18.9816 127.738 19.0043 127.665C19.1074 127.334 19.4781 127.299 19.6008 127.624C19.6468 127.726 19.7662 127.725 19.81 127.622C19.9493 127.291 20.2836 127.273 20.3922 127.614L20.4898 127.922C20.5357 128.024 20.6551 128.023 20.6989 127.92C20.7238 127.861 20.7492 127.771 20.7735 127.666C20.856 127.309 21.1297 127.277 21.2438 127.626C21.2898 127.728 21.4091 127.727 21.453 127.624C21.5956 127.285 21.9956 127.263 22.1175 127.609L22.1753 127.774C22.2213 127.876 22.3407 127.875 22.3845 127.772C22.5626 127.349 22.7908 127.308 22.9098 127.75L22.9437 127.877C22.9514 127.905 22.9595 127.935 22.979 127.957C23.0338 128.02 23.1269 128.007 23.1645 127.918C23.1898 127.857 23.2157 127.772 23.2406 127.673C23.3834 127.108 23.489 127.083 23.7114 127.622C23.7401 127.692 23.8028 127.716 23.8552 127.694C23.9149 127.669 23.9285 127.594 23.9431 127.531L24.102 126.844C24.1166 126.781 24.1303 126.706 24.19 126.681C24.2398 126.66 24.2991 126.68 24.3311 126.742L24.5947 127.338C24.6438 127.433 24.7576 127.428 24.8018 127.33L25.1522 126.375C25.541 126.298 25.7099 126.167 25.7873 126.072C26.1725 125.303 25.9478 123.581 25.7873 122.817Z" fill="black" fill-opacity="0.2"/>
<path d="M25.7873 122.817C20.6342 121.337 15.2926 122.2 13.2659 122.817C13.0652 123.655 12.7843 125.48 13.2659 126.072C13.3433 126.167 13.4189 126.291 13.8077 126.368L14.2366 126.991C14.3442 127.147 14.5784 127.137 14.6713 126.971C14.7797 126.778 15.0654 126.804 15.1373 127.013L15.1706 127.111C15.2418 127.318 15.5254 127.335 15.6055 127.131C15.6857 126.927 15.9114 126.92 15.9747 127.13L16.1243 127.626C16.1702 127.728 16.2896 127.727 16.3334 127.624C16.4825 127.27 16.8621 127.26 16.9754 127.627L17.0437 127.848C17.0897 127.95 17.209 127.949 17.2529 127.846C17.4289 127.428 17.7316 127.393 17.8556 127.829L17.8723 127.887C17.8791 127.912 17.8864 127.936 17.9019 127.956C17.9559 128.024 18.0531 128.013 18.0917 127.922C18.0974 127.908 18.1032 127.893 18.109 127.877C18.2614 127.456 18.5997 127.421 18.7308 127.85C18.7768 127.952 18.8962 127.951 18.94 127.848C18.9596 127.801 18.9816 127.738 19.0043 127.665C19.1074 127.334 19.4781 127.299 19.6008 127.624C19.6468 127.726 19.7662 127.725 19.81 127.622C19.9493 127.291 20.2836 127.273 20.3922 127.614L20.4898 127.922C20.5357 128.024 20.6551 128.023 20.6989 127.92C20.7238 127.861 20.7492 127.771 20.7735 127.666C20.856 127.309 21.1297 127.277 21.2438 127.626C21.2898 127.728 21.4091 127.727 21.453 127.624C21.5956 127.285 21.9956 127.263 22.1175 127.609L22.1753 127.774C22.2213 127.876 22.3407 127.875 22.3845 127.772C22.5626 127.349 22.7908 127.308 22.9098 127.75L22.9437 127.877C22.9514 127.905 22.9595 127.935 22.979 127.957C23.0338 128.02 23.1269 128.007 23.1645 127.918C23.1898 127.857 23.2157 127.772 23.2406 127.673C23.3834 127.108 23.489 127.083 23.7114 127.622C23.7401 127.692 23.8028 127.716 23.8552 127.694C23.9149 127.669 23.9285 127.594 23.9431 127.531L24.102 126.844C24.1166 126.781 24.1303 126.706 24.19 126.681C24.2398 126.66 24.2991 126.68 24.3311 126.742L24.5947 127.338C24.6438 127.433 24.7576 127.428 24.8018 127.33L25.1522 126.375C25.541 126.298 25.7099 126.167 25.7873 126.072C26.1725 125.303 25.9478 123.581 25.7873 122.817Z" stroke="black"/>
</g>
<path d="M14.2018 123.064C16.1543 123.899 21.0068 125.067 24.7965 123.064C20.6809 121.137 16.0185 122.261 14.2018 123.064Z" fill="#636712" stroke="black"/>
<g filter="url(#filter2_d_28_2)">
<path d="M210.369 94.8419C205.014 95.1011 200.235 97.6388 198.515 98.8753C198.595 99.7337 198.917 101.552 199.563 101.957C199.667 102.022 199.779 102.115 200.172 102.063L200.778 102.514C200.931 102.627 201.149 102.542 201.183 102.355C201.224 102.138 201.503 102.07 201.638 102.245L201.701 102.326C201.835 102.5 202.109 102.424 202.119 102.206C202.13 101.986 202.341 101.907 202.469 102.086L202.77 102.507C202.846 102.589 202.959 102.55 202.967 102.438C202.995 102.055 203.351 101.923 203.576 102.234L203.712 102.421C203.788 102.503 203.901 102.464 203.909 102.352C203.941 101.9 204.217 101.769 204.474 102.142L204.509 102.192C204.523 102.212 204.538 102.233 204.559 102.247C204.632 102.294 204.721 102.252 204.728 102.153C204.729 102.139 204.729 102.123 204.73 102.106C204.738 101.658 205.048 101.516 205.31 101.879C205.386 101.962 205.499 101.923 205.507 101.81C205.511 101.76 205.511 101.693 205.509 101.616C205.5 101.27 205.84 101.118 206.06 101.385C206.137 101.467 206.25 101.428 206.258 101.316C206.283 100.958 206.594 100.833 206.807 101.122L206.998 101.381C207.075 101.463 207.187 101.424 207.195 101.312C207.2 101.248 207.195 101.155 207.184 101.048C207.147 100.683 207.396 100.565 207.617 100.858C207.693 100.94 207.806 100.901 207.814 100.789C207.84 100.422 208.211 100.272 208.438 100.561L208.546 100.698C208.623 100.78 208.735 100.741 208.743 100.629C208.776 100.172 208.979 100.059 209.234 100.439L209.307 100.548C209.323 100.572 209.34 100.598 209.366 100.613C209.438 100.654 209.522 100.612 209.529 100.515C209.533 100.45 209.53 100.361 209.522 100.26C209.475 99.6784 209.567 99.6211 209.952 100.06C210.001 100.117 210.068 100.119 210.111 100.082C210.159 100.039 210.148 99.963 210.141 99.8986L210.071 99.1974C210.064 99.133 210.053 99.0574 210.101 99.0144C210.142 98.9786 210.204 98.9782 210.254 99.0264L210.696 99.5058C210.773 99.5798 210.879 99.539 210.89 99.4316L210.914 98.4146C211.257 98.2168 211.375 98.0384 211.417 97.9235C211.534 97.0711 210.767 95.5139 210.369 94.8419Z" fill="#B3BB16"/>
<path d="M210.369 94.8419C205.014 95.1011 200.235 97.6388 198.515 98.8753C198.595 99.7337 198.917 101.552 199.563 101.957C199.667 102.022 199.779 102.115 200.172 102.063L200.778 102.514C200.931 102.627 201.149 102.542 201.183 102.355C201.224 102.138 201.503 102.07 201.638 102.245L201.701 102.326C201.835 102.5 202.109 102.424 202.119 102.206C202.13 101.986 202.341 101.907 202.469 102.086L202.77 102.507C202.846 102.589 202.959 102.55 202.967 102.438C202.995 102.055 203.351 101.923 203.576 102.234L203.712 102.421C203.788 102.503 203.901 102.464 203.909 102.352C203.941 101.9 204.217 101.769 204.474 102.142L204.509 102.192C204.523 102.212 204.538 102.233 204.559 102.247C204.632 102.294 204.721 102.252 204.728 102.153C204.729 102.139 204.729 102.123 204.73 102.106C204.738 101.658 205.048 101.516 205.31 101.879C205.386 101.962 205.499 101.923 205.507 101.81C205.511 101.76 205.511 101.693 205.509 101.616C205.5 101.27 205.84 101.118 206.06 101.385C206.137 101.467 206.25 101.428 206.258 101.316C206.283 100.958 206.594 100.833 206.807 101.122L206.998 101.381C207.075 101.463 207.187 101.424 207.195 101.312C207.2 101.248 207.195 101.155 207.184 101.048C207.147 100.683 207.396 100.565 207.617 100.858C207.693 100.94 207.806 100.901 207.814 100.789C207.84 100.422 208.211 100.272 208.438 100.561L208.546 100.698C208.623 100.78 208.735 100.741 208.743 100.629C208.776 100.172 208.979 100.059 209.234 100.439L209.307 100.548C209.323 100.572 209.34 100.598 209.366 100.613C209.438 100.654 209.522 100.612 209.529 100.515C209.533 100.45 209.53 100.361 209.522 100.26C209.475 99.6784 209.567 99.6211 209.952 100.06C210.001 100.117 210.068 100.119 210.111 100.082C210.159 100.039 210.148 99.963 210.141 99.8986L210.071 99.1974C210.064 99.133 210.053 99.0574 210.101 99.0144C210.142 98.9786 210.204 98.9782 210.254 99.0264L210.696 99.5058C210.773 99.5798 210.879 99.539 210.89 99.4316L210.914 98.4146C211.257 98.2168 211.375 98.0384 211.417 97.9235C211.534 97.0711 210.767 95.5139 210.369 94.8419Z" fill="black" fill-opacity="0.2"/>
<path d="M210.369 94.8419C205.014 95.1011 200.235 97.6388 198.515 98.8753C198.595 99.7337 198.917 101.552 199.563 101.957C199.667 102.022 199.779 102.115 200.172 102.063L200.778 102.514C200.931 102.627 201.149 102.542 201.183 102.355C201.224 102.138 201.503 102.07 201.638 102.245L201.701 102.326C201.835 102.5 202.109 102.424 202.119 102.206C202.13 101.986 202.341 101.907 202.469 102.086L202.77 102.507C202.846 102.589 202.959 102.55 202.967 102.438C202.995 102.055 203.351 101.923 203.576 102.234L203.712 102.421C203.788 102.503 203.901 102.464 203.909 102.352C203.941 101.9 204.217 101.769 204.474 102.142L204.509 102.192C204.523 102.212 204.538 102.233 204.559 102.247C204.632 102.294 204.721 102.252 204.728 102.153C204.729 102.139 204.729 102.123 204.73 102.106C204.738 101.658 205.048 101.516 205.31 101.879C205.386 101.962 205.499 101.923 205.507 101.81C205.511 101.76 205.511 101.693 205.509 101.616C205.5 101.27 205.84 101.118 206.06 101.385C206.137 101.467 206.25 101.428 206.258 101.316C206.283 100.958 206.594 100.833 206.807 101.122L206.998 101.381C207.075 101.463 207.187 101.424 207.195 101.312C207.2 101.248 207.195 101.155 207.184 101.048C207.147 100.683 207.396 100.565 207.617 100.858C207.693 100.94 207.806 100.901 207.814 100.789C207.84 100.422 208.211 100.272 208.438 100.561L208.546 100.698C208.623 100.78 208.735 100.741 208.743 100.629C208.776 100.172 208.979 100.059 209.234 100.439L209.307 100.548C209.323 100.572 209.34 100.598 209.366 100.613C209.438 100.654 209.522 100.612 209.529 100.515C209.533 100.45 209.53 100.361 209.522 100.26C209.475 99.6784 209.567 99.6211 209.952 100.06C210.001 100.117 210.068 100.119 210.111 100.082C210.159 100.039 210.148 99.963 210.141 99.8986L210.071 99.1974C210.064 99.133 210.053 99.0574 210.101 99.0144C210.142 98.9786 210.204 98.9782 210.254 99.0264L210.696 99.5058C210.773 99.5798 210.879 99.539 210.89 99.4316L210.914 98.4146C211.257 98.2168 211.375 98.0384 211.417 97.9235C211.534 97.0711 210.767 95.5139 210.369 94.8419Z" stroke="black"/>
</g>
<path d="M199.48 98.8073C201.598 98.9687 206.568 98.5121 209.51 95.3946C204.994 94.8965 200.942 97.4622 199.48 98.8073Z" fill="#636712" stroke="black"/>
<circle cx="259" cy="45" r="13" fill="#B60707"/>
<circle cx="323" cy="198" r="13" fill="#B60707"/>
<g filter="url(#filter3_d_28_2)">
<path d="M329.787 184.817C324.634 183.337 319.293 184.2 317.266 184.817C317.065 185.655 316.784 187.48 317.266 188.072C317.343 188.167 317.419 188.291 317.808 188.368L318.237 188.991C318.344 189.147 318.578 189.137 318.671 188.971C318.78 188.778 319.065 188.804 319.137 189.013L319.171 189.111C319.242 189.318 319.525 189.335 319.606 189.131C319.686 188.927 319.911 188.92 319.975 189.13L320.124 189.626C320.17 189.728 320.29 189.727 320.333 189.624C320.482 189.27 320.862 189.26 320.975 189.627L321.044 189.848C321.09 189.95 321.209 189.949 321.253 189.846C321.429 189.428 321.732 189.393 321.856 189.829L321.872 189.887C321.879 189.912 321.886 189.936 321.902 189.956C321.956 190.024 322.053 190.013 322.092 189.922C322.097 189.908 322.103 189.893 322.109 189.877C322.261 189.456 322.6 189.421 322.731 189.85C322.777 189.952 322.896 189.951 322.94 189.848C322.96 189.801 322.982 189.738 323.004 189.665C323.107 189.334 323.478 189.299 323.601 189.624C323.647 189.726 323.766 189.725 323.81 189.622C323.949 189.291 324.284 189.273 324.392 189.614L324.49 189.922C324.536 190.024 324.655 190.023 324.699 189.92C324.724 189.861 324.749 189.771 324.773 189.666C324.856 189.309 325.13 189.277 325.244 189.626C325.29 189.728 325.409 189.727 325.453 189.624C325.596 189.285 325.996 189.263 326.118 189.609L326.175 189.774C326.221 189.876 326.341 189.875 326.384 189.772C326.563 189.349 326.791 189.308 326.91 189.75L326.944 189.877C326.951 189.905 326.96 189.935 326.979 189.957C327.034 190.02 327.127 190.007 327.164 189.918C327.19 189.857 327.216 189.772 327.241 189.673C327.383 189.108 327.489 189.083 327.711 189.622C327.74 189.692 327.803 189.716 327.855 189.694C327.915 189.669 327.928 189.594 327.943 189.531L328.102 188.844C328.117 188.781 328.13 188.706 328.19 188.681C328.24 188.66 328.299 188.68 328.331 188.742L328.595 189.338C328.644 189.433 328.758 189.428 328.802 189.33L329.152 188.375C329.541 188.298 329.71 188.167 329.787 188.072C330.173 187.303 329.948 185.581 329.787 184.817Z" fill="#B3BB16"/>
<path d="M329.787 184.817C324.634 183.337 319.293 184.2 317.266 184.817C317.065 185.655 316.784 187.48 317.266 188.072C317.343 188.167 317.419 188.291 317.808 188.368L318.237 188.991C318.344 189.147 318.578 189.137 318.671 188.971C318.78 188.778 319.065 188.804 319.137 189.013L319.171 189.111C319.242 189.318 319.525 189.335 319.606 189.131C319.686 188.927 319.911 188.92 319.975 189.13L320.124 189.626C320.17 189.728 320.29 189.727 320.333 189.624C320.482 189.27 320.862 189.26 320.975 189.627L321.044 189.848C321.09 189.95 321.209 189.949 321.253 189.846C321.429 189.428 321.732 189.393 321.856 189.829L321.872 189.887C321.879 189.912 321.886 189.936 321.902 189.956C321.956 190.024 322.053 190.013 322.092 189.922C322.097 189.908 322.103 189.893 322.109 189.877C322.261 189.456 322.6 189.421 322.731 189.85C322.777 189.952 322.896 189.951 322.94 189.848C322.96 189.801 322.982 189.738 323.004 189.665C323.107 189.334 323.478 189.299 323.601 189.624C323.647 189.726 323.766 189.725 323.81 189.622C323.949 189.291 324.284 189.273 324.392 189.614L324.49 189.922C324.536 190.024 324.655 190.023 324.699 189.92C324.724 189.861 324.749 189.771 324.773 189.666C324.856 189.309 325.13 189.277 325.244 189.626C325.29 189.728 325.409 189.727 325.453 189.624C325.596 189.285 325.996 189.263 326.118 189.609L326.175 189.774C326.221 189.876 326.341 189.875 326.384 189.772C326.563 189.349 326.791 189.308 326.91 189.75L326.944 189.877C326.951 189.905 326.96 189.935 326.979 189.957C327.034 190.02 327.127 190.007 327.164 189.918C327.19 189.857 327.216 189.772 327.241 189.673C327.383 189.108 327.489 189.083 327.711 189.622C327.74 189.692 327.803 189.716 327.855 189.694C327.915 189.669 327.928 189.594 327.943 189.531L328.102 188.844C328.117 188.781 328.13 188.706 328.19 188.681C328.24 188.66 328.299 188.68 328.331 188.742L328.595 189.338C328.644 189.433 328.758 189.428 328.802 189.33L329.152 188.375C329.541 188.298 329.71 188.167 329.787 188.072C330.173 187.303 329.948 185.581 329.787 184.817Z" fill="black" fill-opacity="0.2"/>
<path d="M329.787 184.817C324.634 183.337 319.293 184.2 317.266 184.817C317.065 185.655 316.784 187.48 317.266 188.072C317.343 188.167 317.419 188.291 317.808 188.368L318.237 188.991C318.344 189.147 318.578 189.137 318.671 188.971C318.78 188.778 319.065 188.804 319.137 189.013L319.171 189.111C319.242 189.318 319.525 189.335 319.606 189.131C319.686 188.927 319.911 188.92 319.975 189.13L320.124 189.626C320.17 189.728 320.29 189.727 320.333 189.624C320.482 189.27 320.862 189.26 320.975 189.627L321.044 189.848C321.09 189.95 321.209 189.949 321.253 189.846C321.429 189.428 321.732 189.393 321.856 189.829L321.872 189.887C321.879 189.912 321.886 189.936 321.902 189.956C321.956 190.024 322.053 190.013 322.092 189.922C322.097 189.908 322.103 189.893 322.109 189.877C322.261 189.456 322.6 189.421 322.731 189.85C322.777 189.952 322.896 189.951 322.94 189.848C322.96 189.801 322.982 189.738 323.004 189.665C323.107 189.334 323.478 189.299 323.601 189.624C323.647 189.726 323.766 189.725 323.81 189.622C323.949 189.291 324.284 189.273 324.392 189.614L324.49 189.922C324.536 190.024 324.655 190.023 324.699 189.92C324.724 189.861 324.749 189.771 324.773 189.666C324.856 189.309 325.13 189.277 325.244 189.626C325.29 189.728 325.409 189.727 325.453 189.624C325.596 189.285 325.996 189.263 326.118 189.609L326.175 189.774C326.221 189.876 326.341 189.875 326.384 189.772C326.563 189.349 326.791 189.308 326.91 189.75L326.944 189.877C326.951 189.905 326.96 189.935 326.979 189.957C327.034 190.02 327.127 190.007 327.164 189.918C327.19 189.857 327.216 189.772 327.241 189.673C327.383 189.108 327.489 189.083 327.711 189.622C327.74 189.692 327.803 189.716 327.855 189.694C327.915 189.669 327.928 189.594 327.943 189.531L328.102 188.844C328.117 188.781 328.13 188.706 328.19 188.681C328.24 188.66 328.299 188.68 328.331 188.742L328.595 189.338C328.644 189.433 328.758 189.428 328.802 189.33L329.152 188.375C329.541 188.298 329.71 188.167 329.787 188.072C330.173 187.303 329.948 185.581 329.787 184.817Z" stroke="black"/>
</g>
<path d="M318.202 185.064C320.154 185.899 325.007 187.067 328.796 185.064C324.681 183.137 320.019 184.261 318.202 185.064Z" fill="#636712" stroke="black"/>
<g filter="url(#filter4_d_28_2)">
<path d="M260.319 29.841C254.969 30.1774 250.227 32.7838 248.525 34.045C248.617 34.9022 248.965 36.7154 249.618 37.1112C249.722 37.1747 249.835 37.2665 250.227 37.208L250.841 37.6508C250.994 37.7619 251.211 37.6732 251.243 37.4861C251.281 37.2679 251.558 37.1964 251.696 37.3695L251.761 37.4498C251.897 37.6211 252.17 37.5419 252.177 37.3229C252.184 37.1036 252.394 37.0214 252.524 37.198L252.832 37.6149C252.909 37.696 253.022 37.6553 253.028 37.5427C253.05 37.1598 253.404 37.0228 253.634 37.33L253.772 37.5152C253.85 37.5963 253.962 37.5556 253.969 37.4431C253.994 36.991 254.268 36.8564 254.531 37.225L254.566 37.2745C254.581 37.295 254.596 37.3158 254.617 37.3291C254.691 37.3756 254.779 37.3322 254.784 37.2331C254.785 37.2186 254.786 37.2026 254.786 37.1852C254.788 36.7374 255.095 36.5914 255.362 36.9507C255.44 37.0318 255.552 36.9911 255.558 36.8786C255.561 36.828 255.561 36.7612 255.558 36.6847C255.544 36.3382 255.881 36.1814 256.106 36.4457C256.183 36.5268 256.296 36.4861 256.302 36.3735C256.322 36.0156 256.631 35.8859 256.848 36.1714L257.043 36.4279C257.121 36.509 257.233 36.4683 257.239 36.3558C257.243 36.2918 257.237 36.199 257.225 36.0919C257.182 35.7276 257.43 35.6059 257.654 35.896C257.732 35.9771 257.844 35.9364 257.85 35.8238C257.871 35.4573 258.241 35.302 258.472 35.5873L258.581 35.7226C258.659 35.8037 258.771 35.763 258.778 35.6505C258.804 35.193 259.005 35.0774 259.265 35.4542L259.34 35.5615C259.356 35.5859 259.374 35.6111 259.4 35.6256C259.472 35.6662 259.556 35.6225 259.561 35.526C259.565 35.461 259.561 35.3715 259.551 35.2705C259.496 34.6898 259.587 34.6312 259.977 35.0644C260.028 35.1204 260.095 35.122 260.137 35.0838C260.185 35.0402 260.172 34.9647 260.165 34.9004L260.084 34.2003C260.077 34.136 260.064 34.0606 260.112 34.0169C260.152 33.9805 260.214 33.9792 260.265 34.0266L260.714 34.4996C260.792 34.5725 260.898 34.5302 260.906 34.4227L260.916 33.4054C261.256 33.2027 261.371 33.0226 261.412 32.9071C261.517 32.053 260.727 30.5071 260.319 29.841Z" fill="#B3BB16"/>
<path d="M260.319 29.841C254.969 30.1774 250.227 32.7838 248.525 34.045C248.617 34.9022 248.965 36.7154 249.618 37.1112C249.722 37.1747 249.835 37.2665 250.227 37.208L250.841 37.6508C250.994 37.7619 251.211 37.6732 251.243 37.4861C251.281 37.2679 251.558 37.1964 251.696 37.3695L251.761 37.4498C251.897 37.6211 252.17 37.5419 252.177 37.3229C252.184 37.1036 252.394 37.0214 252.524 37.198L252.832 37.6149C252.909 37.696 253.022 37.6553 253.028 37.5427C253.05 37.1598 253.404 37.0228 253.634 37.33L253.772 37.5152C253.85 37.5963 253.962 37.5556 253.969 37.4431C253.994 36.991 254.268 36.8564 254.531 37.225L254.566 37.2745C254.581 37.295 254.596 37.3158 254.617 37.3291C254.691 37.3756 254.779 37.3322 254.784 37.2331C254.785 37.2186 254.786 37.2026 254.786 37.1852C254.788 36.7374 255.095 36.5914 255.362 36.9507C255.44 37.0318 255.552 36.9911 255.558 36.8786C255.561 36.828 255.561 36.7612 255.558 36.6847C255.544 36.3382 255.881 36.1814 256.106 36.4457C256.183 36.5268 256.296 36.4861 256.302 36.3735C256.322 36.0156 256.631 35.8859 256.848 36.1714L257.043 36.4279C257.121 36.509 257.233 36.4683 257.239 36.3558C257.243 36.2918 257.237 36.199 257.225 36.0919C257.182 35.7276 257.43 35.6059 257.654 35.896C257.732 35.9771 257.844 35.9364 257.85 35.8238C257.871 35.4573 258.241 35.302 258.472 35.5873L258.581 35.7226C258.659 35.8037 258.771 35.763 258.778 35.6505C258.804 35.193 259.005 35.0774 259.265 35.4542L259.34 35.5615C259.356 35.5859 259.374 35.6111 259.4 35.6256C259.472 35.6662 259.556 35.6225 259.561 35.526C259.565 35.461 259.561 35.3715 259.551 35.2705C259.496 34.6898 259.587 34.6312 259.977 35.0644C260.028 35.1204 260.095 35.122 260.137 35.0838C260.185 35.0402 260.172 34.9647 260.165 34.9004L260.084 34.2003C260.077 34.136 260.064 34.0606 260.112 34.0169C260.152 33.9805 260.214 33.9792 260.265 34.0266L260.714 34.4996C260.792 34.5725 260.898 34.5302 260.906 34.4227L260.916 33.4054C261.256 33.2027 261.371 33.0226 261.412 32.9071C261.517 32.053 260.727 30.5071 260.319 29.841Z" fill="black" fill-opacity="0.2"/>
<path d="M260.319 29.841C254.969 30.1774 250.227 32.7838 248.525 34.045C248.617 34.9022 248.965 36.7154 249.618 37.1112C249.722 37.1747 249.835 37.2665 250.227 37.208L250.841 37.6508C250.994 37.7619 251.211 37.6732 251.243 37.4861C251.281 37.2679 251.558 37.1964 251.696 37.3695L251.761 37.4498C251.897 37.6211 252.17 37.5419 252.177 37.3229C252.184 37.1036 252.394 37.0214 252.524 37.198L252.832 37.6149C252.909 37.696 253.022 37.6553 253.028 37.5427C253.05 37.1598 253.404 37.0228 253.634 37.33L253.772 37.5152C253.85 37.5963 253.962 37.5556 253.969 37.4431C253.994 36.991 254.268 36.8564 254.531 37.225L254.566 37.2745C254.581 37.295 254.596 37.3158 254.617 37.3291C254.691 37.3756 254.779 37.3322 254.784 37.2331C254.785 37.2186 254.786 37.2026 254.786 37.1852C254.788 36.7374 255.095 36.5914 255.362 36.9507C255.44 37.0318 255.552 36.9911 255.558 36.8786C255.561 36.828 255.561 36.7612 255.558 36.6847C255.544 36.3382 255.881 36.1814 256.106 36.4457C256.183 36.5268 256.296 36.4861 256.302 36.3735C256.322 36.0156 256.631 35.8859 256.848 36.1714L257.043 36.4279C257.121 36.509 257.233 36.4683 257.239 36.3558C257.243 36.2918 257.237 36.199 257.225 36.0919C257.182 35.7276 257.43 35.6059 257.654 35.896C257.732 35.9771 257.844 35.9364 257.85 35.8238C257.871 35.4573 258.241 35.302 258.472 35.5873L258.581 35.7226C258.659 35.8037 258.771 35.763 258.778 35.6505C258.804 35.193 259.005 35.0774 259.265 35.4542L259.34 35.5615C259.356 35.5859 259.374 35.6111 259.4 35.6256C259.472 35.6662 259.556 35.6225 259.561 35.526C259.565 35.461 259.561 35.3715 259.551 35.2705C259.496 34.6898 259.587 34.6312 259.977 35.0644C260.028 35.1204 260.095 35.122 260.137 35.0838C260.185 35.0402 260.172 34.9647 260.165 34.9004L260.084 34.2003C260.077 34.136 260.064 34.0606 260.112 34.0169C260.152 33.9805 260.214 33.9792 260.265 34.0266L260.714 34.4996C260.792 34.5725 260.898 34.5302 260.906 34.4227L260.916 33.4054C261.256 33.2027 261.371 33.0226 261.412 32.9071C261.517 32.053 260.727 30.5071 260.319 29.841Z" stroke="black"/>
</g>
<path d="M249.489 33.9632C251.609 34.094 256.572 33.5657 259.469 30.406C254.945 29.9731 250.931 32.5971 249.489 33.9632Z" fill="#636712" stroke="black"/>
<circle cx="295" cy="109" r="13" fill="#B60707"/>
<g filter="url(#filter5_d_28_2)">
<path d="M300.787 95.817C295.634 94.3374 290.293 95.2005 288.266 95.817C288.065 96.6554 287.784 98.4803 288.266 99.0721C288.343 99.1671 288.419 99.2915 288.808 99.368L289.237 99.991C289.344 100.147 289.578 100.137 289.671 99.9711C289.78 99.778 290.065 99.804 290.137 100.013L290.171 100.111C290.242 100.318 290.525 100.335 290.606 100.131C290.686 99.9266 290.911 99.9198 290.975 100.13L291.124 100.626C291.17 100.728 291.29 100.727 291.333 100.624C291.482 100.27 291.862 100.26 291.975 100.627L292.044 100.848C292.09 100.95 292.209 100.949 292.253 100.846C292.429 100.428 292.732 100.393 292.856 100.829L292.872 100.887C292.879 100.912 292.886 100.936 292.902 100.956C292.956 101.024 293.053 101.013 293.092 100.922C293.097 100.908 293.103 100.893 293.109 100.877C293.261 100.456 293.6 100.421 293.731 100.85C293.777 100.952 293.896 100.951 293.94 100.848C293.96 100.801 293.982 100.738 294.004 100.665C294.107 100.334 294.478 100.299 294.601 100.624C294.647 100.726 294.766 100.725 294.81 100.622C294.949 100.291 295.284 100.273 295.392 100.614L295.49 100.922C295.536 101.024 295.655 101.023 295.699 100.92C295.724 100.861 295.749 100.771 295.773 100.666C295.856 100.309 296.13 100.277 296.244 100.626C296.29 100.728 296.409 100.727 296.453 100.624C296.596 100.285 296.996 100.263 297.118 100.609L297.175 100.774C297.221 100.876 297.341 100.875 297.384 100.772C297.563 100.349 297.791 100.308 297.91 100.75L297.944 100.877C297.951 100.905 297.96 100.935 297.979 100.957C298.034 101.02 298.127 101.007 298.164 100.918C298.19 100.857 298.216 100.772 298.241 100.673C298.383 100.108 298.489 100.083 298.711 100.622C298.74 100.692 298.803 100.716 298.855 100.694C298.915 100.669 298.928 100.594 298.943 100.531L299.102 99.8443C299.117 99.7812 299.13 99.706 299.19 99.6809C299.24 99.66 299.299 99.6798 299.331 99.7415L299.595 100.338C299.644 100.433 299.758 100.428 299.802 100.33L300.152 99.3747C300.541 99.2981 300.71 99.1671 300.787 99.0721C301.173 98.3027 300.948 96.5814 300.787 95.817Z" fill="#B3BB16"/>
<path d="M300.787 95.817C295.634 94.3374 290.293 95.2005 288.266 95.817C288.065 96.6554 287.784 98.4803 288.266 99.0721C288.343 99.1671 288.419 99.2915 288.808 99.368L289.237 99.991C289.344 100.147 289.578 100.137 289.671 99.9711C289.78 99.778 290.065 99.804 290.137 100.013L290.171 100.111C290.242 100.318 290.525 100.335 290.606 100.131C290.686 99.9266 290.911 99.9198 290.975 100.13L291.124 100.626C291.17 100.728 291.29 100.727 291.333 100.624C291.482 100.27 291.862 100.26 291.975 100.627L292.044 100.848C292.09 100.95 292.209 100.949 292.253 100.846C292.429 100.428 292.732 100.393 292.856 100.829L292.872 100.887C292.879 100.912 292.886 100.936 292.902 100.956C292.956 101.024 293.053 101.013 293.092 100.922C293.097 100.908 293.103 100.893 293.109 100.877C293.261 100.456 293.6 100.421 293.731 100.85C293.777 100.952 293.896 100.951 293.94 100.848C293.96 100.801 293.982 100.738 294.004 100.665C294.107 100.334 294.478 100.299 294.601 100.624C294.647 100.726 294.766 100.725 294.81 100.622C294.949 100.291 295.284 100.273 295.392 100.614L295.49 100.922C295.536 101.024 295.655 101.023 295.699 100.92C295.724 100.861 295.749 100.771 295.773 100.666C295.856 100.309 296.13 100.277 296.244 100.626C296.29 100.728 296.409 100.727 296.453 100.624C296.596 100.285 296.996 100.263 297.118 100.609L297.175 100.774C297.221 100.876 297.341 100.875 297.384 100.772C297.563 100.349 297.791 100.308 297.91 100.75L297.944 100.877C297.951 100.905 297.96 100.935 297.979 100.957C298.034 101.02 298.127 101.007 298.164 100.918C298.19 100.857 298.216 100.772 298.241 100.673C298.383 100.108 298.489 100.083 298.711 100.622C298.74 100.692 298.803 100.716 298.855 100.694C298.915 100.669 298.928 100.594 298.943 100.531L299.102 99.8443C299.117 99.7812 299.13 99.706 299.19 99.6809C299.24 99.66 299.299 99.6798 299.331 99.7415L299.595 100.338C299.644 100.433 299.758 100.428 299.802 100.33L300.152 99.3747C300.541 99.2981 300.71 99.1671 300.787 99.0721C301.173 98.3027 300.948 96.5814 300.787 95.817Z" fill="black" fill-opacity="0.2"/>
<path d="M300.787 95.817C295.634 94.3374 290.293 95.2005 288.266 95.817C288.065 96.6554 287.784 98.4803 288.266 99.0721C288.343 99.1671 288.419 99.2915 288.808 99.368L289.237 99.991C289.344 100.147 289.578 100.137 289.671 99.9711C289.78 99.778 290.065 99.804 290.137 100.013L290.171 100.111C290.242 100.318 290.525 100.335 290.606 100.131C290.686 99.9266 290.911 99.9198 290.975 100.13L291.124 100.626C291.17 100.728 291.29 100.727 291.333 100.624C291.482 100.27 291.862 100.26 291.975 100.627L292.044 100.848C292.09 100.95 292.209 100.949 292.253 100.846C292.429 100.428 292.732 100.393 292.856 100.829L292.872 100.887C292.879 100.912 292.886 100.936 292.902 100.956C292.956 101.024 293.053 101.013 293.092 100.922C293.097 100.908 293.103 100.893 293.109 100.877C293.261 100.456 293.6 100.421 293.731 100.85C293.777 100.952 293.896 100.951 293.94 100.848C293.96 100.801 293.982 100.738 294.004 100.665C294.107 100.334 294.478 100.299 294.601 100.624C294.647 100.726 294.766 100.725 294.81 100.622C294.949 100.291 295.284 100.273 295.392 100.614L295.49 100.922C295.536 101.024 295.655 101.023 295.699 100.92C295.724 100.861 295.749 100.771 295.773 100.666C295.856 100.309 296.13 100.277 296.244 100.626C296.29 100.728 296.409 100.727 296.453 100.624C296.596 100.285 296.996 100.263 297.118 100.609L297.175 100.774C297.221 100.876 297.341 100.875 297.384 100.772C297.563 100.349 297.791 100.308 297.91 100.75L297.944 100.877C297.951 100.905 297.96 100.935 297.979 100.957C298.034 101.02 298.127 101.007 298.164 100.918C298.19 100.857 298.216 100.772 298.241 100.673C298.383 100.108 298.489 100.083 298.711 100.622C298.74 100.692 298.803 100.716 298.855 100.694C298.915 100.669 298.928 100.594 298.943 100.531L299.102 99.8443C299.117 99.7812 299.13 99.706 299.19 99.6809C299.24 99.66 299.299 99.6798 299.331 99.7415L299.595 100.338C299.644 100.433 299.758 100.428 299.802 100.33L300.152 99.3747C300.541 99.2981 300.71 99.1671 300.787 99.0721C301.173 98.3027 300.948 96.5814 300.787 95.817Z" stroke="black"/>
</g>
<path d="M289.202 96.0637C291.154 96.8986 296.007 98.0673 299.796 96.0637C295.681 94.1372 291.019 95.261 289.202 96.0637Z" fill="#636712" stroke="black"/>
<circle cx="116" cy="218" r="13" fill="#B60707"/>
<g filter="url(#filter6_d_28_2)">
<path d="M122.787 204.817C117.634 203.337 112.293 204.2 110.266 204.817C110.065 205.655 109.784 207.48 110.266 208.072C110.343 208.167 110.419 208.291 110.808 208.368L111.237 208.991C111.344 209.147 111.578 209.137 111.671 208.971C111.78 208.778 112.065 208.804 112.137 209.013L112.171 209.111C112.242 209.318 112.525 209.335 112.606 209.131C112.686 208.927 112.911 208.92 112.975 209.13L113.124 209.626C113.17 209.728 113.29 209.727 113.333 209.624C113.482 209.27 113.862 209.26 113.975 209.627L114.044 209.848C114.09 209.95 114.209 209.949 114.253 209.846C114.429 209.428 114.732 209.393 114.856 209.829L114.872 209.887C114.879 209.912 114.886 209.936 114.902 209.956C114.956 210.024 115.053 210.013 115.092 209.922C115.097 209.908 115.103 209.893 115.109 209.877C115.261 209.456 115.6 209.421 115.731 209.85C115.777 209.952 115.896 209.951 115.94 209.848C115.96 209.801 115.982 209.738 116.004 209.665C116.107 209.334 116.478 209.299 116.601 209.624C116.647 209.726 116.766 209.725 116.81 209.622C116.949 209.291 117.284 209.273 117.392 209.614L117.49 209.922C117.536 210.024 117.655 210.023 117.699 209.92C117.724 209.861 117.749 209.771 117.773 209.666C117.856 209.309 118.13 209.277 118.244 209.626C118.29 209.728 118.409 209.727 118.453 209.624C118.596 209.285 118.996 209.263 119.118 209.609L119.175 209.774C119.221 209.876 119.341 209.875 119.384 209.772C119.563 209.349 119.791 209.308 119.91 209.75L119.944 209.877C119.951 209.905 119.96 209.935 119.979 209.957C120.034 210.02 120.127 210.007 120.164 209.918C120.19 209.857 120.216 209.772 120.241 209.673C120.383 209.108 120.489 209.083 120.711 209.622C120.74 209.692 120.803 209.716 120.855 209.694C120.915 209.669 120.928 209.594 120.943 209.531L121.102 208.844C121.117 208.781 121.13 208.706 121.19 208.681C121.24 208.66 121.299 208.68 121.331 208.742L121.595 209.338C121.644 209.433 121.758 209.428 121.802 209.33L122.152 208.375C122.541 208.298 122.71 208.167 122.787 208.072C123.173 207.303 122.948 205.581 122.787 204.817Z" fill="#B3BB16"/>
<path d="M122.787 204.817C117.634 203.337 112.293 204.2 110.266 204.817C110.065 205.655 109.784 207.48 110.266 208.072C110.343 208.167 110.419 208.291 110.808 208.368L111.237 208.991C111.344 209.147 111.578 209.137 111.671 208.971C111.78 208.778 112.065 208.804 112.137 209.013L112.171 209.111C112.242 209.318 112.525 209.335 112.606 209.131C112.686 208.927 112.911 208.92 112.975 209.13L113.124 209.626C113.17 209.728 113.29 209.727 113.333 209.624C113.482 209.27 113.862 209.26 113.975 209.627L114.044 209.848C114.09 209.95 114.209 209.949 114.253 209.846C114.429 209.428 114.732 209.393 114.856 209.829L114.872 209.887C114.879 209.912 114.886 209.936 114.902 209.956C114.956 210.024 115.053 210.013 115.092 209.922C115.097 209.908 115.103 209.893 115.109 209.877C115.261 209.456 115.6 209.421 115.731 209.85C115.777 209.952 115.896 209.951 115.94 209.848C115.96 209.801 115.982 209.738 116.004 209.665C116.107 209.334 116.478 209.299 116.601 209.624C116.647 209.726 116.766 209.725 116.81 209.622C116.949 209.291 117.284 209.273 117.392 209.614L117.49 209.922C117.536 210.024 117.655 210.023 117.699 209.92C117.724 209.861 117.749 209.771 117.773 209.666C117.856 209.309 118.13 209.277 118.244 209.626C118.29 209.728 118.409 209.727 118.453 209.624C118.596 209.285 118.996 209.263 119.118 209.609L119.175 209.774C119.221 209.876 119.341 209.875 119.384 209.772C119.563 209.349 119.791 209.308 119.91 209.75L119.944 209.877C119.951 209.905 119.96 209.935 119.979 209.957C120.034 210.02 120.127 210.007 120.164 209.918C120.19 209.857 120.216 209.772 120.241 209.673C120.383 209.108 120.489 209.083 120.711 209.622C120.74 209.692 120.803 209.716 120.855 209.694C120.915 209.669 120.928 209.594 120.943 209.531L121.102 208.844C121.117 208.781 121.13 208.706 121.19 208.681C121.24 208.66 121.299 208.68 121.331 208.742L121.595 209.338C121.644 209.433 121.758 209.428 121.802 209.33L122.152 208.375C122.541 208.298 122.71 208.167 122.787 208.072C123.173 207.303 122.948 205.581 122.787 204.817Z" fill="black" fill-opacity="0.2"/>
<path d="M122.787 204.817C117.634 203.337 112.293 204.2 110.266 204.817C110.065 205.655 109.784 207.48 110.266 208.072C110.343 208.167 110.419 208.291 110.808 208.368L111.237 208.991C111.344 209.147 111.578 209.137 111.671 208.971C111.78 208.778 112.065 208.804 112.137 209.013L112.171 209.111C112.242 209.318 112.525 209.335 112.606 209.131C112.686 208.927 112.911 208.92 112.975 209.13L113.124 209.626C113.17 209.728 113.29 209.727 113.333 209.624C113.482 209.27 113.862 209.26 113.975 209.627L114.044 209.848C114.09 209.95 114.209 209.949 114.253 209.846C114.429 209.428 114.732 209.393 114.856 209.829L114.872 209.887C114.879 209.912 114.886 209.936 114.902 209.956C114.956 210.024 115.053 210.013 115.092 209.922C115.097 209.908 115.103 209.893 115.109 209.877C115.261 209.456 115.6 209.421 115.731 209.85C115.777 209.952 115.896 209.951 115.94 209.848C115.96 209.801 115.982 209.738 116.004 209.665C116.107 209.334 116.478 209.299 116.601 209.624C116.647 209.726 116.766 209.725 116.81 209.622C116.949 209.291 117.284 209.273 117.392 209.614L117.49 209.922C117.536 210.024 117.655 210.023 117.699 209.92C117.724 209.861 117.749 209.771 117.773 209.666C117.856 209.309 118.13 209.277 118.244 209.626C118.29 209.728 118.409 209.727 118.453 209.624C118.596 209.285 118.996 209.263 119.118 209.609L119.175 209.774C119.221 209.876 119.341 209.875 119.384 209.772C119.563 209.349 119.791 209.308 119.91 209.75L119.944 209.877C119.951 209.905 119.96 209.935 119.979 209.957C120.034 210.02 120.127 210.007 120.164 209.918C120.19 209.857 120.216 209.772 120.241 209.673C120.383 209.108 120.489 209.083 120.711 209.622C120.74 209.692 120.803 209.716 120.855 209.694C120.915 209.669 120.928 209.594 120.943 209.531L121.102 208.844C121.117 208.781 121.13 208.706 121.19 208.681C121.24 208.66 121.299 208.68 121.331 208.742L121.595 209.338C121.644 209.433 121.758 209.428 121.802 209.33L122.152 208.375C122.541 208.298 122.71 208.167 122.787 208.072C123.173 207.303 122.948 205.581 122.787 204.817Z" stroke="black"/>
</g>
<path d="M111.202 205.064C113.154 205.899 118.007 207.067 121.796 205.064C117.681 203.137 113.019 204.261 111.202 205.064Z" fill="#636712" stroke="black"/>
<path d="M15.6777 89C15.6777 90.3629 14.3366 93.6213 15.4276 94.8035C16.019 95.4445 16.253 96.5362 16.7892 97.1304C17.4079 97.8161 17.8709 98.639 18.1231 99.5395C18.6491 101.418 17.0986 102.148 16.6642 103.646C16.248 105.081 16.5265 106.497 17.5534 107.711C18.4799 108.806 18.6789 110.518 18.6789 111.913C18.6789 112.975 18.5622 113.352 18.0536 114.254C17.7879 114.725 17.1783 115.574 17.1783 116.101C17.1783 117.698 17.5361 118.948 19.4292 119.058C20.2772 119.107 19.9294 122.346 19.9294 123" stroke="black" stroke-width="3" stroke-linecap="round"/>
<path d="M114.916 187.196C114.853 186.845 114.499 187.033 114.395 187.237C114.154 187.708 114.155 187.97 114.127 188.532C114.043 190.195 113.679 191.295 114.757 192.213C115.385 192.749 115.697 193.246 115.697 194.354C115.697 194.817 115.844 196.145 115.668 196.516C115.445 196.989 115.567 197.885 115.567 198.474C115.567 199.542 116.186 200.141 116.609 201.003C116.972 201.741 117 202.014 117 202.981C117 203.692 116.87 204.289 116.87 205" stroke="black" stroke-width="3" stroke-linecap="round"/>
<path d="M340.747 121.238C340.747 123.102 339.561 124.165 338.557 125.599C337.851 126.607 337.618 127.346 337.442 128.58C337.102 130.96 336.093 133.164 336.002 135.597C335.884 138.707 336.516 142.437 335.069 145.332C334.199 147.073 332.69 147.901 331.175 148.983C330.006 149.818 329.207 150.881 328.153 151.7C325.932 153.428 326.875 158.157 326.875 160.665C326.875 161.292 327.313 164.314 326.672 164.68C326.328 164.877 324.695 166.331 324.685 166.587C324.601 168.681 324.685 170.798 324.685 172.894C324.685 174.703 324.32 176.29 324.32 178.025C324.32 179.674 324.374 183.948 323.59 185.124" stroke="black" stroke-width="3" stroke-linecap="round"/>
<path d="M294.971 84C293.94 84.1049 294.001 85.8693 294.001 86.5432C294.001 88.2911 295.166 89.5398 295.888 91.1111C296.321 92.0523 295.385 92.7723 295.025 93.5556C294.743 94.1696 294.971 95.3312 294.971 96" stroke="black" stroke-width="3" stroke-linecap="round"/>
<path d="M197.226 24C197.226 27.3141 197.143 30.6424 197.226 33.9545C197.259 35.2556 198.168 35.8921 198.104 37.2727C198.025 38.9882 197.431 41.3267 196.592 42.7504C195.291 44.9572 196.27 50.2329 198.202 51.7569C200.084 53.242 199.421 56.3219 199.421 58.8409C199.421 60.6834 199.133 62.8539 199.933 64.5292C200.918 66.5883 203.921 69.4825 205.787 70.6916C207.526 71.8184 206.884 76.0959 206.884 78.039C206.884 81.4811 207.435 85.2935 205.811 88.3885C204.94 90.0489 203.811 90.0918 203.811 91.9964C203.811 93.6803 203.555 95.4983 204.25 97" stroke="black" stroke-width="3" stroke-linecap="round"/>
<path d="M252.033 22C250.53 22.1163 251.291 25.034 251.291 25.8209C251.291 26.6223 250.299 28.2245 251.978 28.2245C253.222 28.2245 253.887 28.726 253.887 29.7551C253.887 30.1188 253.745 30.7488 254.087 31.0306C254.497 31.3692 254.696 31.582 255 32" stroke="black" stroke-width="3" stroke-linecap="round"/>
<path d="M95 67C94.1283 67 94.3333 70.3465 94.3333 71.5C94.3333 73.1866 94.2999 74.4329 94 76" stroke="black" stroke-width="3" stroke-linecap="round"/>
<defs>
<filter id="filter0_d_28_2" x="83.5" y="75.5" width="22" height="15" filterUnits="userSpaceOnUse" color-interpolation-filters="sRGB">
<feFlood flood-opacity="0" result="BackgroundImageFix"/>
<feColorMatrix in="SourceAlpha" type="matrix" values="0 0 0 0 0 0 0 0 0 0 0 0 0 0 0 0 0 0 127 0" result="hardAlpha"/>
<feOffset dy="4"/>
<feGaussianBlur stdDeviation="2"/>
<feComposite in2="hardAlpha" operator="out"/>
<feColorMatrix type="matrix" values="0 0 0 0 0 0 0 0 0 0 0 0 0 0 0 0 0 0 0.25 0"/>
<feBlend mode="normal" in2="BackgroundImageFix" result="effect1_dropShadow_28_2"/>
<feBlend mode="normal" in="SourceGraphic" in2="effect1_dropShadow_28_2" result="shape"/>
</filter>
<filter id="filter1_d_28_2" x="8.5" y="121.5" width="22" height="15" filterUnits="userSpaceOnUse" color-interpolation-filters="sRGB">
<feFlood flood-opacity="0" result="BackgroundImageFix"/>
<feColorMatrix in="SourceAlpha" type="matrix" values="0 0 0 0 0 0 0 0 0 0 0 0 0 0 0 0 0 0 127 0" result="hardAlpha"/>
<feOffset dy="4"/>
<feGaussianBlur stdDeviation="2"/>
<feComposite in2="hardAlpha" operator="out"/>
<feColorMatrix type="matrix" values="0 0 0 0 0 0 0 0 0 0 0 0 0 0 0 0 0 0 0.25 0"/>
<feBlend mode="normal" in2="BackgroundImageFix" result="effect1_dropShadow_28_2"/>
<feBlend mode="normal" in="SourceGraphic" in2="effect1_dropShadow_28_2" result="shape"/>
</filter>
<filter id="filter2_d_28_2" x="193.99" y="94.3279" width="21.9388" height="16.7375" filterUnits="userSpaceOnUse" color-interpolation-filters="sRGB">
<feFlood flood-opacity="0" result="BackgroundImageFix"/>
<feColorMatrix in="SourceAlpha" type="matrix" values="0 0 0 0 0 0 0 0 0 0 0 0 0 0 0 0 0 0 127 0" result="hardAlpha"/>
<feOffset dy="4"/>
<feGaussianBlur stdDeviation="2"/>
<feComposite in2="hardAlpha" operator="out"/>
<feColorMatrix type="matrix" values="0 0 0 0 0 0 0 0 0 0 0 0 0 0 0 0 0 0 0.25 0"/>
<feBlend mode="normal" in2="BackgroundImageFix" result="effect1_dropShadow_28_2"/>
<feBlend mode="normal" in="SourceGraphic" in2="effect1_dropShadow_28_2" result="shape"/>
</filter>
<filter id="filter3_d_28_2" x="312.5" y="183.5" width="22" height="15" filterUnits="userSpaceOnUse" color-interpolation-filters="sRGB">
<feFlood flood-opacity="0" result="BackgroundImageFix"/>
<feColorMatrix in="SourceAlpha" type="matrix" values="0 0 0 0 0 0 0 0 0 0 0 0 0 0 0 0 0 0 127 0" result="hardAlpha"/>
<feOffset dy="4"/>
<feGaussianBlur stdDeviation="2"/>
<feComposite in2="hardAlpha" operator="out"/>
<feColorMatrix type="matrix" values="0 0 0 0 0 0 0 0 0 0 0 0 0 0 0 0 0 0 0.25 0"/>
<feBlend mode="normal" in2="BackgroundImageFix" result="effect1_dropShadow_28_2"/>
<feBlend mode="normal" in="SourceGraphic" in2="effect1_dropShadow_28_2" result="shape"/>
</filter>
<filter id="filter4_d_28_2" x="243.997" y="29.323" width="21.9247" height="16.877" filterUnits="userSpaceOnUse" color-interpolation-filters="sRGB">
<feFlood flood-opacity="0" result="BackgroundImageFix"/>
<feColorMatrix in="SourceAlpha" type="matrix" values="0 0 0 0 0 0 0 0 0 0 0 0 0 0 0 0 0 0 127 0" result="hardAlpha"/>
<feOffset dy="4"/>
<feGaussianBlur stdDeviation="2"/>
<feComposite in2="hardAlpha" operator="out"/>
<feColorMatrix type="matrix" values="0 0 0 0 0 0 0 0 0 0 0 0 0 0 0 0 0 0 0.25 0"/>
<feBlend mode="normal" in2="BackgroundImageFix" result="effect1_dropShadow_28_2"/>
<feBlend mode="normal" in="SourceGraphic" in2="effect1_dropShadow_28_2" result="shape"/>
</filter>
<filter id="filter5_d_28_2" x="283.5" y="94.5" width="22" height="15" filterUnits="userSpaceOnUse" color-interpolation-filters="sRGB">
<feFlood flood-opacity="0" result="BackgroundImageFix"/>
<feColorMatrix in="SourceAlpha" type="matrix" values="0 0 0 0 0 0 0 0 0 0 0 0 0 0 0 0 0 0 127 0" result="hardAlpha"/>
<feOffset dy="4"/>
<feGaussianBlur stdDeviation="2"/>
<feComposite in2="hardAlpha" operator="out"/>
<feColorMatrix type="matrix" values="0 0 0 0 0 0 0 0 0 0 0 0 0 0 0 0 0 0 0.25 0"/>
<feBlend mode="normal" in2="BackgroundImageFix" result="effect1_dropShadow_28_2"/>
<feBlend mode="normal" in="SourceGraphic" in2="effect1_dropShadow_28_2" result="shape"/>
</filter>
<filter id="filter6_d_28_2" x="105.5" y="203.5" width="22" height="15" filterUnits="userSpaceOnUse" color-interpolation-filters="sRGB">
<feFlood flood-opacity="0" result="BackgroundImageFix"/>
<feColorMatrix in="SourceAlpha" type="matrix" values="0 0 0 0 0 0 0 0 0 0 0 0 0 0 0 0 0 0 127 0" result="hardAlpha"/>
<feOffset dy="4"/>
<feGaussianBlur stdDeviation="2"/>
<feComposite in2="hardAlpha" operator="out"/>
<feColorMatrix type="matrix" values="0 0 0 0 0 0 0 0 0 0 0 0 0 0 0 0 0 0 0.25 0"/>
<feBlend mode="normal" in2="BackgroundImageFix" result="effect1_dropShadow_28_2"/>
<feBlend mode="normal" in="SourceGraphic" in2="effect1_dropShadow_28_2" result="shape"/>
</filter>
</defs>
</svg>
