<svg width="497" height="498" viewBox="0 0 497 498" fill="none" xmlns="http://www.w3.org/2000/svg">
<path d="M256.454 223.731C252.192 235.828 237.54 239.776 227.755 231.481C213.429 219.337 194.648 202.37 182.141 187.107L180.951 185.636C172.571 175.139 162.126 164.382 151.824 153.619C141.512 142.846 131.341 132.065 123.47 121.489C115.593 110.906 110.064 100.586 108.965 90.7406C107.906 81.2468 110.961 72.1325 120.172 63.5744L121.082 62.7474C143 43.3119 161.392 32.05 182.283 26.4204C202.533 20.9638 225.177 20.7859 255.73 23.6544L258.712 23.9415C271.844 25.236 279.703 30.9832 284.073 39.6535C288.467 48.3709 289.367 60.1078 288.39 73.4235C287.414 86.7279 284.572 101.53 281.547 116.339C278.713 130.209 275.717 144.088 273.964 156.696L273.631 159.201C271.056 179.448 263 205.146 256.454 223.731Z" fill="white" stroke="black"/>
<path d="M272.538 243.788C259.966 246.324 249.07 235.763 251.181 223.11C254.272 204.586 259.224 179.764 265.925 161.205L266.579 159.429C271.301 146.855 275.189 132.374 279.156 118.013C283.126 103.638 287.175 89.3806 292.226 77.2027C297.28 65.0165 303.311 54.9814 311.204 48.9947C318.815 43.2217 328.207 41.1767 340.276 44.7036L341.452 45.0618C369.371 53.9297 388.465 63.9561 404.001 79.0148C419.061 93.6109 430.813 112.967 444 140.677L445.281 143.385C450.896 155.326 449.986 165.019 444.778 173.214C439.542 181.453 429.923 188.238 417.987 194.221C406.061 200.197 391.892 205.339 377.624 210.326C364.26 214.997 350.806 219.534 339.08 224.487L336.758 225.484C318.05 233.645 291.853 239.89 272.538 243.788Z" fill="white" stroke="black"/>
<path d="M267.868 268.007C259.187 258.566 262.579 243.776 274.496 239.029C291.943 232.08 315.741 223.46 335.088 219.581L336.946 219.221C350.148 216.749 364.549 212.575 378.889 208.53C393.242 204.482 407.535 200.562 420.568 198.576C433.611 196.588 445.319 196.55 454.527 200.201C463.407 203.722 470.021 210.698 473.254 222.848L473.557 224.04C480.431 252.516 481.742 274.042 476.906 295.132C472.219 315.573 461.748 335.651 444.873 361.283L443.22 363.781C435.913 374.769 427.15 379.01 417.443 378.799C407.683 378.587 396.897 373.873 385.597 366.76C374.308 359.654 362.572 350.196 350.916 340.573C339.999 331.56 329.15 322.401 318.84 314.935L316.785 313.465C300.115 301.687 281.205 282.512 267.868 268.007Z" fill="white" stroke="black"/>
<path d="M242.609 272.795C246.27 260.503 260.71 255.84 270.891 263.643C285.797 275.068 305.39 291.091 318.633 305.72L319.894 307.131C328.78 317.203 339.741 327.433 350.56 337.676C361.389 347.929 372.078 358.197 380.46 368.373C388.848 378.556 394.878 388.592 396.459 398.371C397.984 407.801 395.381 417.054 386.602 426.055L385.734 426.926C364.798 447.416 346.983 459.569 326.393 466.219C306.437 472.665 283.829 473.956 253.171 472.594L250.179 472.454C237 471.807 228.868 466.453 224.076 458.008C219.259 449.518 217.783 437.839 218.103 424.492C218.424 411.155 220.534 396.231 222.828 381.292C224.976 367.299 227.286 353.29 228.416 340.61L228.626 338.092C230.202 317.743 236.984 291.68 242.609 272.795Z" fill="white" stroke="black"/>
<path d="M228.608 249.374C240.834 247.416 251.16 257.63 249.365 269.882C246.568 288.964 241.855 315.371 235.087 334.838L234.426 336.7C229.8 349.44 226.07 364.174 222.258 378.781C218.442 393.402 214.542 407.897 209.57 420.216C204.595 432.544 198.574 442.616 190.561 448.453C182.835 454.081 173.194 455.818 160.675 451.71L159.455 451.295C130.505 441.072 110.625 430.005 94.3142 413.901C78.5055 398.292 66.0191 377.921 51.8945 348.911L50.5218 346.076C44.4984 333.562 45.2573 323.631 50.4618 315.421C55.696 307.165 65.4736 300.573 77.661 294.896C89.8372 289.224 104.341 284.499 118.951 279.937C133.091 275.521 147.335 271.257 159.601 266.439L160.782 265.971C180.555 258.063 208.617 252.576 228.608 249.374Z" fill="white" stroke="black"/>
<path d="M231.09 226.968C239.293 236.828 235.172 251.432 223.035 255.582C205.264 261.659 181.069 269.088 161.553 272.004L159.679 272.272C146.371 274.087 131.781 277.542 117.259 280.871C102.723 284.203 88.2528 287.411 75.137 288.748C62.0122 290.087 50.3169 289.545 41.3004 285.442C32.6056 281.485 26.3455 274.191 23.7185 261.895L23.4749 260.689C18.0211 231.908 17.778 210.343 23.6525 189.519C29.3466 169.335 40.8001 149.801 58.9239 125.036L60.6989 122.623C68.5411 112.012 77.5042 108.209 87.189 108.901C96.9263 109.596 107.466 114.839 118.398 122.503C129.322 130.161 140.575 140.188 151.739 150.376C162.196 159.919 172.578 169.605 182.506 177.573L184.486 179.143C200.551 191.732 218.488 211.821 231.09 226.968Z" fill="white" stroke="black"/>
<circle cx="256.751" cy="246.488" r="94.5924" fill="#F0FFA8"/>
<ellipse cx="222.027" cy="239.303" rx="8.55266" ry="22.7501" fill="black"/>
<ellipse cx="224.935" cy="228.185" rx="2.9079" ry="5.13159" fill="white"/>
<ellipse cx="286.685" cy="239.303" rx="8.55266" ry="22.7501" fill="black"/>
<ellipse cx="289.593" cy="228.185" rx="2.9079" ry="5.13159" fill="white"/>
<path d="M213 294.5H298" stroke="black" stroke-width="3" stroke-linecap="round"/>
</svg>
