<svg width="714" height="1089" viewBox="0 0 714 1089" fill="none" xmlns="http://www.w3.org/2000/svg">
<path d="M204.987 644.501C223.957 549.523 312.487 421.001 312.487 421.001L322.487 435.001C322.487 435.001 240.583 555.685 221.987 644.501C198.252 757.862 217.231 829.179 252.487 939.501C270.267 995.137 312.487 1076.5 312.487 1076.5H295.987C295.987 1076.5 253.798 995.127 235.987 939.501C200.662 829.179 182.299 758.096 204.987 644.501Z" fill="#087A0D"/>
<path d="M349.698 344.432C333.021 507.611 193.362 543.576 249.932 596.422C306.503 649.267 391.319 649.486 448.161 596.933C505.003 544.38 366.374 181.254 349.698 344.432Z" fill="#4C97FF"/>
<path d="M349.698 344.432C333.021 507.611 193.362 543.576 249.932 596.422C306.503 649.267 391.319 649.486 448.161 596.933C505.003 544.38 366.374 181.254 349.698 344.432Z" fill="#4C97FF"/>
<path d="M349.698 344.432C333.021 507.611 193.362 543.576 249.932 596.422C306.503 649.267 391.319 649.486 448.161 596.933C505.003 544.38 366.374 181.254 349.698 344.432Z" stroke="black"/>
<path d="M353.526 316.668C211.59 398.884 158.29 256.608 148.676 333.422C139.063 410.237 130.888 529.324 206.793 544.53C282.699 559.736 495.462 234.451 353.526 316.668Z" fill="#4C97FF"/>
<path d="M353.526 316.668C211.59 398.884 158.29 256.608 148.676 333.422C139.063 410.237 130.888 529.324 206.793 544.53C282.699 559.736 495.462 234.451 353.526 316.668Z" fill="#4C97FF"/>
<path d="M353.526 316.668C211.59 398.884 158.29 256.608 148.676 333.422C139.063 410.237 130.888 529.324 206.793 544.53C282.699 559.736 495.462 234.451 353.526 316.668Z" stroke="black"/>
<path d="M414.108 318.077C390.912 246.699 368.654 59.7649 284.078 124.792C199.502 189.818 223.316 160.251 168.552 238.396C113.789 316.541 437.305 389.455 414.108 318.077Z" fill="#4C97FF"/>
<path d="M414.108 318.077C390.912 246.699 368.654 59.7649 284.078 124.792C199.502 189.818 223.316 160.251 168.552 238.396C113.789 316.541 437.305 389.455 414.108 318.077Z" fill="#4C97FF"/>
<path d="M414.108 318.077C390.912 246.699 368.654 59.7649 284.078 124.792C199.502 189.818 223.316 160.251 168.552 238.396C113.789 316.541 437.305 389.455 414.108 318.077Z" stroke="black"/>
<path d="M377.779 359.458C507.986 459.215 465.385 596.995 540.045 576.532C614.705 556.07 659.362 483.961 644.416 408.004C629.469 332.047 247.573 259.7 377.779 359.458Z" fill="#4C97FF"/>
<path d="M377.779 359.458C507.986 459.215 465.385 596.995 540.045 576.532C614.705 556.07 659.362 483.961 644.416 408.004C629.469 332.047 247.573 259.7 377.779 359.458Z" fill="#4C97FF"/>
<path d="M377.779 359.458C507.986 459.215 465.385 596.995 540.045 576.532C614.705 556.07 659.362 483.961 644.416 408.004C629.469 332.047 247.573 259.7 377.779 359.458Z" stroke="black"/>
<path d="M405.009 276.249C561.615 227.464 569.097 83.443 632.134 128.378C695.171 173.313 712.248 256.393 672.044 322.548C631.841 388.704 248.402 325.033 405.009 276.249Z" fill="#4C97FF"/>
<path d="M405.009 276.249C561.615 227.464 569.097 83.443 632.134 128.378C695.171 173.313 712.248 256.393 672.044 322.548C631.841 388.704 248.402 325.033 405.009 276.249Z" fill="#4C97FF"/>
<path d="M405.009 276.249C561.615 227.464 569.097 83.443 632.134 128.378C695.171 173.313 712.248 256.393 672.044 322.548C631.841 388.704 248.402 325.033 405.009 276.249Z" stroke="black"/>
<path d="M364.121 311.159C427.148 159.723 321.458 61.6021 396.365 42.0645C471.273 22.5268 545.963 62.7171 570.928 135.995C595.892 209.272 301.094 462.596 364.121 311.159Z" fill="#4C97FF"/>
<path d="M364.121 311.159C427.148 159.723 321.458 61.6021 396.365 42.0645C471.273 22.5268 545.963 62.7171 570.928 135.995C595.892 209.272 301.094 462.596 364.121 311.159Z" fill="#4C97FF"/>
<path d="M364.121 311.159C427.148 159.723 321.458 61.6021 396.365 42.0645C471.273 22.5268 545.963 62.7171 570.928 135.995C595.892 209.272 301.094 462.596 364.121 311.159Z" stroke="black"/>
<path d="M258.71 732.303C241.937 738.634 223.946 743.306 210.772 723.586C207.732 703.222 231.75 677.01 248.524 670.679C265.297 664.348 293.488 665.867 310.434 684.911C267.008 712.953 272.969 724.353 258.71 732.303Z" fill="#37C050"/>
<rect x="250.553" y="700.322" width="7.6204" height="50.4852" rx="3.8102" transform="rotate(63.761 250.553 700.322)" fill="#087A0D"/>
<path d="M103.648 802.501H339.022C389.128 802.501 424.128 852.114 407.322 899.317L357.302 1039.82C347.016 1068.71 319.667 1088 289.001 1088H153.914C123.289 1088 95.9675 1068.76 85.6514 1039.92L35.3857 899.423C18.6235 852.57 52.9515 803.277 102.476 802.51L103.648 802.501Z" fill="#BDC70A" stroke="#3D4806"/>
<ellipse cx="423.219" cy="341.395" rx="102.389" ry="76.5179" transform="rotate(122.087 423.219 341.395)" fill="#DCF1C2"/>
<path d="M410.521 291.016L440.521 314.016" stroke="black" stroke-width="5" stroke-linecap="round"/>
<path d="M387 365L417 388" stroke="black" stroke-width="5" stroke-linecap="round"/>
<path d="M453.521 324.016L483.521 347.016" stroke="black" stroke-width="5" stroke-linecap="round"/>
<path d="M437.301 313.103C435.41 315.683 433.372 318.115 431.301 320.261C429.23 322.407 427.168 324.225 425.232 325.61C423.297 326.995 421.525 327.921 420.019 328.335C418.512 328.749 417.301 328.642 416.453 328.021C415.606 327.4 415.139 326.277 415.079 324.716C415.02 323.155 415.369 321.187 416.106 318.924C416.843 316.66 417.955 314.146 419.377 311.525C420.799 308.904 422.504 306.227 424.394 303.647L430.847 308.375L437.301 313.103Z" fill="black"/>
<path d="M481.301 346.103C479.41 348.683 477.372 351.115 475.301 353.261C473.23 355.407 471.168 357.225 469.232 358.61C467.297 359.995 465.525 360.921 464.019 361.335C462.512 361.749 461.301 361.642 460.453 361.021C459.606 360.4 459.139 359.277 459.079 357.716C459.02 356.155 459.369 354.187 460.106 351.924C460.843 349.66 461.955 347.146 463.377 344.525C464.799 341.904 466.504 339.227 468.394 336.647L474.847 341.375L481.301 346.103Z" fill="black"/>
</svg>
