<svg width="717" height="1011" viewBox="0 0 717 1011" fill="none" xmlns="http://www.w3.org/2000/svg">
<path d="M204.987 566.5C223.957 471.522 312.487 343 312.487 343L322.487 357C322.487 357 240.583 477.684 221.987 566.5C198.252 679.861 217.231 751.178 252.487 861.5C270.267 917.136 312.487 998.5 312.487 998.5H295.987C295.987 998.5 253.798 917.126 235.987 861.5C200.662 751.178 182.299 680.095 204.987 566.5Z" fill="#087A0D"/>
<path d="M333.457 324.092C194.616 236.75 80.2795 324.643 73.4762 247.529C66.673 170.415 118.729 103.452 195.139 91.026C271.549 78.6003 472.297 411.435 333.457 324.092Z" fill="#4C97FF"/>
<path d="M333.457 324.092C194.616 236.75 80.2795 324.643 73.4762 247.529C66.673 170.415 118.729 103.452 195.139 91.026C271.549 78.6003 472.297 411.435 333.457 324.092Z" fill="#4C97FF"/>
<path d="M333.457 324.092C194.616 236.75 80.2795 324.643 73.4762 247.529C66.673 170.415 118.729 103.452 195.139 91.026C271.549 78.6003 472.297 411.435 333.457 324.092Z" stroke="black"/>
<path d="M351.757 330.762C204.376 402.764 292.781 526.328 223.65 491.488C154.52 456.647 51.0968 397.047 80.7872 325.553C110.477 254.06 499.138 258.76 351.757 330.762Z" fill="#4C97FF"/>
<path d="M351.757 330.762C204.376 402.764 292.781 526.328 223.65 491.488C154.52 456.647 51.0968 397.047 80.7872 325.553C110.477 254.06 499.138 258.76 351.757 330.762Z" fill="#4C97FF"/>
<path d="M351.757 330.762C204.376 402.764 292.781 526.328 223.65 491.488C154.52 456.647 51.0968 397.047 80.7872 325.553C110.477 254.06 499.138 258.76 351.757 330.762Z" stroke="black"/>
<path d="M405.132 295.238C438.64 362.395 553.839 511.288 447.942 524.224C342.045 537.16 379.755 541.544 285.917 524.224C192.078 506.903 371.624 228.08 405.132 295.238Z" fill="#4C97FF"/>
<path d="M405.132 295.238C438.64 362.395 553.839 511.288 447.942 524.224C342.045 537.16 379.755 541.544 285.917 524.224C192.078 506.903 371.624 228.08 405.132 295.238Z" fill="#4C97FF"/>
<path d="M405.132 295.238C438.64 362.395 553.839 511.288 447.942 524.224C342.045 537.16 379.755 541.544 285.917 524.224C192.078 506.903 371.624 228.08 405.132 295.238Z" stroke="black"/>
<path d="M349.102 296.293C339.8 132.528 201.904 90.3034 260.799 40.0618C319.694 -10.1799 404.434 -6.57474 458.849 48.4875C513.264 103.55 358.405 460.057 349.102 296.293Z" fill="#4C97FF"/>
<path d="M349.102 296.293C339.8 132.528 201.904 90.3034 260.799 40.0618C319.694 -10.1799 404.434 -6.57474 458.849 48.4875C513.264 103.55 358.405 460.057 349.102 296.293Z" fill="#4C97FF"/>
<path d="M349.102 296.293C339.8 132.528 201.904 90.3034 260.799 40.0618C319.694 -10.1799 404.434 -6.57474 458.849 48.4875C513.264 103.55 358.405 460.057 349.102 296.293Z" stroke="black"/>
<path d="M419.314 327.112C556.467 237.143 672.455 322.845 677.79 245.616C683.125 168.386 629.804 102.425 553.172 91.456C476.539 80.4864 282.16 417.081 419.314 327.112Z" fill="#4C97FF"/>
<path d="M419.314 327.112C556.467 237.143 672.455 322.845 677.79 245.616C683.125 168.386 629.804 102.425 553.172 91.456C476.539 80.4864 282.16 417.081 419.314 327.112Z" fill="#4C97FF"/>
<path d="M419.314 327.112C556.467 237.143 672.455 322.845 677.79 245.616C683.125 168.386 629.804 102.425 553.172 91.456C476.539 80.4864 282.16 417.081 419.314 327.112Z" stroke="black"/>
<path d="M372.926 314.353C518.487 389.968 500.476 533.054 570.444 499.929C640.413 466.804 671.86 388.032 643.942 315.828C616.024 243.624 227.366 238.739 372.926 314.353Z" fill="#4C97FF"/>
<path d="M372.926 314.353C518.487 389.968 500.476 533.054 570.444 499.929C640.413 466.804 671.86 388.032 643.942 315.828C616.024 243.624 227.366 238.739 372.926 314.353Z" fill="#4C97FF"/>
<path d="M372.926 314.353C518.487 389.968 500.476 533.054 570.444 499.929C640.413 466.804 671.86 388.032 643.942 315.828C616.024 243.624 227.366 238.739 372.926 314.353Z" stroke="black"/>
<ellipse cx="382.644" cy="273.757" rx="102.389" ry="76.5179" transform="rotate(21.7559 382.644 273.757)" fill="#DCF1C2"/>
<mask id="path-15-inside-1_161_262" fill="white">
<path d="M350.73 259.808C351.639 258.761 351.416 257.146 350.188 256.503C347.997 255.356 345.622 254.488 343.135 253.93C339.766 253.174 336.258 253.001 332.812 253.421C329.366 253.842 326.049 254.847 323.05 256.38C320.052 257.913 317.43 259.944 315.336 262.356C313.242 264.768 311.715 267.515 310.844 270.439C309.973 273.363 309.774 276.407 310.258 279.399C310.742 282.39 311.901 285.268 313.667 287.871C315.077 289.948 316.852 291.817 318.925 293.411C319.831 294.108 321.111 293.922 321.86 293.059V293.059C322.769 292.012 322.536 290.411 321.48 289.513C320.132 288.368 318.961 287.072 318 285.655C316.569 283.547 315.631 281.214 315.238 278.791C314.846 276.368 315.007 273.901 315.713 271.532C316.419 269.162 317.656 266.937 319.353 264.983C321.05 263.028 323.173 261.383 325.603 260.141C328.032 258.899 330.72 258.085 333.512 257.744C336.304 257.403 339.146 257.543 341.876 258.156C343.933 258.618 345.897 259.342 347.703 260.301C348.713 260.837 349.98 260.671 350.73 259.808V259.808Z"/>
</mask>
<path d="M350.73 259.808C351.639 258.761 351.416 257.146 350.188 256.503C347.997 255.356 345.622 254.488 343.135 253.93C339.766 253.174 336.258 253.001 332.812 253.421C329.366 253.842 326.049 254.847 323.05 256.38C320.052 257.913 317.43 259.944 315.336 262.356C313.242 264.768 311.715 267.515 310.844 270.439C309.973 273.363 309.774 276.407 310.258 279.399C310.742 282.39 311.901 285.268 313.667 287.871C315.077 289.948 316.852 291.817 318.925 293.411C319.831 294.108 321.111 293.922 321.86 293.059V293.059C322.769 292.012 322.536 290.411 321.48 289.513C320.132 288.368 318.961 287.072 318 285.655C316.569 283.547 315.631 281.214 315.238 278.791C314.846 276.368 315.007 273.901 315.713 271.532C316.419 269.162 317.656 266.937 319.353 264.983C321.05 263.028 323.173 261.383 325.603 260.141C328.032 258.899 330.72 258.085 333.512 257.744C336.304 257.403 339.146 257.543 341.876 258.156C343.933 258.618 345.897 259.342 347.703 260.301C348.713 260.837 349.98 260.671 350.73 259.808V259.808Z" fill="black" stroke="black" stroke-width="2" mask="url(#path-15-inside-1_161_262)"/>
<path d="M258.02 655.876C240.515 659.75 222.042 661.809 211.815 640.412C211.711 619.822 239.222 597.304 256.727 593.43C274.232 589.556 301.917 595.08 315.975 616.346C268.993 637.908 273.268 650.041 258.02 655.876Z" fill="#37C050"/>
<rect x="250.553" y="622.321" width="7.6204" height="50.4852" rx="3.8102" transform="rotate(63.761 250.553 622.321)" fill="#087A0D"/>
<mask id="path-18-inside-2_161_262" fill="white">
<path d="M394.988 211.776C395.871 210.74 395.653 209.158 394.453 208.516C392.297 207.362 389.958 206.49 387.51 205.93C384.204 205.174 380.763 205.001 377.381 205.421C374 205.842 370.746 206.847 367.804 208.38C364.862 209.913 362.29 211.944 360.235 214.356C358.181 216.768 356.683 219.515 355.828 222.439C354.973 225.363 354.778 228.407 355.253 231.399C355.728 234.39 356.865 237.268 358.598 239.871C359.972 241.935 361.7 243.793 363.717 245.38C364.623 246.093 365.916 245.905 366.663 245.028V245.028C367.546 243.991 367.317 242.423 366.286 241.533C364.955 240.384 363.798 239.08 362.849 237.655C361.445 235.547 360.524 233.214 360.139 230.791C359.754 228.368 359.913 225.901 360.605 223.532C361.298 221.162 362.511 218.937 364.176 216.983C365.841 215.028 367.925 213.383 370.308 212.141C372.692 210.899 375.329 210.085 378.068 209.744C380.808 209.403 383.596 209.543 386.274 210.156C388.275 210.614 390.186 211.329 391.945 212.275C392.96 212.821 394.241 212.654 394.988 211.776V211.776Z"/>
</mask>
<path d="M394.988 211.776C395.871 210.74 395.653 209.158 394.453 208.516C392.297 207.362 389.958 206.49 387.51 205.93C384.204 205.174 380.763 205.001 377.381 205.421C374 205.842 370.746 206.847 367.804 208.38C364.862 209.913 362.29 211.944 360.235 214.356C358.181 216.768 356.683 219.515 355.828 222.439C354.973 225.363 354.778 228.407 355.253 231.399C355.728 234.39 356.865 237.268 358.598 239.871C359.972 241.935 361.7 243.793 363.717 245.38C364.623 246.093 365.916 245.905 366.663 245.028V245.028C367.546 243.991 367.317 242.423 366.286 241.533C364.955 240.384 363.798 239.08 362.849 237.655C361.445 235.547 360.524 233.214 360.139 230.791C359.754 228.368 359.913 225.901 360.605 223.532C361.298 221.162 362.511 218.937 364.176 216.983C365.841 215.028 367.925 213.383 370.308 212.141C372.692 210.899 375.329 210.085 378.068 209.744C380.808 209.403 383.596 209.543 386.274 210.156C388.275 210.614 390.186 211.329 391.945 212.275C392.96 212.821 394.241 212.654 394.988 211.776V211.776Z" fill="black" stroke="black" stroke-width="2" mask="url(#path-18-inside-2_161_262)"/>
<mask id="path-19-inside-3_161_262" fill="white">
<path d="M387.467 306.084C386.351 307.477 386.555 309.523 388.034 310.522C390.857 312.428 393.951 313.899 397.214 314.881C401.504 316.172 406.003 316.593 410.455 316.121C414.907 315.649 419.224 314.292 423.161 312.129C427.097 309.966 430.576 307.038 433.398 303.513C436.219 299.987 438.329 295.934 439.607 291.583C440.884 287.233 441.304 282.671 440.843 278.158C440.382 273.645 439.048 269.269 436.918 265.28C435.311 262.269 433.274 259.524 430.878 257.13C429.591 255.844 427.5 256.07 426.364 257.49V257.49C425.248 258.884 425.476 260.903 426.714 262.189C428.492 264.036 430.012 266.127 431.229 268.406C432.955 271.638 434.035 275.183 434.409 278.84C434.783 282.497 434.442 286.193 433.407 289.718C432.372 293.243 430.663 296.527 428.377 299.383C426.09 302.239 423.272 304.611 420.083 306.364C416.893 308.117 413.395 309.216 409.788 309.598C406.181 309.981 402.536 309.64 399.061 308.594C396.639 307.865 394.334 306.804 392.206 305.445C390.673 304.466 388.603 304.664 387.467 306.084V306.084Z"/>
</mask>
<path d="M387.467 306.084C386.351 307.477 386.555 309.523 388.034 310.522C390.857 312.428 393.951 313.899 397.214 314.881C401.504 316.172 406.003 316.593 410.455 316.121C414.907 315.649 419.224 314.292 423.161 312.129C427.097 309.966 430.576 307.038 433.398 303.513C436.219 299.987 438.329 295.934 439.607 291.583C440.884 287.233 441.304 282.671 440.843 278.158C440.382 273.645 439.048 269.269 436.918 265.28C435.311 262.269 433.274 259.524 430.878 257.13C429.591 255.844 427.5 256.07 426.364 257.49V257.49C425.248 258.884 425.476 260.903 426.714 262.189C428.492 264.036 430.012 266.127 431.229 268.406C432.955 271.638 434.035 275.183 434.409 278.84C434.783 282.497 434.442 286.193 433.407 289.718C432.372 293.243 430.663 296.527 428.377 299.383C426.09 302.239 423.272 304.611 420.083 306.364C416.893 308.117 413.395 309.216 409.788 309.598C406.181 309.981 402.536 309.64 399.061 308.594C396.639 307.865 394.334 306.804 392.206 305.445C390.673 304.466 388.603 304.664 387.467 306.084V306.084Z" fill="black" stroke="black" stroke-width="2" mask="url(#path-19-inside-3_161_262)"/>
<path d="M103.648 724.5H339.022C389.128 724.5 424.128 774.113 407.322 821.316L357.302 961.816C347.016 990.706 319.667 1010 289.001 1010H153.914C123.289 1010 95.9675 990.757 85.6514 961.922L35.3857 821.422C18.6235 774.569 52.9515 725.276 102.476 724.509L103.648 724.5Z" fill="#D1DB12" stroke="#3D4806"/>
</svg>
