<svg width="713" height="1082" viewBox="0 0 713 1082" fill="none" xmlns="http://www.w3.org/2000/svg">
<path d="M204.851 640.283C223.808 545.928 312.28 418.248 312.28 418.248L322.273 432.156C322.273 432.156 240.423 552.049 221.84 640.283C198.121 752.901 217.087 823.75 252.32 933.349C270.087 988.621 312.28 1069.45 312.28 1069.45H295.791C295.791 1069.45 253.63 988.611 235.831 933.349C200.529 823.751 182.178 753.134 204.851 640.283Z" fill="#087A0D"/>
<path d="M369.557 301.157C366.527 300.877 363.715 301.943 361.171 304.62C358.611 307.314 356.325 311.641 354.419 317.856C352.635 323.677 351.193 331.12 350.164 340.36L349.963 342.232C341.615 423.441 302.473 472.998 272.55 508.774C265.067 517.72 258.174 525.791 252.473 533.286C246.771 540.781 242.287 547.669 239.615 554.24C236.946 560.803 236.092 567.028 237.621 573.218C239.104 579.219 242.843 585.244 249.457 591.542L250.107 592.152C306.009 644.065 389.596 644.684 446.194 593.869L447.526 592.658L447.851 592.355C454.617 585.906 458.546 574.833 460.132 560.554C461.742 546.066 460.929 528.37 458.302 509.077C453.048 470.495 440.547 425.611 425.75 387.415C418.351 368.319 410.383 350.903 402.465 336.789C394.54 322.663 386.69 311.888 379.543 306.03C375.97 303.101 372.618 301.44 369.557 301.157Z" fill="#4C97FF" stroke="black"/>
<path d="M398.5 306.706C396.951 304.104 394.435 302.466 390.762 301.988C387.065 301.508 382.198 302.206 376.017 304.318C370.228 306.295 363.318 309.501 355.186 314.092L353.544 315.03C318.014 335.489 288 341.999 262.806 341.424C237.616 340.849 217.286 333.192 201.128 325.382C193.063 321.483 186.002 317.528 179.944 314.421C173.854 311.297 168.785 309.036 164.599 308.428C162.517 308.126 160.681 308.237 159.058 308.836C157.44 309.434 155.996 310.531 154.719 312.263C152.307 315.534 150.512 321.037 149.308 329.561L149.075 331.306C144.272 369.46 139.837 418.054 146.064 458.983C152.246 499.611 168.89 532.472 205.876 540.298L206.753 540.478L207.191 540.562C216.415 542.226 227.741 538.894 240.305 531.794C253.053 524.591 266.994 513.555 281.17 500.123C309.52 473.26 338.753 436.866 361.19 402.547C372.407 385.388 381.921 368.756 388.774 354.101C395.634 339.434 399.807 326.793 400.387 317.603C400.676 313.008 400.064 309.335 398.5 306.706Z" fill="#4C97FF" stroke="black"/>
<path d="M407.408 335.736C410.598 333.457 412.778 330.719 413.82 327.495C414.796 324.473 414.787 320.977 413.609 316.963L413.357 316.153C407.555 298.404 401.811 273.47 395.15 247.117C388.484 220.746 380.896 192.932 371.398 169.358C361.891 145.761 350.509 126.516 336.313 117.173C329.233 112.513 321.457 110.318 312.843 111.27C304.489 112.193 295.306 116.082 285.178 123.632L284.195 124.375C263.059 140.529 248.693 150.81 238.183 158.354C227.666 165.903 221.033 170.696 215.331 175.89C204.64 185.628 197.216 196.78 173.762 230.149L168.851 237.125L168.236 238.023C162.049 247.29 161.305 256.435 164.691 265.261C168.201 274.406 176.165 283.257 187.256 291.532C209.434 308.077 243.922 322.174 279.438 331.641C314.951 341.108 351.42 345.927 377.538 343.965C390.609 342.983 401.008 340.308 407.408 335.736Z" fill="#4C97FF" stroke="black"/>
<path d="M352.92 318.59C351.093 321.007 350.532 323.944 351.491 327.5C352.457 331.081 354.965 335.285 359.29 340.158C363.34 344.72 368.961 349.843 376.336 355.56L377.835 356.711C443.017 406.356 464.943 465.472 479.899 509.561C483.639 520.586 486.937 530.653 490.368 539.408C493.798 548.165 497.347 555.572 501.575 561.28C505.798 566.981 510.684 570.969 516.789 572.92C522.709 574.811 529.83 574.805 538.693 572.508L539.556 572.278C613.332 552.177 657.687 481.748 643.835 407.195L643.497 405.433L643.407 404.999C641.431 395.89 634.006 386.758 622.605 377.928C611.039 368.969 595.454 360.378 577.551 352.486C541.747 336.703 496.745 323.752 456.269 316.251C436.032 312.501 416.937 310.115 400.695 309.418C384.44 308.72 371.095 309.715 362.329 312.694C357.947 314.183 354.766 316.149 352.92 318.59Z" fill="#4C97FF" stroke="black"/>
<path d="M368.288 302.173C367.41 299.28 367.9 296.33 370.034 293.319C372.181 290.289 375.994 287.202 381.743 284.109C387.485 281.02 395.126 277.945 404.889 274.921C483.287 250.644 524.361 202.659 553.682 166.393C561.015 157.324 567.6 149.003 573.855 141.959C580.11 134.914 586.011 129.176 591.958 125.265C597.898 121.36 603.868 119.289 610.276 119.549C616.488 119.801 623.172 122.246 630.695 127.438L631.426 127.949C693.717 172.09 710.943 253.398 672.099 318.64L671.172 320.178L670.937 320.555C665.924 328.43 655.788 334.46 642.025 338.844C628.062 343.293 610.453 346.02 590.911 347.296C551.829 349.848 505.094 346.592 464.497 339.769C444.199 336.357 425.446 332.056 409.957 327.147C394.455 322.235 382.273 316.729 375.076 310.93C371.478 308.031 369.174 305.097 368.288 302.173Z" fill="#4C97FF" stroke="black"/>
<path d="M361.899 354.711C359.101 353.524 357.138 351.256 356.183 347.698C355.222 344.117 355.285 339.229 356.586 332.862C357.805 326.899 360.102 319.671 363.621 311.058L364.342 309.317C395.894 233.952 385.21 171.847 376.03 126.223C373.735 114.814 371.537 104.454 370.113 95.1649C368.689 85.8752 368.046 77.6957 368.843 70.6521C369.639 63.6174 371.87 57.7378 376.18 53.0185C380.359 48.443 386.532 44.9141 395.365 42.5067L396.227 42.2771C470.249 23.0844 544.049 62.1026 569.483 133.577L570.075 135.271L570.215 135.692C573.077 144.566 571.229 156.163 565.785 169.471C560.261 182.973 551.071 198.151 539.521 213.873C516.422 245.316 483.932 278.869 452.626 305.454C436.974 318.746 421.626 330.288 407.903 338.952C394.168 347.624 382.104 353.382 373.013 355.151C368.468 356.035 364.725 355.911 361.899 354.711Z" fill="#4C97FF" stroke="black"/>
<path d="M258.539 727.509C241.776 733.798 223.797 738.44 210.632 718.85C207.595 698.618 231.596 672.578 248.359 666.289C265.121 659.999 293.293 661.508 310.229 680.427C266.831 708.286 272.789 719.611 258.539 727.509Z" fill="#37C050"/>
<rect width="7.57925" height="50.3937" rx="3.78963" transform="matrix(0.444222 0.895917 -0.89799 0.440016 250.387 695.738)" fill="#087A0D"/>
<path d="M103.855 797.25H338.522C388.293 797.25 423.143 846.195 407.165 893.087L406.777 894.195L357.133 1032.82C346.81 1061.64 319.494 1080.87 288.878 1080.87H153.744C123.647 1080.87 96.7336 1062.29 86.0244 1034.26L85.5273 1032.92L35.6387 894.301C18.636 847.057 53.6448 797.25 103.855 797.25Z" fill="#BDC70A" stroke="#3D4806"/>
<ellipse cx="101.889" cy="76.3402" rx="101.889" ry="76.3402" transform="matrix(-0.533455 0.845828 -0.848655 -0.528946 542.078 293.363)" fill="#DCF1C2"/>
<path d="M410.249 289.115L440.229 311.964" stroke="black" stroke-width="5" stroke-linecap="round"/>
<path d="M386.743 362.614L416.724 385.463" stroke="black" stroke-width="5" stroke-linecap="round"/>
<path d="M453.22 321.898L483.201 344.748" stroke="black" stroke-width="5" stroke-linecap="round"/>
<path d="M437.011 311.056C435.122 313.62 433.085 316.036 431.015 318.168C428.946 320.3 426.885 322.106 424.951 323.482C423.016 324.858 421.246 325.778 419.74 326.189C418.235 326.6 417.024 326.494 416.177 325.877C415.33 325.26 414.864 324.145 414.804 322.594C414.745 321.043 415.093 319.088 415.83 316.839C416.567 314.591 417.678 312.093 419.099 309.489C420.52 306.885 422.224 304.225 424.113 301.662L430.562 306.359L437.011 311.056Z" fill="black"/>
<path d="M480.982 343.84C479.093 346.403 477.055 348.82 474.986 350.952C472.917 353.084 470.856 354.889 468.921 356.266C466.987 357.642 465.216 358.562 463.711 358.973C462.206 359.384 460.995 359.278 460.148 358.661C459.301 358.044 458.835 356.928 458.775 355.378C458.716 353.827 459.064 351.871 459.801 349.623C460.538 347.374 461.649 344.877 463.07 342.273C464.491 339.669 466.195 337.009 468.084 334.446L474.533 339.143L480.982 343.84Z" fill="black"/>
</svg>
