<svg width="717" height="1008" viewBox="0 0 717 1008" fill="none" xmlns="http://www.w3.org/2000/svg">
<path d="M162.649 514.13C182.868 422.619 291.41 295.223 291.41 295.223L304.956 307.987C304.956 307.987 204.617 427.543 184.605 513.166C159.061 622.452 186.787 689.282 237.291 792.329C262.761 844.297 320.956 919.376 320.956 919.376L299.646 920.311C299.646 920.311 241.492 845.221 215.982 793.265C165.388 690.222 138.468 623.58 162.649 514.13Z" fill="#087A0D"/>
<path d="M314.668 327.387C168.623 239.528 48.8858 328.755 41.4872 250.814C34.0887 172.874 88.5142 105.007 168.687 92.2C248.86 79.3929 460.712 415.246 314.668 327.387Z" fill="#4C97FF"/>
<path d="M314.668 327.387C168.623 239.528 48.8858 328.755 41.4872 250.814C34.0887 172.874 88.5142 105.007 168.687 92.2C248.86 79.3929 460.712 415.246 314.668 327.387Z" fill="#4C97FF"/>
<path d="M314.668 327.387C168.623 239.528 48.8858 328.755 41.4872 250.814C34.0887 172.874 88.5142 105.007 168.687 92.2C248.86 79.3929 460.712 415.246 314.668 327.387Z" stroke="black"/>
<path d="M333.902 334.071C179.422 407.337 272.639 531.977 199.951 496.975C127.262 461.973 18.4912 402.048 49.422 329.673C80.3529 257.298 488.381 260.805 333.902 334.071Z" fill="#4C97FF"/>
<path d="M333.902 334.071C179.422 407.337 272.639 531.977 199.951 496.975C127.262 461.973 18.4912 402.048 49.422 329.673C80.3529 257.298 488.381 260.805 333.902 334.071Z" fill="#4C97FF"/>
<path d="M333.902 334.071C179.422 407.337 272.639 531.977 199.951 496.975C127.262 461.973 18.4912 402.048 49.422 329.673C80.3529 257.298 488.381 260.805 333.902 334.071Z" stroke="black"/>
<path d="M389.816 297.985C425.216 365.774 546.647 515.935 435.519 529.353C324.392 542.77 363.995 547.082 265.427 529.872C166.858 512.662 354.417 230.196 389.816 297.985Z" fill="#4C97FF"/>
<path d="M389.816 297.985C425.216 365.774 546.647 515.935 435.519 529.353C324.392 542.77 363.995 547.082 265.427 529.872C166.858 512.662 354.417 230.196 389.816 297.985Z" fill="#4C97FF"/>
<path d="M389.816 297.985C425.216 365.774 546.647 515.935 435.519 529.353C324.392 542.77 363.995 547.082 265.427 529.872C166.858 512.662 354.417 230.196 389.816 297.985Z" stroke="black"/>
<path d="M331 299.231C320.689 133.695 175.787 91.4476 237.447 40.4646C299.108 -10.5183 388.08 -7.14501 445.387 48.3486C502.695 103.842 341.311 464.767 331 299.231Z" fill="#4C97FF"/>
<path d="M331 299.231C320.689 133.695 175.787 91.4476 237.447 40.4646C299.108 -10.5183 388.08 -7.14501 445.387 48.3486C502.695 103.842 341.311 464.767 331 299.231Z" fill="#4C97FF"/>
<path d="M331 299.231C320.689 133.695 175.787 91.4476 237.447 40.4646C299.108 -10.5183 388.08 -7.14501 445.387 48.3486C502.695 103.842 341.311 464.767 331 299.231Z" stroke="black"/>
<path d="M404.81 330.165C548.493 238.767 670.542 325.04 675.885 246.944C681.229 168.848 625.034 102.333 544.549 91.4879C464.064 80.6432 261.126 421.562 404.81 330.165Z" fill="#4C97FF"/>
<path d="M404.81 330.165C548.493 238.767 670.542 325.04 675.885 246.944C681.229 168.848 625.034 102.333 544.549 91.4879C464.064 80.6432 261.126 421.562 404.81 330.165Z" fill="#4C97FF"/>
<path d="M404.81 330.165C548.493 238.767 670.542 325.04 675.885 246.944C681.229 168.848 625.034 102.333 544.549 91.4879C464.064 80.6432 261.126 421.562 404.81 330.165Z" stroke="black"/>
<path d="M356.07 317.414C509.13 393.394 490.698 538.112 564.04 504.398C637.383 470.685 670.134 390.946 640.586 318.037C611.037 245.128 203.01 241.434 356.07 317.414Z" fill="#4C97FF"/>
<path d="M356.07 317.414C509.13 393.394 490.698 538.112 564.04 504.398C637.383 470.685 670.134 390.946 640.586 318.037C611.037 245.128 203.01 241.434 356.07 317.414Z" fill="#4C97FF"/>
<path d="M356.07 317.414C509.13 393.394 490.698 538.112 564.04 504.398C637.383 470.685 670.134 390.946 640.586 318.037C611.037 245.128 203.01 241.434 356.07 317.414Z" stroke="black"/>
<ellipse cx="106.96" cy="77.7679" rx="106.96" ry="77.7679" transform="matrix(0.934536 0.355869 -0.379814 0.925063 295.716 166.336)" fill="#DCF1C2"/>
<mask id="path-15-inside-1_163_19" fill="white">
<path d="M332.531 262.402C333.499 261.321 333.26 259.624 331.961 258.977C329.67 257.836 327.19 256.974 324.595 256.421C321.055 255.667 317.372 255.504 313.756 255.94C310.139 256.376 306.661 257.403 303.518 258.962C300.375 260.522 297.63 262.583 295.44 265.029C293.249 267.474 291.656 270.256 290.751 273.215C289.846 276.174 289.647 279.253 290.165 282.275C290.684 285.297 291.909 288.204 293.772 290.83C295.278 292.952 297.176 294.856 299.392 296.474C300.311 297.145 301.576 296.958 302.335 296.111V296.111C303.303 295.031 303.054 293.344 301.931 292.426C300.533 291.282 299.316 289.988 298.314 288.576C296.805 286.449 295.812 284.094 295.392 281.645C294.971 279.196 295.133 276.702 295.866 274.304C296.599 271.907 297.89 269.653 299.665 267.672C301.44 265.69 303.664 264.02 306.21 262.757C308.756 261.493 311.575 260.661 314.505 260.308C317.435 259.954 320.419 260.087 323.287 260.698C325.485 261.166 327.582 261.908 329.508 262.896C330.52 263.415 331.773 263.249 332.531 262.402V262.402Z"/>
</mask>
<path d="M332.531 262.402C333.499 261.321 333.26 259.624 331.961 258.977C329.67 257.836 327.19 256.974 324.595 256.421C321.055 255.667 317.372 255.504 313.756 255.94C310.139 256.376 306.661 257.403 303.518 258.962C300.375 260.522 297.63 262.583 295.44 265.029C293.249 267.474 291.656 270.256 290.751 273.215C289.846 276.174 289.647 279.253 290.165 282.275C290.684 285.297 291.909 288.204 293.772 290.83C295.278 292.952 297.176 294.856 299.392 296.474C300.311 297.145 301.576 296.958 302.335 296.111V296.111C303.303 295.031 303.054 293.344 301.931 292.426C300.533 291.282 299.316 289.988 298.314 288.576C296.805 286.449 295.812 284.094 295.392 281.645C294.971 279.196 295.133 276.702 295.866 274.304C296.599 271.907 297.89 269.653 299.665 267.672C301.44 265.69 303.664 264.02 306.21 262.757C308.756 261.493 311.575 260.661 314.505 260.308C317.435 259.954 320.419 260.087 323.287 260.698C325.485 261.166 327.582 261.908 329.508 262.896C330.52 263.415 331.773 263.249 332.531 262.402V262.402Z" fill="black" stroke="black" stroke-width="2" mask="url(#path-15-inside-1_163_19)"/>
<path d="M218.334 638.983C199.744 636.149 180.906 631.25 179.137 607.334C186.948 587.924 222.477 576.919 241.067 579.752C259.657 582.586 284.582 598.029 290.143 623.239C235.958 626.139 235.472 639.136 218.334 638.983Z" fill="#37C050"/>
<rect width="7.70634" height="52.986" rx="3.85317" transform="matrix(0.0862641 0.996272 -0.996791 0.080048 223.933 604.649)" fill="#087A0D"/>
<mask id="path-18-inside-2_163_19" fill="white">
<path d="M378.834 213.701C379.775 212.63 379.541 210.966 378.27 210.32C376.016 209.172 373.574 208.306 371.019 207.752C367.547 206.998 363.933 206.834 360.385 207.27C356.837 207.706 353.424 208.732 350.34 210.292C347.257 211.851 344.564 213.912 342.415 216.357C340.266 218.803 338.703 221.584 337.815 224.543C336.927 227.503 336.732 230.581 337.241 233.604C337.75 236.626 338.953 239.533 340.78 242.158C342.249 244.267 344.097 246.162 346.254 247.773C347.173 248.46 348.453 248.27 349.21 247.409V247.409C350.151 246.338 349.906 244.686 348.809 243.775C347.428 242.626 346.226 241.326 345.236 239.905C343.755 237.778 342.781 235.423 342.369 232.974C341.957 230.525 342.115 228.031 342.834 225.633C343.553 223.236 344.819 220.982 346.561 219.001C348.302 217.019 350.484 215.35 352.982 214.086C355.48 212.823 358.246 211.991 361.12 211.638C363.995 211.285 366.923 211.417 369.736 212.028C371.875 212.493 373.916 213.226 375.793 214.202C376.81 214.732 378.077 214.563 378.834 213.701V213.701Z"/>
</mask>
<path d="M378.834 213.701C379.775 212.63 379.541 210.966 378.27 210.32C376.016 209.172 373.574 208.306 371.019 207.752C367.547 206.998 363.933 206.834 360.385 207.27C356.837 207.706 353.424 208.732 350.34 210.292C347.257 211.851 344.564 213.912 342.415 216.357C340.266 218.803 338.703 221.584 337.815 224.543C336.927 227.503 336.732 230.581 337.241 233.604C337.75 236.626 338.953 239.533 340.78 242.158C342.249 244.267 344.097 246.162 346.254 247.773C347.173 248.46 348.453 248.27 349.21 247.409V247.409C350.151 246.338 349.906 244.686 348.809 243.775C347.428 242.626 346.226 241.326 345.236 239.905C343.755 237.778 342.781 235.423 342.369 232.974C341.957 230.525 342.115 228.031 342.834 225.633C343.553 223.236 344.819 220.982 346.561 219.001C348.302 217.019 350.484 215.35 352.982 214.086C355.48 212.823 358.246 211.991 361.12 211.638C363.995 211.285 366.923 211.417 369.736 212.028C371.875 212.493 373.916 213.226 375.793 214.202C376.81 214.732 378.077 214.563 378.834 213.701V213.701Z" fill="black" stroke="black" stroke-width="2" mask="url(#path-18-inside-2_163_19)"/>
<mask id="path-19-inside-3_163_19" fill="white">
<path d="M371.384 308.914C370.188 310.362 370.409 312.523 371.986 313.536C374.937 315.432 378.166 316.894 381.57 317.869C386.077 319.161 390.802 319.572 395.474 319.081C400.146 318.589 404.673 317.204 408.799 315.004C412.924 312.804 416.566 309.833 419.516 306.26C422.467 302.687 424.668 298.582 425.995 294.18C427.322 289.778 427.748 285.164 427.248 280.603C426.749 276.041 425.334 271.621 423.085 267.595C421.364 264.513 419.179 261.709 416.609 259.272C415.292 258.023 413.215 258.258 412.056 259.661V259.661C410.86 261.11 411.104 263.243 412.429 264.569C414.273 266.415 415.854 268.501 417.123 270.774C418.946 274.036 420.092 277.617 420.496 281.313C420.901 285.009 420.556 288.747 419.481 292.314C418.406 295.88 416.623 299.206 414.232 302.101C411.841 304.996 408.891 307.403 405.548 309.186C402.206 310.968 398.537 312.09 394.752 312.489C390.967 312.887 387.139 312.553 383.487 311.507C380.89 310.763 378.418 309.669 376.141 308.261C374.598 307.306 372.543 307.511 371.384 308.914V308.914Z"/>
</mask>
<path d="M371.384 308.914C370.188 310.362 370.409 312.523 371.986 313.536C374.937 315.432 378.166 316.894 381.57 317.869C386.077 319.161 390.802 319.572 395.474 319.081C400.146 318.589 404.673 317.204 408.799 315.004C412.924 312.804 416.566 309.833 419.516 306.26C422.467 302.687 424.668 298.582 425.995 294.18C427.322 289.778 427.748 285.164 427.248 280.603C426.749 276.041 425.334 271.621 423.085 267.595C421.364 264.513 419.179 261.709 416.609 259.272C415.292 258.023 413.215 258.258 412.056 259.661V259.661C410.86 261.11 411.104 263.243 412.429 264.569C414.273 266.415 415.854 268.501 417.123 270.774C418.946 274.036 420.092 277.617 420.496 281.313C420.901 285.009 420.556 288.747 419.481 292.314C418.406 295.88 416.623 299.206 414.232 302.101C411.841 304.996 408.891 307.403 405.548 309.186C402.206 310.968 398.537 312.09 394.752 312.489C390.967 312.887 387.139 312.553 383.487 311.507C380.89 310.763 378.418 309.669 376.141 308.261C374.598 307.306 372.543 307.511 371.384 308.914V308.914Z" fill="black" stroke="black" stroke-width="2" mask="url(#path-19-inside-3_163_19)"/>
<path d="M128.844 721.347H364.218C414.323 721.347 449.323 770.96 432.518 818.164L382.497 958.664C372.212 987.553 344.862 1006.85 314.196 1006.85H179.109C148.485 1006.85 121.163 987.604 110.847 958.769L60.581 818.269C43.8187 771.416 78.1467 722.123 127.671 721.356L128.844 721.347Z" fill="#D1DB12" stroke="#3D4806"/>
</svg>
