<svg width="538" height="743" viewBox="0 0 538 743" fill="none" xmlns="http://www.w3.org/2000/svg">
<path d="M170.996 192.5C188.389 97.5223 286.063 159 286.063 159L273.227 167.5C273.227 167.5 197.673 109.684 180.623 198.5C158.862 311.861 199.172 483.687 231.497 594.01C247.799 649.646 286.509 731.009 286.509 731.009H271.381C271.381 731.009 232.699 649.635 216.369 594.01C183.981 483.688 150.194 306.095 170.996 192.5Z" fill="#67990A"/>
<path d="M102.964 457.01H331.012C380.537 457.01 415.364 505.507 399.839 552.296L399.463 553.401L350.424 693.901C340.264 723.01 312.805 742.51 281.974 742.51H152.243C121.933 742.51 94.8781 723.664 84.3193 695.36L83.8291 694.005L34.5498 553.505C18.1434 506.727 52.459 457.78 101.796 457.019L102.964 457.01Z" fill="#0E0E01" stroke="#3D4806"/>
<path d="M279.585 160.886C280.949 161.188 282.955 161.64 285.524 162.243C290.662 163.45 298.051 165.258 307.05 167.665C325.049 172.48 349.488 179.689 375.248 189.269C401.01 198.849 428.08 210.796 451.349 225.081C474.263 239.149 493.44 255.454 504.077 273.954L504.577 274.837C509.869 284.319 513.488 291.779 515.646 297.621C517.81 303.478 518.478 307.638 517.95 310.554C517.433 313.41 515.757 315.137 513.005 316.119C510.216 317.114 506.351 317.328 501.553 317.114C482.736 316.274 450.26 308.848 416.643 319.012L415.042 319.509C398.234 324.869 381.29 317.707 365.252 303.771C349.217 289.837 334.178 269.206 321.246 247.858C308.317 226.517 297.514 204.492 289.941 187.8C286.155 179.455 283.178 172.445 281.148 167.521C280.133 165.059 279.353 163.119 278.829 161.795C278.642 161.324 278.488 160.931 278.366 160.62C278.687 160.69 279.094 160.778 279.585 160.886Z" fill="#85A4CE" stroke="black"/>
<path d="M277.911 162.656C278.88 163.063 280.311 163.671 282.153 164.471C285.837 166.072 291.167 168.444 297.748 171.531C310.912 177.706 329.079 186.738 349.095 198.165C388.515 220.67 435.054 252.439 464.679 289.942L466.077 291.732C480.805 310.816 482.504 327.062 475.945 340.359C469.35 353.731 454.329 364.304 435.23 371.794C397.648 386.534 344.715 389.172 310.889 378.143L309.293 377.607C292.578 371.837 282.155 355.57 275.952 334.241C269.751 312.919 267.801 286.643 267.967 261.057C268.132 235.478 270.412 210.623 272.65 192.16C273.769 182.93 274.878 175.298 275.707 169.976C276.121 167.315 276.466 165.231 276.706 163.813C276.819 163.147 276.909 162.628 276.973 162.265C277.21 162.363 277.524 162.493 277.911 162.656Z" fill="#85A4CE" stroke="black"/>
<path d="M277.842 163.154C278.672 164.277 279.884 165.932 281.409 168.058C284.459 172.31 288.762 178.447 293.771 185.987C303.79 201.067 316.633 221.75 327.933 244.166C339.235 266.587 348.978 290.716 352.821 312.694C356.606 334.337 354.654 353.795 342.959 367.517L342.395 368.166C317.894 395.796 287.866 394.364 258.989 387.722C251.769 386.061 244.631 384.077 237.672 382.143C230.718 380.21 223.94 378.326 217.461 376.873C204.72 374.016 193.036 372.8 183.32 376.211L182.859 376.377C180.492 377.25 178.964 377.116 178.024 376.381C177.065 375.631 176.512 374.102 176.475 371.675C176.402 366.852 178.379 359.116 181.876 349.336C188.858 329.813 201.793 302.428 215.948 274.576C230.1 246.729 245.461 218.436 257.285 197.103C263.196 186.437 268.223 177.511 271.771 171.252C273.546 168.123 274.951 165.659 275.913 163.979C276.393 163.139 276.763 162.495 277.013 162.06C277.015 162.056 277.017 162.052 277.019 162.047C277.227 162.325 277.503 162.695 277.842 163.154Z" fill="#85A4CE" stroke="black"/>
<path d="M278.234 161.152C278.937 161.667 279.973 162.438 281.296 163.462C283.942 165.509 287.738 168.567 292.334 172.606C301.527 180.684 313.916 192.685 326.697 208.367C352.062 239.489 378.952 285.094 385.483 343.314L385.634 344.692C388.753 374.039 378.902 393.285 362.834 404.832C346.729 416.407 324.295 420.307 302.177 418.749C280.064 417.192 258.356 410.185 243.743 400.053C236.437 394.987 230.934 389.16 228.021 382.874C225.207 376.801 224.802 370.282 227.547 363.544L227.822 362.891C240.27 334.395 252.8 283.664 262.213 240.099C266.922 218.308 270.853 198.295 273.608 183.73C274.985 176.448 276.069 170.527 276.807 166.427C277.177 164.377 277.46 162.782 277.651 161.699C277.711 161.363 277.76 161.076 277.801 160.84C277.927 160.931 278.072 161.034 278.234 161.152Z" fill="#85A4CE" stroke="black"/>
<path d="M277.046 153.626L268.151 163.732L272.414 169.532L274.485 174.446L279.112 168.158L282.281 168.706L284.595 165.563L289.123 166.345L289.41 164.37L292.055 165.333L289.388 161.329L277.046 153.626Z" fill="#5C870B"/>
</svg>
