<svg width="683" height="1000" viewBox="0 0 683 1000" fill="none" xmlns="http://www.w3.org/2000/svg">
<path d="M154.934 508.534C174.193 418.019 277.586 292.01 277.586 292.01L290.49 304.634C290.49 304.634 194.911 422.89 175.848 507.58C151.516 615.676 177.926 681.779 226.035 783.705C250.297 835.107 305.731 909.368 305.731 909.368L285.432 910.294C285.432 910.294 230.037 836.021 205.737 784.63C157.543 682.709 131.899 616.792 154.934 508.534Z" fill="#087A0D"/>
<path d="M299.741 323.823C160.625 236.921 46.5668 325.176 39.5192 248.084C32.4716 170.992 84.3154 103.864 160.685 91.1964C237.055 78.5287 438.857 410.726 299.741 323.823Z" fill="#4C97FF"/>
<path d="M299.741 323.823C160.625 236.921 46.5668 325.176 39.5192 248.084C32.4716 170.992 84.3154 103.864 160.685 91.1964C237.055 78.5287 438.857 410.726 299.741 323.823Z" fill="#4C97FF"/>
<path d="M299.741 323.823C160.625 236.921 46.5668 325.176 39.5192 248.084C32.4716 170.992 84.3154 103.864 160.685 91.1964C237.055 78.5287 438.857 410.726 299.741 323.823Z" stroke="black"/>
<path d="M318.062 330.435C170.911 402.903 259.706 526.187 190.466 491.566C121.225 456.944 17.614 397.672 47.0776 326.085C76.5412 254.498 465.214 257.966 318.062 330.435Z" fill="#4C97FF"/>
<path d="M318.062 330.435C170.911 402.903 259.706 526.187 190.466 491.566C121.225 456.944 17.614 397.672 47.0776 326.085C76.5412 254.498 465.214 257.966 318.062 330.435Z" fill="#4C97FF"/>
<path d="M318.062 330.435C170.911 402.903 259.706 526.187 190.466 491.566C121.225 456.944 17.614 397.672 47.0776 326.085C76.5412 254.498 465.214 257.966 318.062 330.435Z" stroke="black"/>
<path d="M371.325 294.742C405.046 361.793 520.716 510.32 414.86 523.591C309.004 536.862 346.729 541.127 252.836 524.104C158.943 507.081 337.604 227.691 371.325 294.742Z" fill="#4C97FF"/>
<path d="M371.325 294.742C405.046 361.793 520.716 510.32 414.86 523.591C309.004 536.862 346.729 541.127 252.836 524.104C158.943 507.081 337.604 227.691 371.325 294.742Z" fill="#4C97FF"/>
<path d="M371.325 294.742C405.046 361.793 520.716 510.32 414.86 523.591C309.004 536.862 346.729 541.127 252.836 524.104C158.943 507.081 337.604 227.691 371.325 294.742Z" stroke="black"/>
<path d="M315.299 295.974C305.477 132.24 167.448 90.4523 226.184 40.0243C284.919 -10.4038 369.671 -7.06718 424.26 47.8224C478.849 102.712 325.12 459.708 315.299 295.974Z" fill="#4C97FF"/>
<path d="M315.299 295.974C305.477 132.24 167.448 90.4523 226.184 40.0243C284.919 -10.4038 369.671 -7.06718 424.26 47.8224C478.849 102.712 325.12 459.708 315.299 295.974Z" fill="#4C97FF"/>
<path d="M315.299 295.974C305.477 132.24 167.448 90.4523 226.184 40.0243C284.919 -10.4038 369.671 -7.06718 424.26 47.8224C478.849 102.712 325.12 459.708 315.299 295.974Z" stroke="black"/>
<path d="M385.607 326.571C522.474 236.168 638.734 321.502 643.824 244.256C648.914 167.01 595.384 101.219 518.718 90.492C442.051 79.7654 248.739 416.974 385.607 326.571Z" fill="#4C97FF"/>
<path d="M385.607 326.571C522.474 236.168 638.734 321.502 643.824 244.256C648.914 167.01 595.384 101.219 518.718 90.492C442.051 79.7654 248.739 416.974 385.607 326.571Z" fill="#4C97FF"/>
<path d="M385.607 326.571C522.474 236.168 638.734 321.502 643.824 244.256C648.914 167.01 595.384 101.219 518.718 90.492C442.051 79.7654 248.739 416.974 385.607 326.571Z" stroke="black"/>
<path d="M339.179 313.959C484.979 389.112 467.421 532.255 537.284 498.908C607.147 465.561 638.345 386.691 610.198 314.575C582.051 242.46 193.38 238.806 339.179 313.959Z" fill="#4C97FF"/>
<path d="M339.179 313.959C484.979 389.112 467.421 532.255 537.284 498.908C607.147 465.561 638.345 386.691 610.198 314.575C582.051 242.46 193.38 238.806 339.179 313.959Z" fill="#4C97FF"/>
<path d="M339.179 313.959C484.979 389.112 467.421 532.255 537.284 498.908C607.147 465.561 638.345 386.691 610.198 314.575C582.051 242.46 193.38 238.806 339.179 313.959Z" stroke="black"/>
<ellipse cx="348.768" cy="273.332" rx="102.389" ry="76.5179" transform="rotate(21.5743 348.768 273.332)" fill="#DCF1C2"/>
<mask id="path-15-inside-1_163_19" fill="white">
<path d="M316.81 259.484C317.716 258.434 317.489 256.82 316.258 256.181C314.064 255.041 311.686 254.18 309.197 253.63C305.825 252.884 302.317 252.723 298.872 253.154C295.428 253.585 292.114 254.601 289.12 256.144C286.126 257.686 283.512 259.725 281.425 262.144C279.338 264.563 277.821 267.314 276.959 270.241C276.096 273.168 275.907 276.213 276.401 279.202C276.895 282.192 278.062 285.067 279.837 287.664C281.253 289.737 283.034 291.6 285.112 293.188C286.02 293.882 287.3 293.692 288.046 292.826V292.826C288.952 291.777 288.714 290.176 287.655 289.282C286.303 288.141 285.129 286.848 284.163 285.435C282.725 283.331 281.779 281.001 281.379 278.579C280.979 276.157 281.133 273.69 281.831 271.318C282.53 268.947 283.759 266.718 285.45 264.758C287.141 262.798 289.259 261.146 291.685 259.897C294.11 258.647 296.795 257.824 299.586 257.474C302.377 257.125 305.22 257.256 307.951 257.86C310.01 258.315 311.976 259.033 313.785 259.986C314.797 260.519 316.064 260.35 316.81 259.484V259.484Z"/>
</mask>
<path d="M316.81 259.484C317.716 258.434 317.489 256.82 316.258 256.181C314.064 255.041 311.686 254.18 309.197 253.63C305.825 252.884 302.317 252.723 298.872 253.154C295.428 253.585 292.114 254.601 289.12 256.144C286.126 257.686 283.512 259.725 281.425 262.144C279.338 264.563 277.821 267.314 276.959 270.241C276.096 273.168 275.907 276.213 276.401 279.202C276.895 282.192 278.062 285.067 279.837 287.664C281.253 289.737 283.034 291.6 285.112 293.188C286.02 293.882 287.3 293.692 288.046 292.826V292.826C288.952 291.777 288.714 290.176 287.655 289.282C286.303 288.141 285.129 286.848 284.163 285.435C282.725 283.331 281.779 281.001 281.379 278.579C280.979 276.157 281.133 273.69 281.831 271.318C282.53 268.947 283.759 266.718 285.45 264.758C287.141 262.798 289.259 261.146 291.685 259.897C294.11 258.647 296.795 257.824 299.586 257.474C302.377 257.125 305.22 257.256 307.951 257.86C310.01 258.315 311.976 259.033 313.785 259.986C314.797 260.519 316.064 260.35 316.81 259.484V259.484Z" fill="black" stroke="black" stroke-width="2" mask="url(#path-15-inside-1_163_19)"/>
<path d="M207.977 632.028C190.269 629.225 172.324 624.379 170.639 600.723C178.08 581.524 211.924 570.639 229.632 573.442C247.34 576.245 271.082 591.519 276.379 616.455C224.765 619.323 224.302 632.179 207.977 632.028Z" fill="#37C050"/>
<rect x="213.311" y="598.068" width="7.6204" height="50.4852" rx="3.8102" transform="rotate(85.2333 213.311 598.068)" fill="#087A0D"/>
<mask id="path-18-inside-2_163_19" fill="white">
<path d="M360.916 211.313C361.796 210.274 361.573 208.692 360.371 208.054C358.211 206.907 355.87 206.043 353.42 205.49C350.112 204.745 346.669 204.583 343.29 205.014C339.91 205.445 336.659 206.46 333.722 208.003C330.785 209.545 328.219 211.584 326.172 214.002C324.125 216.421 322.636 219.173 321.79 222.099C320.945 225.026 320.759 228.071 321.244 231.061C321.728 234.05 322.874 236.926 324.615 239.523C325.996 241.582 327.73 243.435 329.752 245.016C330.66 245.726 331.952 245.534 332.697 244.654V244.654C333.577 243.614 333.342 242.047 332.309 241.161C330.973 240.015 329.813 238.715 328.86 237.294C327.449 235.19 326.521 232.86 326.128 230.438C325.735 228.016 325.886 225.549 326.571 223.177C327.256 220.806 328.462 218.577 330.121 216.617C331.78 214.657 333.858 213.005 336.238 211.756C338.618 210.506 341.252 209.683 343.99 209.334C346.728 208.985 349.517 209.116 352.197 209.72C354.2 210.172 356.112 210.881 357.875 211.822C358.892 212.364 360.172 212.193 360.916 211.313V211.313Z"/>
</mask>
<path d="M360.916 211.313C361.796 210.274 361.573 208.692 360.371 208.054C358.211 206.907 355.87 206.043 353.42 205.49C350.112 204.745 346.669 204.583 343.29 205.014C339.91 205.445 336.659 206.46 333.722 208.003C330.785 209.545 328.219 211.584 326.172 214.002C324.125 216.421 322.636 219.173 321.79 222.099C320.945 225.026 320.759 228.071 321.244 231.061C321.728 234.05 322.874 236.926 324.615 239.523C325.996 241.582 327.73 243.435 329.752 245.016C330.66 245.726 331.952 245.534 332.697 244.654V244.654C333.577 243.614 333.342 242.047 332.309 241.161C330.973 240.015 329.813 238.715 328.86 237.294C327.449 235.19 326.521 232.86 326.128 230.438C325.735 228.016 325.886 225.549 326.571 223.177C327.256 220.806 328.462 218.577 330.121 216.617C331.78 214.657 333.858 213.005 336.238 211.756C338.618 210.506 341.252 209.683 343.99 209.334C346.728 208.985 349.517 209.116 352.197 209.72C354.2 210.172 356.112 210.881 357.875 211.822C358.892 212.364 360.172 212.193 360.916 211.313V211.313Z" fill="black" stroke="black" stroke-width="2" mask="url(#path-18-inside-2_163_19)"/>
<mask id="path-19-inside-3_163_19" fill="white">
<path d="M353.694 305.643C352.583 307.04 352.793 309.086 354.275 310.08C357.104 311.977 360.203 313.438 363.469 314.409C367.763 315.687 372.263 316.094 376.714 315.608C381.164 315.121 385.477 313.751 389.407 311.575C393.336 309.4 396.806 306.461 399.616 302.927C402.427 299.392 404.524 295.332 405.787 290.978C407.051 286.623 407.457 282.06 406.981 277.548C406.506 273.037 405.158 268.665 403.016 264.683C401.399 261.677 399.353 258.938 396.95 256.552C395.659 255.27 393.569 255.503 392.437 256.927V256.927C391.326 258.324 391.56 260.342 392.802 261.624C394.585 263.466 396.113 265.552 397.337 267.827C399.072 271.054 400.164 274.596 400.55 278.251C400.935 281.907 400.606 285.604 399.582 289.132C398.558 292.66 396.859 295.95 394.582 298.813C392.305 301.676 389.494 304.057 386.311 305.82C383.127 307.583 379.632 308.693 376.026 309.087C372.421 309.481 368.774 309.151 365.296 308.117C362.872 307.396 360.563 306.342 358.431 304.99C356.895 304.015 354.826 304.22 353.694 305.643V305.643Z"/>
</mask>
<path d="M353.694 305.643C352.583 307.04 352.793 309.086 354.275 310.08C357.104 311.977 360.203 313.438 363.469 314.409C367.763 315.687 372.263 316.094 376.714 315.608C381.164 315.121 385.477 313.751 389.407 311.575C393.336 309.4 396.806 306.461 399.616 302.927C402.427 299.392 404.524 295.332 405.787 290.978C407.051 286.623 407.457 282.06 406.981 277.548C406.506 273.037 405.158 268.665 403.016 264.683C401.399 261.677 399.353 258.938 396.95 256.552C395.659 255.27 393.569 255.503 392.437 256.927V256.927C391.326 258.324 391.56 260.342 392.802 261.624C394.585 263.466 396.113 265.552 397.337 267.827C399.072 271.054 400.164 274.596 400.55 278.251C400.935 281.907 400.606 285.604 399.582 289.132C398.558 292.66 396.859 295.95 394.582 298.813C392.305 301.676 389.494 304.057 386.311 305.82C383.127 307.583 379.632 308.693 376.026 309.087C372.421 309.481 368.774 309.151 365.296 308.117C362.872 307.396 360.563 306.342 358.431 304.99C356.895 304.015 354.826 304.22 353.694 305.643V305.643Z" fill="black" stroke="black" stroke-width="2" mask="url(#path-19-inside-3_163_19)"/>
<path d="M127.649 713.501H363.023C413.128 713.501 448.128 763.114 431.322 810.317L381.302 950.817C371.017 979.707 343.667 999.001 313.001 999.001H177.914C147.289 999.001 119.968 979.758 109.651 950.923L59.3859 810.423C42.6236 763.57 76.9516 714.277 126.476 713.51L127.649 713.501Z" fill="#D1DB12" stroke="#3D4806"/>
</svg>
