<svg width="549" height="687" viewBox="0 0 549 687" fill="none" xmlns="http://www.w3.org/2000/svg">
<path d="M152.5 91.6104C171.47 -3.36727 275.5 70.1104 275.5 70.1104V91.6104C275.5 91.6104 183.096 7.29458 164.5 96.1104C140.765 209.471 217.231 427.289 252.487 537.612C270.266 593.248 312.487 674.612 312.487 674.612H295.987C295.987 674.612 253.798 593.238 235.987 537.612C200.662 427.29 129.812 205.206 152.5 91.6104Z" fill="#67990A"/>
<path d="M103.648 400.612H339.022C389.128 400.613 424.128 450.226 407.322 497.429L357.302 637.929C347.016 666.818 319.667 686.112 289.001 686.112H153.914C123.289 686.112 95.9675 666.869 85.6514 638.034L35.3857 497.534C18.6235 450.681 52.9515 401.388 102.476 400.621L103.648 400.612Z" fill="#0E0E01" stroke="#3D4806"/>
<path d="M256.197 63.5214C257.713 63.5933 259.945 63.7081 262.806 63.8778C268.529 64.2173 276.77 64.778 286.838 65.6634C306.975 67.4345 334.419 70.5037 363.648 75.6969C392.879 80.8905 423.882 88.2056 451.144 98.4644C478.418 108.728 501.889 121.916 516.117 138.822C523.265 147.316 528.304 154.09 531.52 159.507C534.745 164.939 536.095 168.938 535.971 171.902C535.909 173.369 535.486 174.582 534.744 175.604C533.999 176.63 532.913 177.489 531.488 178.211C528.626 179.661 524.484 180.515 519.278 181.1C498.53 183.431 461.583 181.38 426.402 197.822C409.075 205.92 389.694 201.643 370.275 190.526C350.861 179.412 331.506 161.513 314.316 142.559C297.13 123.611 282.133 103.635 271.429 88.3935C266.078 80.7736 261.802 74.3384 258.864 69.809C257.395 67.5444 256.26 65.7562 255.493 64.5347C255.223 64.1051 254.999 63.7453 254.822 63.4597C255.181 63.4753 255.641 63.495 256.197 63.5214Z" fill="#85A4CE" stroke="black"/>
<path d="M254.689 65.5339C255.796 65.7753 257.431 66.1386 259.539 66.624C263.753 67.5946 269.861 69.0544 277.425 71.0133C292.554 74.9313 313.513 80.8426 336.829 88.8146C383.476 104.764 439.497 128.943 477.171 161.876C486.565 170.089 492.334 178.141 495.126 185.909C497.914 193.667 497.743 201.169 495.209 208.315C490.13 222.639 475.534 235.588 456.084 246.163C417.2 267.303 359.339 278.726 321.195 272.815C302.296 269.886 288.584 255.537 278.652 235.486C268.722 215.44 262.621 189.792 258.906 164.476C255.192 139.166 253.866 114.222 253.47 95.6022C253.271 86.2932 253.306 78.567 253.389 73.1687C253.431 70.4696 253.485 68.3523 253.528 66.9106C253.55 66.2085 253.567 65.6665 253.581 65.2955C253.856 65.354 254.226 65.433 254.689 65.5339Z" fill="#85A4CE" stroke="black"/>
<path d="M254.722 66.0712C255.787 67.0431 257.346 68.4781 259.313 70.3262C263.248 74.0228 268.82 79.3749 275.367 85.995C288.463 99.237 305.455 117.547 321.046 137.827C336.642 158.112 350.816 180.341 358.302 201.422C365.79 222.508 366.554 242.34 355.505 257.951C333.291 289.339 300.676 292.912 268.519 291.139C260.481 290.696 252.483 289.92 244.687 289.163C236.896 288.407 229.306 287.671 222.102 287.311C207.712 286.591 194.772 287.365 184.77 292.555C182.347 293.813 180.645 293.95 179.485 293.362C178.322 292.772 177.499 291.349 177.092 288.969C176.281 284.223 177.232 276.256 179.514 266.009C184.068 245.557 193.844 216.346 204.864 186.468C215.882 156.597 228.135 126.084 237.633 103.037C242.383 91.5146 246.443 81.8589 249.316 75.0841C250.752 71.6967 251.892 69.0292 252.673 67.209C253.063 66.2989 253.364 65.6007 253.567 65.1299C253.578 65.1038 253.588 65.0779 253.599 65.0532C253.871 65.2982 254.248 65.639 254.722 66.0712Z" fill="#85A4CE" stroke="black"/>
<path d="M254.839 64.0163C255.676 64.4081 256.91 64.9984 258.492 65.7905C261.656 67.3751 266.215 69.7683 271.785 72.9977C282.924 79.4568 298.106 89.2612 314.27 102.639C346.602 129.399 382.836 170.437 398.539 227.581C406.362 256.048 398.684 276.704 383.105 290.798C367.489 304.926 343.878 312.507 319.787 314.64C295.7 316.772 271.222 313.448 253.92 305.856C245.268 302.059 238.45 297.213 234.357 291.488C230.278 285.783 228.889 279.186 231.108 271.799C240.19 241.567 245.976 189.344 249.494 144.725C251.253 122.405 252.446 101.973 253.199 87.1201C253.575 79.6939 253.842 73.6624 254.015 69.4872C254.101 67.3995 254.163 65.7758 254.204 64.674C254.218 64.302 254.229 63.9896 254.238 63.7388C254.408 63.8166 254.609 63.9085 254.839 64.0163Z" fill="#85A4CE" stroke="black"/>
<path d="M248.5 55L240.5 66.5L246 71.5L249 76L253 69H256.5L258.5 65.5H263.5V63.5L266.5 64L263 60.5L248.5 55Z" fill="#5C870B"/>
</svg>
