<svg width="701" height="1088" viewBox="0 0 701 1088" fill="none" xmlns="http://www.w3.org/2000/svg">
<path d="M204.987 643.628C223.957 548.651 312.487 420.128 312.487 420.128L322.487 434.128C322.487 434.128 240.583 554.813 221.987 643.628C198.252 756.989 217.231 828.306 252.487 938.628C270.267 994.264 312.487 1075.63 312.487 1075.63H295.987C295.987 1075.63 253.798 994.254 235.987 938.628C200.662 828.307 182.299 757.224 204.987 643.628Z" fill="#087A0D"/>
<path d="M349.698 343.56C333.021 506.738 193.362 542.703 249.932 595.549C306.503 648.395 391.319 648.614 448.161 596.061C505.003 543.508 366.374 180.381 349.698 343.56Z" fill="#4C97FF"/>
<path d="M349.698 343.56C333.021 506.738 193.362 542.703 249.932 595.549C306.503 648.395 391.319 648.614 448.161 596.061C505.003 543.508 366.374 180.381 349.698 343.56Z" fill="#4C97FF"/>
<path d="M349.698 343.56C333.021 506.738 193.362 542.703 249.932 595.549C306.503 648.395 391.319 648.614 448.161 596.061C505.003 543.508 366.374 180.381 349.698 343.56Z" stroke="black"/>
<path d="M353.526 315.795C211.59 398.012 158.29 255.735 148.676 332.55C139.063 409.364 130.888 528.451 206.793 543.657C282.699 558.864 495.462 233.578 353.526 315.795Z" fill="#4C97FF"/>
<path d="M353.526 315.795C211.59 398.012 158.29 255.735 148.676 332.55C139.063 409.364 130.888 528.451 206.793 543.657C282.699 558.864 495.462 233.578 353.526 315.795Z" fill="#4C97FF"/>
<path d="M353.526 315.795C211.59 398.012 158.29 255.735 148.676 332.55C139.063 409.364 130.888 528.451 206.793 543.657C282.699 558.864 495.462 233.578 353.526 315.795Z" stroke="black"/>
<path d="M421.859 304.226C389.74 236.393 343.799 53.8301 268.217 129.122C192.635 204.414 212.479 172.049 168.14 256.545C123.801 341.042 453.978 372.059 421.859 304.226Z" fill="#4C97FF"/>
<path d="M421.859 304.226C389.74 236.393 343.799 53.8301 268.217 129.122C192.635 204.414 212.479 172.049 168.14 256.545C123.801 341.042 453.978 372.059 421.859 304.226Z" fill="#4C97FF"/>
<path d="M421.859 304.226C389.74 236.393 343.799 53.8301 268.217 129.122C192.635 204.414 212.479 172.049 168.14 256.545C123.801 341.042 453.978 372.059 421.859 304.226Z" stroke="black"/>
<path d="M387.172 345.409C503.394 461.158 443.343 592.276 520.022 581.634C596.7 570.993 650.302 505.26 645.298 428.009C640.293 350.757 270.95 229.659 387.172 345.409Z" fill="#4C97FF"/>
<path d="M387.172 345.409C503.394 461.158 443.343 592.276 520.022 581.634C596.7 570.993 650.302 505.26 645.298 428.009C640.293 350.757 270.95 229.659 387.172 345.409Z" fill="#4C97FF"/>
<path d="M387.172 345.409C503.394 461.158 443.343 592.276 520.022 581.634C596.7 570.993 650.302 505.26 645.298 428.009C640.293 350.757 270.95 229.659 387.172 345.409Z" stroke="black"/>
<path d="M405.564 276.906C569.23 266.016 610.116 127.718 660.926 186.123C711.737 244.528 708.953 329.3 654.421 384.246C599.888 439.192 241.897 287.796 405.564 276.906Z" fill="#4C97FF"/>
<path d="M405.564 276.906C569.23 266.016 610.116 127.718 660.926 186.123C711.737 244.528 708.953 329.3 654.421 384.246C599.888 439.192 241.897 287.796 405.564 276.906Z" fill="#4C97FF"/>
<path d="M405.564 276.906C569.23 266.016 610.116 127.718 660.926 186.123C711.737 244.528 708.953 329.3 654.421 384.246C599.888 439.192 241.897 287.796 405.564 276.906Z" stroke="black"/>
<path d="M364.121 310.287C427.148 158.85 321.458 60.7295 396.365 41.1919C471.273 21.6543 545.963 61.8445 570.928 135.122C595.892 208.4 301.094 461.723 364.121 310.287Z" fill="#4C97FF"/>
<path d="M364.121 310.287C427.148 158.85 321.458 60.7295 396.365 41.1919C471.273 21.6543 545.963 61.8445 570.928 135.122C595.892 208.4 301.094 461.723 364.121 310.287Z" fill="#4C97FF"/>
<path d="M364.121 310.287C427.148 158.85 321.458 60.7295 396.365 41.1919C471.273 21.6543 545.963 61.8445 570.928 135.122C595.892 208.4 301.094 461.723 364.121 310.287Z" stroke="black"/>
<path d="M236.891 763.144C220.628 755.597 204.698 746.019 209.559 722.807C221.974 706.381 257.506 705.185 273.768 712.732C290.031 720.279 308.68 741.474 306.943 766.907C256.517 755.525 252.55 767.762 236.891 763.144Z" fill="#37C050"/>
<rect x="254.019" y="734.932" width="7.6204" height="50.4852" rx="3.8102" transform="rotate(109.334 254.019 734.932)" fill="#087A0D"/>
<path d="M103.648 801.628H339.022C389.128 801.629 424.128 851.242 407.322 898.445L357.302 1038.94C347.016 1067.83 319.667 1087.13 289.001 1087.13H153.914C123.289 1087.13 95.9675 1067.89 85.6514 1039.05L35.3857 898.55C18.6235 851.697 52.9515 802.404 102.476 801.637L103.648 801.628Z" fill="#BDC70A" stroke="#3D4806"/>
<ellipse cx="423.219" cy="340.523" rx="102.389" ry="76.5179" transform="rotate(122.087 423.219 340.523)" fill="#DCF1C2"/>
<path d="M410.521 290.144L440.521 313.144" stroke="black" stroke-width="5" stroke-linecap="round"/>
<path d="M387 364.127L417 387.127" stroke="black" stroke-width="5" stroke-linecap="round"/>
<path d="M453.521 323.144L483.521 346.144" stroke="black" stroke-width="5" stroke-linecap="round"/>
<path d="M421.301 300.103C419.41 302.683 417.372 305.115 415.301 307.261C413.23 309.407 411.168 311.225 409.232 312.61C407.297 313.995 405.525 314.921 404.019 315.335C402.512 315.749 401.301 315.642 400.453 315.021C399.606 314.4 399.139 313.277 399.079 311.716C399.02 310.155 399.369 308.187 400.106 305.924C400.843 303.66 401.955 301.146 403.377 298.525C404.799 295.904 406.504 293.227 408.394 290.647L414.847 295.375L421.301 300.103Z" fill="black"/>
<path d="M467.301 331.103C465.41 333.683 463.372 336.115 461.301 338.261C459.23 340.407 457.168 342.225 455.232 343.61C453.297 344.995 451.525 345.921 450.019 346.335C448.512 346.749 447.301 346.642 446.453 346.021C445.606 345.4 445.139 344.277 445.079 342.716C445.02 341.155 445.369 339.187 446.106 336.924C446.843 334.66 447.955 332.146 449.377 329.525C450.799 326.904 452.504 324.227 454.394 321.647L460.847 326.375L467.301 331.103Z" fill="black"/>
</svg>
