<svg width="587" height="635" viewBox="0 0 587 635" fill="none" xmlns="http://www.w3.org/2000/svg">
<path d="M186.5 84.5C205.47 -10.4777 312 51 312 51L298 59.5002C298 59.5002 215.596 1.68401 197 90.4998C173.265 203.861 217.231 375.687 252.487 486.01C270.266 541.646 312.487 623.009 312.487 623.009H295.987C295.987 623.009 253.798 541.635 235.987 486.01C200.662 375.688 163.812 198.095 186.5 84.5Z" fill="#67990A"/>
<path d="M103.648 349.01H339.022C389.128 349.01 424.128 398.623 407.322 445.826L357.302 586.326C347.016 615.216 319.667 634.51 289.001 634.51H153.914C123.289 634.51 95.9675 615.267 85.6514 586.432L35.3857 445.932C18.6235 399.079 52.9515 349.786 102.476 349.019L103.648 349.01Z" fill="#0E0E01" stroke="#3D4806"/>
<path d="M304.925 52.8784C306.412 53.1802 308.601 53.6334 311.403 54.2366C317.008 55.443 325.067 57.2512 334.883 59.6585C354.516 64.4734 381.174 71.6833 409.272 81.264C437.372 90.8454 466.901 102.793 492.284 117.081C517.678 131.375 538.869 147.982 550.359 166.856C556.131 176.339 560.08 183.801 562.435 189.644C564.796 195.504 565.521 199.662 564.947 202.572C564.663 204.013 564.06 205.148 563.172 206.045C562.279 206.946 561.074 207.629 559.557 208.125C556.507 209.123 552.284 209.337 547.049 209.123C526.188 208.269 489.983 200.62 452.71 211.517C434.353 216.883 415.848 209.707 398.347 195.764C380.85 181.825 364.444 161.189 350.339 139.84C336.237 118.497 324.454 96.4715 316.195 79.7789C312.066 71.4335 308.819 64.4225 306.604 59.4988C305.497 57.0369 304.647 55.0969 304.075 53.7728C303.874 53.3072 303.707 52.9175 303.575 52.6083C303.928 52.6784 304.379 52.7678 304.925 52.8784Z" fill="#85A4CE" stroke="black"/>
<path d="M303.128 54.638C304.186 55.0451 305.746 55.653 307.755 56.4534C311.774 58.0541 317.587 60.4264 324.766 63.5136C339.122 69.6883 358.937 78.7201 380.768 90.1475C424.445 113.01 476.135 145.433 508.358 183.715C516.393 193.262 520.869 202.099 522.446 210.2C524.021 218.292 522.71 225.681 519.119 232.358C511.919 245.743 495.523 256.32 474.689 263.811C433.041 278.788 374.116 281.273 337.316 269.626C319.082 263.855 307.714 247.586 300.949 226.257C294.185 204.934 292.058 178.656 292.239 153.069C292.42 127.489 294.906 102.634 297.347 84.1706C298.568 74.9398 299.778 67.3088 300.682 61.9861C301.134 59.3248 301.509 57.2404 301.772 55.8221C301.9 55.1314 302 54.5984 302.07 54.2338C302.332 54.3334 302.686 54.4679 303.128 54.638Z" fill="#85A4CE" stroke="black"/>
<path d="M303.079 55.1742C303.984 56.297 305.306 57.9523 306.969 60.0783C310.295 64.3307 314.988 70.4684 320.451 78.0077C331.38 93.0884 345.387 113.771 357.711 136.187C370.038 158.61 380.664 182.737 384.855 204.711C389.047 226.691 386.784 246.409 373.488 260.157C346.756 287.798 313.977 286.366 282.464 279.721C274.588 278.06 266.801 276.075 259.211 274.141C251.626 272.208 244.236 270.325 237.172 268.873C223.058 265.972 210.151 264.767 199.476 268.375C196.889 269.249 195.187 269.126 194.13 268.368C193.07 267.608 192.473 266.076 192.433 263.663C192.354 258.848 194.506 251.119 198.321 241.338C205.934 221.817 220.042 194.434 235.48 166.582C250.915 138.736 267.669 110.442 280.564 89.1093C287.011 78.4435 292.494 69.5181 296.364 63.2594C298.299 60.1301 299.832 57.6672 300.88 55.9869C301.405 55.1468 301.808 54.5025 302.081 54.0681C302.096 54.044 302.109 54.02 302.124 53.9971C302.355 54.2807 302.676 54.6749 303.079 55.1742Z" fill="#85A4CE" stroke="black"/>
<path d="M303.508 53.161C304.276 53.6756 305.405 54.4467 306.848 55.4703C309.734 57.5181 313.876 60.5772 318.889 64.6165C328.916 72.6956 342.429 84.6961 356.369 100.378C384.252 131.747 413.819 177.82 420.643 236.688C424.043 266.015 413.311 285.261 395.768 296.821C378.184 308.407 353.694 312.308 329.56 310.749C305.429 309.191 281.741 302.181 265.796 292.044C257.823 286.975 251.822 281.148 248.648 274.866C245.485 268.607 245.115 261.876 248.433 254.912C262.009 226.415 275.676 175.681 285.943 132.116C291.078 110.324 295.366 90.311 298.371 75.7461C299.873 68.4636 301.054 62.543 301.86 58.4426C302.263 56.3924 302.572 54.7971 302.78 53.7144C302.85 53.3489 302.909 53.0417 302.956 52.7952C303.112 52.8979 303.296 53.0194 303.508 53.161Z" fill="#85A4CE" stroke="black"/>
<path d="M302.166 45.6265L292.464 55.7322L297.113 61.5316L299.372 66.4458L304.418 60.1583L307.875 60.7063L310.398 57.5625L315.337 58.3453L315.65 56.3699L318.535 57.3334L315.626 53.3287L302.166 45.6265Z" fill="#5C870B"/>
</svg>
