<svg width="714" height="1081" viewBox="0 0 714 1081" fill="none" xmlns="http://www.w3.org/2000/svg">
<path d="M204.987 636.501C223.957 541.523 312.487 413.001 312.487 413.001L322.487 427.001C322.487 427.001 240.583 547.685 221.987 636.501C198.252 749.861 217.231 821.178 252.487 931.501C270.267 987.137 312.487 1068.5 312.487 1068.5H295.987C295.987 1068.5 253.798 987.127 235.987 931.501C200.662 821.179 182.299 750.096 204.987 636.501Z" fill="#087A0D"/>
<path d="M352.805 336.479C332.075 499.192 191.565 531.672 246.803 585.909C302.041 640.145 386.826 642.473 444.958 591.35C503.09 540.227 373.535 173.765 352.805 336.479Z" fill="#4C97FF"/>
<path d="M352.805 336.479C332.075 499.192 191.565 531.672 246.803 585.909C302.041 640.145 386.826 642.473 444.958 591.35C503.09 540.227 373.535 173.765 352.805 336.479Z" fill="#4C97FF"/>
<path d="M352.805 336.479C332.075 499.192 191.565 531.672 246.803 585.909C302.041 640.145 386.826 642.473 444.958 591.35C503.09 540.227 373.535 173.765 352.805 336.479Z" stroke="black"/>
<path d="M359.278 318.108C210.053 386.204 170.77 239.438 153.769 314.961C136.767 390.485 117.107 508.222 191.184 530.702C265.262 553.182 508.504 250.013 359.278 318.108Z" fill="#4C97FF"/>
<path d="M359.278 318.108C210.053 386.204 170.77 239.438 153.769 314.961C136.767 390.485 117.107 508.222 191.184 530.702C265.262 553.182 508.504 250.013 359.278 318.108Z" fill="#4C97FF"/>
<path d="M359.278 318.108C210.053 386.204 170.77 239.438 153.769 314.961C136.767 390.485 117.107 508.222 191.184 530.702C265.262 553.182 508.504 250.013 359.278 318.108Z" stroke="black"/>
<path d="M420.619 299.448C390.033 230.91 348.208 47.3607 270.952 120.934C193.696 194.508 214.264 162.597 168.036 246.076C121.808 329.554 451.205 367.986 420.619 299.448Z" fill="#4C97FF"/>
<path d="M420.619 299.448C390.033 230.91 348.208 47.3607 270.952 120.934C193.696 194.508 214.264 162.597 168.036 246.076C121.808 329.554 451.205 367.986 420.619 299.448Z" fill="#4C97FF"/>
<path d="M420.619 299.448C390.033 230.91 348.208 47.3607 270.952 120.934C193.696 194.508 214.264 162.597 168.036 246.076C121.808 329.554 451.205 367.986 420.619 299.448Z" stroke="black"/>
<path d="M384.215 342.053C504.791 453.259 449.813 586.585 526.027 573.01C602.241 559.435 653.283 491.695 645.319 414.692C637.355 337.689 263.639 230.846 384.215 342.053Z" fill="#4C97FF"/>
<path d="M384.215 342.053C504.791 453.259 449.813 586.585 526.027 573.01C602.241 559.435 653.283 491.695 645.319 414.692C637.355 337.689 263.639 230.846 384.215 342.053Z" fill="#4C97FF"/>
<path d="M384.215 342.053C504.791 453.259 449.813 586.585 526.027 573.01C602.241 559.435 653.283 491.695 645.319 414.692C637.355 337.689 263.639 230.846 384.215 342.053Z" stroke="black"/>
<path d="M405.009 268.249C561.615 219.464 569.097 75.443 632.134 120.378C695.171 165.313 712.248 248.393 672.044 314.548C631.841 380.704 248.402 317.033 405.009 268.249Z" fill="#4C97FF"/>
<path d="M405.009 268.249C561.615 219.464 569.097 75.443 632.134 120.378C695.171 165.313 712.248 248.393 672.044 314.548C631.841 380.704 248.402 317.033 405.009 268.249Z" fill="#4C97FF"/>
<path d="M405.009 268.249C561.615 219.464 569.097 75.443 632.134 120.378C695.171 165.313 712.248 248.393 672.044 314.548C631.841 380.704 248.402 317.033 405.009 268.249Z" stroke="black"/>
<path d="M385.398 312.181C419.455 151.727 297.501 74.7507 367.528 41.7507C437.556 8.75064 518.371 34.4966 556.405 101.923C594.439 169.349 351.341 472.635 385.398 312.181Z" fill="#4C97FF"/>
<path d="M385.398 312.181C419.455 151.727 297.501 74.7507 367.528 41.7507C437.556 8.75064 518.371 34.4966 556.405 101.923C594.439 169.349 351.341 472.635 385.398 312.181Z" fill="#4C97FF"/>
<path d="M385.398 312.181C419.455 151.727 297.501 74.7507 367.528 41.7507C437.556 8.75064 518.371 34.4966 556.405 101.923C594.439 169.349 351.341 472.635 385.398 312.181Z" stroke="black"/>
<path d="M258.02 725.877C240.515 729.751 222.042 731.81 211.815 710.413C211.711 689.823 239.222 667.305 256.727 663.431C274.232 659.557 301.917 665.081 315.975 686.347C268.993 707.909 273.268 720.042 258.02 725.877Z" fill="#37C050"/>
<rect x="250.553" y="692.322" width="7.6204" height="50.4852" rx="3.8102" transform="rotate(63.761 250.553 692.322)" fill="#087A0D"/>
<path d="M103.648 794.501H339.022C389.128 794.501 424.128 844.114 407.322 891.317L357.302 1031.82C347.016 1060.71 319.667 1080 289.001 1080H153.914C123.289 1080 95.9675 1060.76 85.6514 1031.92L35.3857 891.423C18.6235 844.57 52.9515 795.277 102.476 794.51L103.648 794.501Z" fill="#BDC70A" stroke="#3D4806"/>
<ellipse cx="423.219" cy="333.395" rx="102.389" ry="76.5179" transform="rotate(122.087 423.219 333.395)" fill="#DCF1C2"/>
<path d="M410.521 283.016L440.521 306.016" stroke="black" stroke-width="5" stroke-linecap="round"/>
<path d="M387 357L417 380" stroke="black" stroke-width="5" stroke-linecap="round"/>
<path d="M453.521 316.016L483.521 339.016" stroke="black" stroke-width="5" stroke-linecap="round"/>
<path d="M429.946 299.724C428.056 302.304 426.017 304.736 423.946 306.882C421.876 309.028 419.814 310.846 417.878 312.231C415.942 313.616 414.17 314.542 412.664 314.956C411.158 315.37 409.946 315.263 409.099 314.642C408.251 314.021 407.784 312.898 407.725 311.337C407.665 309.776 408.014 307.808 408.751 305.545C409.489 303.281 410.6 300.767 412.022 298.146C413.444 295.525 415.149 292.848 417.039 290.268L423.493 294.996L429.946 299.724Z" fill="black"/>
<path d="M471.301 329.103C469.41 331.683 467.372 334.115 465.301 336.261C463.23 338.407 461.168 340.225 459.232 341.61C457.297 342.995 455.525 343.921 454.019 344.335C452.512 344.749 451.301 344.642 450.453 344.021C449.606 343.4 449.139 342.277 449.079 340.716C449.02 339.155 449.369 337.187 450.106 334.924C450.843 332.66 451.955 330.146 453.377 327.525C454.799 324.904 456.504 322.227 458.394 319.647L464.847 324.375L471.301 329.103Z" fill="black"/>
</svg>
