<svg width="717" height="1007" viewBox="0 0 717 1007" fill="none" xmlns="http://www.w3.org/2000/svg">
<path d="M190.508 585.83C213.296 495.028 319.646 372.156 319.646 372.156L331.659 385.54C331.659 385.54 233.269 500.919 210.93 585.83C182.418 694.207 205.217 762.388 247.569 867.861C268.928 921.051 319.646 998.838 319.646 998.838H299.825C299.825 998.838 249.144 921.041 227.748 867.861C185.313 762.389 163.253 694.431 190.508 585.83Z" fill="#087A0D"/>
<path d="M336.9 336.23C244.844 200.183 108.863 237.655 131.774 162.855C154.684 88.0537 226.74 45.785 300.178 64.0666C373.616 82.3483 428.957 472.276 336.9 336.23Z" fill="#4C97FF"/>
<path d="M336.9 336.23C244.844 200.183 108.863 237.655 131.774 162.855C154.684 88.0537 226.74 45.785 300.178 64.0666C373.616 82.3483 428.957 472.276 336.9 336.23Z" fill="#4C97FF"/>
<path d="M336.9 336.23C244.844 200.183 108.863 237.655 131.774 162.855C154.684 88.0537 226.74 45.785 300.178 64.0666C373.616 82.3483 428.957 472.276 336.9 336.23Z" stroke="black"/>
<path d="M350.857 349.631C191.124 359.305 224.157 509.496 175.064 449.847C125.972 390.199 55.3422 293.966 108.977 238.706C162.612 183.446 510.591 339.957 350.857 349.631Z" fill="#4C97FF"/>
<path d="M350.857 349.631C191.124 359.305 224.157 509.496 175.064 449.847C125.972 390.199 55.3422 293.966 108.977 238.706C162.612 183.446 510.591 339.957 350.857 349.631Z" fill="#4C97FF"/>
<path d="M350.857 349.631C191.124 359.305 224.157 509.496 175.064 449.847C125.972 390.199 55.3422 293.966 108.977 238.706C162.612 183.446 510.591 339.957 350.857 349.631Z" stroke="black"/>
<path d="M412.264 337.29C417.133 413.228 464.742 597.6 364.576 568.255C264.41 538.91 296.695 557.771 218.772 504.842C140.849 451.912 407.395 261.351 412.264 337.29Z" fill="#4C97FF"/>
<path d="M412.264 337.29C417.133 413.228 464.742 597.6 364.576 568.255C264.41 538.91 296.695 557.771 218.772 504.842C140.849 451.912 407.395 261.351 412.264 337.29Z" fill="#4C97FF"/>
<path d="M412.264 337.29C417.133 413.228 464.742 597.6 364.576 568.255C264.41 538.91 296.695 557.771 218.772 504.842C140.849 451.912 407.395 261.351 412.264 337.29Z" stroke="black"/>
<path d="M361.446 316.347C414.731 159.508 306.538 66.0385 378.452 42.0891C450.366 18.1398 525.266 54.6783 553.502 127.485C581.739 200.291 308.162 473.186 361.446 316.347Z" fill="#4C97FF"/>
<path d="M361.446 316.347C414.731 159.508 306.538 66.0385 378.452 42.0891C450.366 18.1398 525.266 54.6783 553.502 127.485C581.739 200.291 308.162 473.186 361.446 316.347Z" fill="#4C97FF"/>
<path d="M361.446 316.347C414.731 159.508 306.538 66.0385 378.452 42.0891C450.366 18.1398 525.266 54.6783 553.502 127.485C581.739 200.291 308.162 473.186 361.446 316.347Z" stroke="black"/>
<path d="M413.025 372.657C570.319 342.173 642.43 467.741 676.307 397.583C710.184 327.424 687.035 244.851 622.204 204.597C557.374 164.342 255.73 403.141 413.025 372.657Z" fill="#4C97FF"/>
<path d="M413.025 372.657C570.319 342.173 642.43 467.741 676.307 397.583C710.184 327.424 687.035 244.851 622.204 204.597C557.374 164.342 255.73 403.141 413.025 372.657Z" fill="#4C97FF"/>
<path d="M413.025 372.657C570.319 342.173 642.43 467.741 676.307 397.583C710.184 327.424 687.035 244.851 622.204 204.597C557.374 164.342 255.73 403.141 413.025 372.657Z" stroke="black"/>
<path d="M376.085 342.567C478.604 470.272 408.526 597.077 483.961 593.473C559.395 589.87 617.352 528.489 619.413 450.017C621.474 371.546 273.566 214.861 376.085 342.567Z" fill="#4C97FF"/>
<path d="M376.085 342.567C478.604 470.272 408.526 597.077 483.961 593.473C559.395 589.87 617.352 528.489 619.413 450.017C621.474 371.546 273.566 214.861 376.085 342.567Z" fill="#4C97FF"/>
<path d="M376.085 342.567C478.604 470.272 408.526 597.077 483.961 593.473C559.395 589.87 617.352 528.489 619.413 450.017C621.474 371.546 273.566 214.861 376.085 342.567Z" stroke="black"/>
<ellipse cx="101.834" cy="76.159" rx="101.834" ry="76.159" transform="matrix(0.700033 0.714111 -0.68644 0.727187 381.105 180.29)" fill="#DCF1C2"/>
<mask id="path-15-inside-1_163_3" fill="white">
<path d="M376.699 282.827C377.894 282.212 378.285 280.658 377.427 279.579C375.882 277.637 374.063 275.885 372.025 274.382C369.278 272.356 366.187 270.822 362.927 269.866C359.668 268.911 356.304 268.553 353.029 268.813C349.754 269.074 346.63 269.947 343.837 271.384C341.045 272.821 338.637 274.793 336.752 277.188C334.867 279.582 333.541 282.352 332.851 285.34C332.161 288.327 332.119 291.474 332.729 294.6C333.211 297.072 334.093 299.493 335.339 301.776C335.906 302.814 337.178 303.159 338.201 302.633V302.633C339.396 302.018 339.77 300.474 339.161 299.234C338.369 297.624 337.797 295.939 337.463 294.223C336.969 291.691 337.002 289.141 337.562 286.721C338.121 284.3 339.195 282.056 340.722 280.116C342.249 278.176 344.2 276.578 346.463 275.414C348.726 274.25 351.256 273.542 353.91 273.331C356.564 273.12 359.289 273.41 361.93 274.184C364.571 274.958 367.075 276.201 369.301 277.843C370.958 279.065 372.436 280.489 373.69 282.069C374.423 282.993 375.676 283.353 376.699 282.827V282.827Z"/>
</mask>
<path d="M376.699 282.827C377.894 282.212 378.285 280.658 377.427 279.579C375.882 277.637 374.063 275.885 372.025 274.382C369.278 272.356 366.187 270.822 362.927 269.866C359.668 268.911 356.304 268.553 353.029 268.813C349.754 269.074 346.63 269.947 343.837 271.384C341.045 272.821 338.637 274.793 336.752 277.188C334.867 279.582 333.541 282.352 332.851 285.34C332.161 288.327 332.119 291.474 332.729 294.6C333.211 297.072 334.093 299.493 335.339 301.776C335.906 302.814 337.178 303.159 338.201 302.633V302.633C339.396 302.018 339.77 300.474 339.161 299.234C338.369 297.624 337.797 295.939 337.463 294.223C336.969 291.691 337.002 289.141 337.562 286.721C338.121 284.3 339.195 282.056 340.722 280.116C342.249 278.176 344.2 276.578 346.463 275.414C348.726 274.25 351.256 273.542 353.91 273.331C356.564 273.12 359.289 273.41 361.93 274.184C364.571 274.958 367.075 276.201 369.301 277.843C370.958 279.065 372.436 280.489 373.69 282.069C374.423 282.993 375.676 283.353 376.699 282.827V282.827Z" fill="black" stroke="black" stroke-width="2" mask="url(#path-15-inside-1_163_3)"/>
<path d="M240.918 651.047C223.645 648.205 206.14 643.291 204.497 619.303C211.755 599.834 244.768 588.796 262.042 591.638C279.316 594.48 302.475 609.97 307.643 635.256C257.295 638.164 256.843 651.201 240.918 651.047Z" fill="#37C050"/>
<rect width="7.72547" height="49.2604" rx="3.86273" transform="matrix(0.0799578 0.996798 -0.996264 0.0863613 246.121 616.61)" fill="#087A0D"/>
<mask id="path-18-inside-2_163_3" fill="white">
<path d="M434.609 255.216C435.777 254.601 436.16 253.079 435.327 252.013C433.816 250.078 432.032 248.337 430.029 246.847C427.339 244.846 424.307 243.337 421.106 242.407C417.905 241.477 414.598 241.144 411.374 241.426C408.149 241.709 405.07 242.602 402.313 244.054C399.556 245.507 397.174 247.49 395.304 249.891C393.434 252.292 392.112 255.063 391.413 258.047C390.715 261.031 390.653 264.169 391.233 267.282C391.688 269.728 392.532 272.12 393.731 274.375C394.29 275.427 395.576 275.776 396.601 275.236V275.236C397.769 274.621 398.134 273.109 397.546 271.887C396.77 270.278 396.213 268.592 395.893 266.874C395.424 264.352 395.473 261.809 396.039 259.392C396.605 256.974 397.676 254.728 399.191 252.783C400.707 250.838 402.636 249.231 404.87 248.054C407.104 246.878 409.599 246.154 412.211 245.925C414.824 245.696 417.504 245.966 420.097 246.72C422.69 247.473 425.147 248.696 427.326 250.317C428.934 251.513 430.367 252.908 431.584 254.458C432.318 255.393 433.584 255.756 434.609 255.216V255.216Z"/>
</mask>
<path d="M434.609 255.216C435.777 254.601 436.16 253.079 435.327 252.013C433.816 250.078 432.032 248.337 430.029 246.847C427.339 244.846 424.307 243.337 421.106 242.407C417.905 241.477 414.598 241.144 411.374 241.426C408.149 241.709 405.07 242.602 402.313 244.054C399.556 245.507 397.174 247.49 395.304 249.891C393.434 252.292 392.112 255.063 391.413 258.047C390.715 261.031 390.653 264.169 391.233 267.282C391.688 269.728 392.532 272.12 393.731 274.375C394.29 275.427 395.576 275.776 396.601 275.236V275.236C397.769 274.621 398.134 273.109 397.546 271.887C396.77 270.278 396.213 268.592 395.893 266.874C395.424 264.352 395.473 261.809 396.039 259.392C396.605 256.974 397.676 254.728 399.191 252.783C400.707 250.838 402.636 249.231 404.87 248.054C407.104 246.878 409.599 246.154 412.211 245.925C414.824 245.696 417.504 245.966 420.097 246.72C422.69 247.473 425.147 248.696 427.326 250.317C428.934 251.513 430.367 252.908 431.584 254.458C432.318 255.393 433.584 255.756 434.609 255.216V255.216Z" fill="black" stroke="black" stroke-width="2" mask="url(#path-18-inside-2_163_3)"/>
<mask id="path-19-inside-3_163_3" fill="white">
<path d="M392.216 340.56C390.715 341.412 390.15 343.349 391.094 344.85C392.923 347.756 395.163 350.359 397.743 352.566C401.117 355.453 405.007 357.608 409.191 358.908C413.375 360.209 417.771 360.63 422.128 360.147C426.485 359.664 430.717 358.286 434.584 356.093C438.45 353.9 441.875 350.933 444.662 347.364C447.45 343.794 449.546 339.691 450.83 335.288C452.114 330.886 452.561 326.27 452.146 321.705C451.836 318.293 451.049 314.959 449.815 311.809C449.132 310.065 447.097 309.428 445.514 310.326V310.326C444.012 311.177 443.481 313.099 444.106 314.762C445.023 317.202 445.611 319.774 445.85 322.403C446.186 326.102 445.823 329.841 444.783 333.408C443.743 336.975 442.045 340.3 439.786 343.192C437.528 346.084 434.753 348.488 431.62 350.265C428.488 352.042 425.058 353.158 421.528 353.549C417.998 353.941 414.437 353.6 411.047 352.546C407.657 351.492 404.505 349.746 401.772 347.407C399.894 345.801 398.239 343.937 396.848 341.869C395.805 340.317 393.799 339.662 392.216 340.56V340.56Z"/>
</mask>
<path d="M392.216 340.56C390.715 341.412 390.15 343.349 391.094 344.85C392.923 347.756 395.163 350.359 397.743 352.566C401.117 355.453 405.007 357.608 409.191 358.908C413.375 360.209 417.771 360.63 422.128 360.147C426.485 359.664 430.717 358.286 434.584 356.093C438.45 353.9 441.875 350.933 444.662 347.364C447.45 343.794 449.546 339.691 450.83 335.288C452.114 330.886 452.561 326.27 452.146 321.705C451.836 318.293 451.049 314.959 449.815 311.809C449.132 310.065 447.097 309.428 445.514 310.326V310.326C444.012 311.177 443.481 313.099 444.106 314.762C445.023 317.202 445.611 319.774 445.85 322.403C446.186 326.102 445.823 329.841 444.783 333.408C443.743 336.975 442.045 340.3 439.786 343.192C437.528 346.084 434.753 348.488 431.62 350.265C428.488 352.042 425.058 353.158 421.528 353.549C417.998 353.941 414.437 353.6 411.047 352.546C407.657 351.492 404.505 349.746 401.772 347.407C399.894 345.801 398.239 343.937 396.848 341.869C395.805 340.317 393.799 339.662 392.216 340.56V340.56Z" fill="black" stroke="black" stroke-width="2" mask="url(#path-19-inside-3_163_3)"/>
<path d="M103.648 720.475H339.022C389.128 720.475 424.128 770.088 407.322 817.292L357.302 957.792C347.016 986.681 319.667 1005.98 289.001 1005.98H153.914C123.289 1005.97 95.9675 986.732 85.6514 957.897L35.3857 817.397C18.6235 770.544 52.9515 721.251 102.476 720.484L103.648 720.475Z" fill="#D1DB12" stroke="#3D4806"/>
</svg>
