<svg width="538" height="744" viewBox="0 0 538 744" fill="none" xmlns="http://www.w3.org/2000/svg">
<path d="M149.507 148.008C168.104 53.0307 270.092 126.508 270.092 126.508V148.008C270.092 148.008 179.502 63.6925 161.271 152.508C138.002 265.869 212.967 483.687 247.53 594.01C264.961 649.646 306.353 731.01 306.353 731.01H290.176C290.176 731.01 248.816 649.636 231.354 594.01C196.723 483.688 127.264 261.604 149.507 148.008Z" fill="#67990A"/>
<path d="M102.964 457.01H331.016C380.541 457.01 415.367 505.508 399.842 552.296L399.466 553.402L350.427 693.902C340.267 723.011 312.808 742.51 281.977 742.51H152.244C121.934 742.51 94.8791 723.664 84.3203 695.361L83.8301 694.006L34.5508 553.506C18.0147 506.361 53.0023 457.011 102.964 457.01Z" fill="#0E0E01" stroke="#3D4806"/>
<path d="M251.17 119.92C252.656 119.992 254.845 120.106 257.65 120.276C263.26 120.616 271.339 121.176 281.209 122.061C300.951 123.832 327.855 126.903 356.51 132.096C385.166 137.289 415.56 144.604 442.285 154.863C468.604 164.965 491.311 177.901 505.317 194.426L505.977 195.216C512.985 203.709 517.924 210.483 521.076 215.9C524.238 221.331 525.562 225.331 525.44 228.296C525.38 229.765 524.965 230.981 524.237 232.003C523.506 233.03 522.441 233.889 521.046 234.61C518.241 236.059 514.182 236.913 509.078 237.497C489.058 239.791 453.643 237.841 419.641 253.464L418.022 254.221C401.042 262.315 382.048 258.042 363.012 246.926C343.981 235.813 325.006 217.914 308.154 198.96C291.307 180.013 276.603 160.037 266.11 144.796C260.865 137.176 256.672 130.742 253.791 126.213C252.351 123.948 251.239 122.159 250.487 120.938C250.221 120.506 250 120.145 249.826 119.859C250.178 119.874 250.627 119.894 251.17 119.92Z" fill="#85A4CE" stroke="black"/>
<path d="M249.689 121.937C250.774 122.178 252.377 122.541 254.442 123.026C258.574 123.997 264.561 125.457 271.977 127.416C286.809 131.334 307.357 137.245 330.215 145.217C375.232 160.917 429.153 184.592 466.056 216.741L467.801 218.278C477.01 226.49 482.666 234.543 485.402 242.309C488.135 250.066 487.967 257.566 485.483 264.711C480.504 279.033 466.197 291.982 447.128 302.557C409.604 323.366 354.053 334.76 316.658 329.472L314.891 329.209C296.365 326.28 282.923 311.932 273.186 291.881C263.452 271.836 257.471 246.189 253.829 220.873C250.188 195.564 248.888 170.62 248.499 152C248.305 142.691 248.338 134.965 248.419 129.567C248.46 126.867 248.514 124.75 248.556 123.309C248.577 122.61 248.594 122.07 248.608 121.699C248.877 121.758 249.238 121.836 249.689 121.937Z" fill="#85A4CE" stroke="black"/>
<path d="M249.711 122.465C250.756 123.437 252.283 124.872 254.211 126.72C258.069 130.417 263.533 135.769 269.951 142.389C282.79 155.631 299.448 173.942 314.733 194.221C330.023 214.506 343.919 236.735 351.258 257.817C358.485 278.575 359.324 298.12 349.015 313.618L348.516 314.354C326.74 345.738 294.771 349.31 263.249 347.538C255.37 347.095 247.529 346.318 239.887 345.562C232.249 344.805 224.807 344.068 217.744 343.708C203.855 342.999 191.341 343.739 181.596 348.715L181.135 348.955C178.76 350.212 177.099 350.346 175.97 349.762C174.833 349.174 174.024 347.752 173.625 345.37C172.83 340.621 173.762 332.652 176 322.405C180.465 301.952 190.049 272.74 200.853 242.863C211.655 212.992 223.666 182.479 232.978 159.432C237.634 147.909 241.616 138.253 244.433 131.478C245.841 128.091 246.957 125.423 247.723 123.603C248.105 122.693 248.4 121.995 248.599 121.524C248.608 121.503 248.616 121.482 248.624 121.462C248.89 121.706 249.255 122.041 249.711 122.465Z" fill="#85A4CE" stroke="black"/>
<path d="M249.827 120.414C250.648 120.806 251.857 121.397 253.408 122.189C256.51 123.773 260.979 126.166 266.44 129.395C277.36 135.854 292.244 145.658 308.091 159.037C339.788 185.796 375.312 226.835 390.707 283.981C398.377 312.452 390.847 333.107 375.578 347.198C360.271 361.323 337.129 368.904 313.513 371.037C289.901 373.169 265.905 369.846 248.944 362.255C240.463 358.458 233.78 353.612 229.766 347.887C225.766 342.18 224.404 335.58 226.58 328.191C235.483 297.96 241.156 245.738 244.605 201.118C246.33 178.799 247.499 158.366 248.238 143.514C248.607 136.088 248.868 130.056 249.037 125.881C249.121 123.793 249.182 122.17 249.223 121.068C249.236 120.702 249.247 120.394 249.255 120.145C249.418 120.221 249.609 120.31 249.827 120.414Z" fill="#85A4CE" stroke="black"/>
<path d="M243.622 111.398L235.779 122.898L241.171 127.898L244.112 132.398L248.034 125.398H251.465L253.426 121.898H258.327V119.898L261.269 120.398L257.837 116.898L243.622 111.398Z" fill="#5C870B"/>
</svg>
