<svg width="717" height="1011" viewBox="0 0 717 1011" fill="none" xmlns="http://www.w3.org/2000/svg">
<path d="M204.987 566.5C223.957 471.522 312.487 343 312.487 343L322.487 357C322.487 357 240.583 477.684 221.987 566.5C198.252 679.861 217.231 751.178 252.487 861.5C270.267 917.136 312.487 998.5 312.487 998.5H295.987C295.987 998.5 253.798 917.126 235.987 861.5C200.662 751.178 182.299 680.095 204.987 566.5Z" fill="#087A0D"/>
<path d="M378.376 333.682C376.732 336.244 374.154 337.801 370.463 338.148C366.748 338.496 361.906 337.616 355.802 335.265C350.086 333.065 343.294 329.587 335.331 324.672L333.723 323.669C264.172 279.915 200.751 280.058 153.937 281.475C142.231 281.829 131.582 282.263 122.125 282.113C112.667 281.962 104.441 281.228 97.5816 279.261C90.7312 277.298 85.2658 274.111 81.2984 269.067C77.4521 264.177 74.977 257.494 74.058 248.375L73.9743 247.485C67.247 171.232 118.261 104.946 193.439 91.8192L195.219 91.5197L195.66 91.4519C204.945 90.1144 216.149 93.8804 228.452 101.481C240.935 109.193 254.47 120.802 268.153 134.832C295.516 162.89 323.412 200.568 344.588 235.91C355.175 253.58 364.077 270.659 370.392 285.65C376.712 300.655 380.421 313.523 380.663 322.789C380.784 327.422 380.037 331.095 378.376 333.682Z" fill="#4C97FF" stroke="black"/>
<path d="M383.572 297.632C384.883 300.38 384.848 303.391 383.198 306.71C381.538 310.052 378.238 313.704 373.025 317.654C368.143 321.353 361.61 325.294 353.237 329.474L351.537 330.312C314.62 348.348 292.437 369.629 278.863 390.881C265.292 412.13 260.351 433.316 257.864 451.121C256.623 460.009 255.989 468.094 255.206 474.871C254.419 481.682 253.482 487.162 251.655 490.981C250.746 492.881 249.628 494.345 248.222 495.357C246.819 496.365 245.097 496.948 242.937 497.037C238.858 497.206 233.258 495.611 225.463 491.827L223.875 491.041C189.311 473.622 146.229 450.037 115.499 421.897C84.9949 393.963 66.8162 361.695 80.91 326.575L81.249 325.745L81.4238 325.335C85.1782 316.738 94.2814 309.199 107.223 302.745C120.354 296.197 137.352 290.808 156.485 286.569C194.749 278.091 241.47 274.228 282.666 274.847C303.263 275.156 322.469 276.586 338.538 279.116C354.622 281.648 367.513 285.274 375.517 289.95C379.519 292.287 382.247 294.857 383.572 297.632Z" fill="#4C97FF" stroke="black"/>
<path d="M386.617 285.578C390.501 284.976 393.99 285.411 397.009 286.994C399.84 288.479 402.3 290.995 404.293 294.703L404.685 295.461C413.072 312.271 426.571 334.195 440.418 357.783C454.275 381.386 468.492 406.674 478.353 430.257C488.224 453.863 493.686 475.662 490.151 492.328C488.389 500.639 484.389 507.671 477.572 513.032C470.959 518.231 461.662 521.884 449.106 523.57L447.881 523.728C421.399 526.962 403.894 529.663 391.07 531.623C378.24 533.583 370.124 534.797 362.39 535.07C347.888 535.581 334.72 532.787 294.435 525.294L286.008 523.732L284.935 523.52C273.98 521.209 266.994 515.167 263.181 506.456C259.23 497.43 258.665 485.489 260.738 471.768C264.885 444.332 279.543 410.018 298.201 378.305C316.858 346.594 339.476 317.548 359.495 300.631C369.515 292.165 378.823 286.788 386.617 285.578Z" fill="#4C97FF" stroke="black"/>
<path d="M367.325 338.455C364.284 338.6 361.521 337.402 359.099 334.595C356.662 331.77 354.573 327.314 352.95 320.978C351.43 315.044 350.327 307.494 349.717 298.156L349.602 296.264C344.942 214.227 308.064 162.63 279.775 125.304C272.701 115.97 266.175 107.544 260.816 99.7504C255.456 91.9562 251.287 84.8269 248.913 78.0979C246.543 71.3775 245.971 65.0768 247.782 58.9202C249.537 52.9514 253.548 47.0609 260.446 41.0263L261.123 40.4423C319.36 -9.23824 402.945 -6.09012 457.218 47.562L458.494 48.8391L458.804 49.1592C465.276 55.9501 468.702 67.2628 469.639 81.6941C470.591 96.3358 468.976 114.095 465.474 133.376C458.471 171.938 443.938 216.508 427.412 254.25C419.15 273.119 410.393 290.272 401.837 304.108C393.274 317.956 384.938 328.436 377.527 334.005C373.822 336.789 370.396 338.309 367.325 338.455Z" fill="#4C97FF" stroke="black"/>
<path d="M374.585 337.555C376.278 340.085 378.884 341.593 382.581 341.869C386.302 342.147 391.126 341.174 397.184 338.708C402.858 336.399 409.582 332.793 417.45 327.727L419.039 326.694C487.745 281.624 551.158 280.56 597.989 281.086C609.7 281.218 620.355 281.449 629.808 281.119C639.261 280.788 647.472 279.898 654.293 277.801C661.105 275.707 666.508 272.418 670.379 267.299C674.132 262.336 676.479 255.608 677.224 246.473L677.291 245.581C682.566 169.215 630.3 103.911 554.886 92.2168L553.101 91.9512L552.658 91.8918C543.35 90.7312 532.219 94.7097 520.063 102.543C507.729 110.491 494.418 122.356 481.005 136.643C454.18 165.217 427.006 203.418 406.507 239.157C396.257 257.026 387.682 274.27 381.653 289.379C375.619 304.502 372.156 317.438 372.091 326.707C372.058 331.342 372.875 334.999 374.585 337.555Z" fill="#4C97FF" stroke="black"/>
<path d="M341.938 280.449C340.559 283.164 340.52 286.175 342.087 289.534C343.665 292.916 346.873 296.647 351.987 300.725C356.777 304.544 363.211 308.645 371.479 313.029L373.157 313.909C446.074 351.788 478.022 406.575 500.471 447.678C506.085 457.957 511.096 467.364 516.008 475.446C520.92 483.53 525.713 490.256 530.878 495.179C536.036 500.096 541.549 503.2 547.907 504.072C554.071 504.917 561.088 503.673 569.42 499.855L570.23 499.477C639.417 466.722 670.808 389.192 644.117 317.696L643.475 316.009L643.311 315.594C639.77 306.907 630.855 299.146 618.076 292.375C605.111 285.505 588.251 279.699 569.228 274.989C531.185 265.57 484.574 260.556 443.375 260.159C422.776 259.96 403.541 260.916 387.414 263.049C371.273 265.183 358.296 268.491 350.179 272.968C346.121 275.206 343.331 277.708 341.938 280.449Z" fill="#4C97FF" stroke="black"/>
<ellipse cx="382.644" cy="273.757" rx="102.389" ry="76.5179" transform="rotate(21.7559 382.644 273.757)" fill="#DCF1C2"/>
<mask id="path-9-inside-1_161_262" fill="white">
<path d="M350.73 259.808C351.639 258.761 351.416 257.146 350.188 256.503C347.997 255.356 345.622 254.488 343.135 253.93C339.766 253.174 336.258 253.001 332.812 253.421C329.366 253.842 326.049 254.847 323.05 256.38C320.052 257.913 317.43 259.944 315.336 262.356C313.242 264.768 311.715 267.515 310.844 270.439C309.973 273.363 309.774 276.407 310.258 279.399C310.742 282.39 311.901 285.268 313.667 287.871C315.077 289.948 316.852 291.817 318.925 293.411C319.831 294.108 321.111 293.922 321.86 293.059C322.769 292.012 322.536 290.411 321.48 289.513C320.132 288.368 318.961 287.072 318 285.655C316.569 283.547 315.631 281.214 315.238 278.791C314.846 276.368 315.007 273.901 315.713 271.532C316.419 269.162 317.656 266.937 319.353 264.983C321.05 263.028 323.173 261.383 325.603 260.141C328.032 258.899 330.72 258.085 333.512 257.744C336.304 257.403 339.146 257.543 341.876 258.156C343.933 258.618 345.897 259.342 347.703 260.301C348.713 260.837 349.98 260.671 350.73 259.808Z"/>
</mask>
<path d="M350.73 259.808C351.639 258.761 351.416 257.146 350.188 256.503C347.997 255.356 345.622 254.488 343.135 253.93C339.766 253.174 336.258 253.001 332.812 253.421C329.366 253.842 326.049 254.847 323.05 256.38C320.052 257.913 317.43 259.944 315.336 262.356C313.242 264.768 311.715 267.515 310.844 270.439C309.973 273.363 309.774 276.407 310.258 279.399C310.742 282.39 311.901 285.268 313.667 287.871C315.077 289.948 316.852 291.817 318.925 293.411C319.831 294.108 321.111 293.922 321.86 293.059C322.769 292.012 322.536 290.411 321.48 289.513C320.132 288.368 318.961 287.072 318 285.655C316.569 283.547 315.631 281.214 315.238 278.791C314.846 276.368 315.007 273.901 315.713 271.532C316.419 269.162 317.656 266.937 319.353 264.983C321.05 263.028 323.173 261.383 325.603 260.141C328.032 258.899 330.72 258.085 333.512 257.744C336.304 257.403 339.146 257.543 341.876 258.156C343.933 258.618 345.897 259.342 347.703 260.301C348.713 260.837 349.98 260.671 350.73 259.808Z" fill="black" stroke="black" stroke-width="2" mask="url(#path-9-inside-1_161_262)"/>
<path d="M258.02 655.876C240.515 659.75 222.042 661.809 211.815 640.412C211.711 619.822 239.222 597.304 256.727 593.43C274.232 589.556 301.917 595.08 315.975 616.346C268.993 637.908 273.268 650.041 258.02 655.876Z" fill="#37C050"/>
<rect x="250.553" y="622.321" width="7.6204" height="50.4852" rx="3.8102" transform="rotate(63.761 250.553 622.321)" fill="#087A0D"/>
<mask id="path-12-inside-2_161_262" fill="white">
<path d="M394.988 211.776C395.871 210.74 395.653 209.158 394.453 208.516C392.297 207.362 389.958 206.49 387.51 205.93C384.204 205.174 380.763 205.001 377.381 205.421C374 205.842 370.746 206.847 367.804 208.38C364.862 209.913 362.29 211.944 360.235 214.356C358.181 216.768 356.683 219.515 355.828 222.439C354.973 225.363 354.778 228.407 355.253 231.399C355.728 234.39 356.865 237.268 358.598 239.871C359.972 241.935 361.7 243.793 363.717 245.38C364.623 246.093 365.916 245.905 366.663 245.028C367.546 243.991 367.317 242.423 366.286 241.533C364.955 240.384 363.798 239.08 362.849 237.655C361.445 235.547 360.524 233.214 360.139 230.791C359.754 228.368 359.913 225.901 360.605 223.532C361.298 221.162 362.511 218.937 364.176 216.983C365.841 215.028 367.925 213.383 370.308 212.141C372.692 210.899 375.329 210.085 378.068 209.744C380.808 209.403 383.596 209.543 386.274 210.156C388.275 210.614 390.186 211.329 391.945 212.275C392.96 212.821 394.241 212.654 394.988 211.776Z"/>
</mask>
<path d="M394.988 211.776C395.871 210.74 395.653 209.158 394.453 208.516C392.297 207.362 389.958 206.49 387.51 205.93C384.204 205.174 380.763 205.001 377.381 205.421C374 205.842 370.746 206.847 367.804 208.38C364.862 209.913 362.29 211.944 360.235 214.356C358.181 216.768 356.683 219.515 355.828 222.439C354.973 225.363 354.778 228.407 355.253 231.399C355.728 234.39 356.865 237.268 358.598 239.871C359.972 241.935 361.7 243.793 363.717 245.38C364.623 246.093 365.916 245.905 366.663 245.028C367.546 243.991 367.317 242.423 366.286 241.533C364.955 240.384 363.798 239.08 362.849 237.655C361.445 235.547 360.524 233.214 360.139 230.791C359.754 228.368 359.913 225.901 360.605 223.532C361.298 221.162 362.511 218.937 364.176 216.983C365.841 215.028 367.925 213.383 370.308 212.141C372.692 210.899 375.329 210.085 378.068 209.744C380.808 209.403 383.596 209.543 386.274 210.156C388.275 210.614 390.186 211.329 391.945 212.275C392.96 212.821 394.241 212.654 394.988 211.776Z" fill="black" stroke="black" stroke-width="2" mask="url(#path-12-inside-2_161_262)"/>
<mask id="path-13-inside-3_161_262" fill="white">
<path d="M387.467 306.084C386.351 307.477 386.555 309.523 388.034 310.522C390.857 312.428 393.951 313.899 397.214 314.881C401.504 316.172 406.003 316.593 410.455 316.121C414.907 315.649 419.224 314.292 423.161 312.129C427.097 309.966 430.576 307.038 433.397 303.513C436.219 299.987 438.329 295.934 439.607 291.583C440.884 287.233 441.304 282.671 440.843 278.158C440.382 273.645 439.048 269.269 436.918 265.28C435.311 262.269 433.274 259.524 430.878 257.13C429.591 255.844 427.5 256.07 426.364 257.49C425.248 258.884 425.476 260.903 426.714 262.189C428.492 264.036 430.012 266.127 431.229 268.406C432.955 271.638 434.035 275.183 434.409 278.84C434.783 282.497 434.442 286.193 433.407 289.718C432.372 293.243 430.663 296.527 428.377 299.383C426.09 302.239 423.272 304.611 420.083 306.364C416.893 308.117 413.395 309.216 409.788 309.598C406.181 309.981 402.536 309.64 399.061 308.594C396.639 307.865 394.334 306.804 392.206 305.445C390.673 304.466 388.603 304.664 387.467 306.084Z"/>
</mask>
<path d="M387.467 306.084C386.351 307.477 386.555 309.523 388.034 310.522C390.857 312.428 393.951 313.899 397.214 314.881C401.504 316.172 406.003 316.593 410.455 316.121C414.907 315.649 419.224 314.292 423.161 312.129C427.097 309.966 430.576 307.038 433.397 303.513C436.219 299.987 438.329 295.934 439.607 291.583C440.884 287.233 441.304 282.671 440.843 278.158C440.382 273.645 439.048 269.269 436.918 265.28C435.311 262.269 433.274 259.524 430.878 257.13C429.591 255.844 427.5 256.07 426.364 257.49C425.248 258.884 425.476 260.903 426.714 262.189C428.492 264.036 430.012 266.127 431.229 268.406C432.955 271.638 434.035 275.183 434.409 278.84C434.783 282.497 434.442 286.193 433.407 289.718C432.372 293.243 430.663 296.527 428.377 299.383C426.09 302.239 423.272 304.611 420.083 306.364C416.893 308.117 413.395 309.216 409.788 309.598C406.181 309.981 402.536 309.64 399.061 308.594C396.639 307.865 394.334 306.804 392.206 305.445C390.673 304.466 388.603 304.664 387.467 306.084Z" fill="black" stroke="black" stroke-width="2" mask="url(#path-13-inside-3_161_262)"/>
<path d="M103.648 724.5H339.022C388.736 724.5 423.58 773.341 407.707 820.21L407.322 821.316L357.302 961.816C347.016 990.706 319.667 1010 289.001 1010H153.914C123.768 1010 96.8222 991.354 86.1475 963.267L85.6514 961.922L35.3857 821.422C18.4915 774.2 53.4955 724.5 103.648 724.5Z" fill="#D1DB12" stroke="#3D4806"/>
</svg>
