<svg width="736" height="997" viewBox="0 0 736 997" fill="none" xmlns="http://www.w3.org/2000/svg">
<path d="M195.299 577.714C218.66 488.17 327.685 367 327.685 367L340 380.199C340 380.199 239.135 493.979 216.234 577.714C187.005 684.59 210.378 751.827 253.795 855.838C275.691 908.291 327.685 985 327.685 985H307.365C307.365 985 255.41 908.281 233.475 855.838C189.973 751.827 167.358 684.811 195.299 577.714Z" fill="#087A0D"/>
<path d="M345.373 331.572C251.001 197.41 111.601 234.363 135.087 160.599C158.574 86.8341 232.442 45.151 307.727 63.1793C383.012 81.2077 439.744 465.734 345.373 331.572Z" fill="#4C97FF"/>
<path d="M345.373 331.572C251.001 197.41 111.601 234.363 135.087 160.599C158.574 86.8341 232.442 45.151 307.727 63.1793C383.012 81.2077 439.744 465.734 345.373 331.572Z" fill="#4C97FF"/>
<path d="M345.373 331.572C251.001 197.41 111.601 234.363 135.087 160.599C158.574 86.8341 232.442 45.151 307.727 63.1793C383.012 81.2077 439.744 465.734 345.373 331.572Z" stroke="black"/>
<path d="M359.681 344.787C195.93 354.327 229.794 502.438 179.467 443.615C129.14 384.793 56.734 289.894 111.717 235.399C166.701 180.904 523.432 335.248 359.681 344.787Z" fill="#4C97FF"/>
<path d="M359.681 344.787C195.93 354.327 229.794 502.438 179.467 443.615C129.14 384.793 56.734 289.894 111.717 235.399C166.701 180.904 523.432 335.248 359.681 344.787Z" fill="#4C97FF"/>
<path d="M359.681 344.787C195.93 354.327 229.794 502.438 179.467 443.615C129.14 384.793 56.734 289.894 111.717 235.399C166.701 180.904 523.432 335.248 359.681 344.787Z" stroke="black"/>
<path d="M422.632 332.617C427.623 407.504 476.429 589.321 373.744 560.383C271.06 531.444 304.156 550.044 224.274 497.848C144.391 445.651 417.64 257.73 422.632 332.617Z" fill="#4C97FF"/>
<path d="M422.632 332.617C427.623 407.504 476.429 589.321 373.744 560.383C271.06 531.444 304.156 550.044 224.274 497.848C144.391 445.651 417.64 257.73 422.632 332.617Z" fill="#4C97FF"/>
<path d="M422.632 332.617C427.623 407.504 476.429 589.321 373.744 560.383C271.06 531.444 304.156 550.044 224.274 497.848C144.391 445.651 417.64 257.73 422.632 332.617Z" stroke="black"/>
<path d="M370.536 311.965C425.161 157.299 314.247 65.1238 387.97 41.5063C461.692 17.8887 538.475 53.921 567.422 125.719C596.369 197.517 315.911 466.631 370.536 311.965Z" fill="#4C97FF"/>
<path d="M370.536 311.965C425.161 157.299 314.247 65.1238 387.97 41.5063C461.692 17.8887 538.475 53.921 567.422 125.719C596.369 197.517 315.911 466.631 370.536 311.965Z" fill="#4C97FF"/>
<path d="M370.536 311.965C425.161 157.299 314.247 65.1238 387.97 41.5063C461.692 17.8887 538.475 53.921 567.422 125.719C596.369 197.517 315.911 466.631 370.536 311.965Z" stroke="black"/>
<path d="M423.412 367.495C584.662 337.433 658.586 461.261 693.315 392.075C728.043 322.889 704.312 241.459 637.852 201.762C571.391 162.066 262.161 397.556 423.412 367.495Z" fill="#4C97FF"/>
<path d="M423.412 367.495C584.662 337.433 658.586 461.261 693.315 392.075C728.043 322.889 704.312 241.459 637.852 201.762C571.391 162.066 262.161 397.556 423.412 367.495Z" fill="#4C97FF"/>
<path d="M423.412 367.495C584.662 337.433 658.586 461.261 693.315 392.075C728.043 322.889 704.312 241.459 637.852 201.762C571.391 162.066 262.161 397.556 423.412 367.495Z" stroke="black"/>
<path d="M385.543 337.821C490.641 463.757 418.799 588.805 496.131 585.252C573.463 581.698 632.877 521.168 634.99 443.783C637.103 366.399 280.445 211.885 385.543 337.821Z" fill="#4C97FF"/>
<path d="M385.543 337.821C490.641 463.757 418.799 588.805 496.131 585.252C573.463 581.698 632.877 521.168 634.99 443.783C637.103 366.399 280.445 211.885 385.543 337.821Z" fill="#4C97FF"/>
<path d="M385.543 337.821C490.641 463.757 418.799 588.805 496.131 585.252C573.463 581.698 632.877 521.168 634.99 443.783C637.103 366.399 280.445 211.885 385.543 337.821Z" stroke="black"/>
<ellipse cx="410.176" cy="304.121" rx="102.389" ry="76.5179" transform="rotate(44.4592 410.176 304.121)" fill="#DCF1C2"/>
<mask id="path-15-inside-1_163_3" fill="white">
<path d="M386.119 278.935C387.361 278.32 387.779 276.745 386.895 275.678C385.316 273.774 383.46 272.056 381.381 270.581C378.565 268.583 375.396 267.07 372.054 266.128C368.713 265.185 365.265 264.833 361.907 265.09C358.549 265.346 355.347 266.208 352.484 267.625C349.621 269.042 347.153 270.986 345.221 273.348C343.288 275.709 341.929 278.441 341.222 281.387C340.514 284.333 340.472 287.436 341.096 290.519C341.595 292.979 342.512 295.388 343.809 297.659C344.376 298.652 345.628 298.974 346.653 298.467V298.467C347.895 297.852 348.298 296.285 347.67 295.049C346.869 293.473 346.289 291.825 345.949 290.147C345.443 287.65 345.477 285.136 346.051 282.749C346.624 280.362 347.725 278.149 349.291 276.235C350.856 274.322 352.856 272.747 355.176 271.599C357.495 270.451 360.09 269.752 362.81 269.544C365.531 269.336 368.324 269.622 371.032 270.386C373.739 271.149 376.307 272.375 378.588 273.994C380.308 275.214 381.84 276.639 383.137 278.221C383.861 279.106 385.094 279.442 386.119 278.935V278.935Z"/>
</mask>
<path d="M386.119 278.935C387.361 278.32 387.779 276.745 386.895 275.678C385.316 273.774 383.46 272.056 381.381 270.581C378.565 268.583 375.396 267.07 372.054 266.128C368.713 265.185 365.265 264.833 361.907 265.09C358.549 265.346 355.347 266.208 352.484 267.625C349.621 269.042 347.153 270.986 345.221 273.348C343.288 275.709 341.929 278.441 341.222 281.387C340.514 284.333 340.472 287.436 341.096 290.519C341.595 292.979 342.512 295.388 343.809 297.659C344.376 298.652 345.628 298.974 346.653 298.467V298.467C347.895 297.852 348.298 296.285 347.67 295.049C346.869 293.473 346.289 291.825 345.949 290.147C345.443 287.65 345.477 285.136 346.051 282.749C346.624 280.362 347.725 278.149 349.291 276.235C350.856 274.322 352.856 272.747 355.176 271.599C357.495 270.451 360.09 269.752 362.81 269.544C365.531 269.336 368.324 269.622 371.032 270.386C373.739 271.149 376.307 272.375 378.588 273.994C380.308 275.214 381.84 276.639 383.137 278.221C383.861 279.106 385.094 279.442 386.119 278.935V278.935Z" fill="black" stroke="black" stroke-width="2" mask="url(#path-15-inside-1_163_3)"/>
<path d="M246.977 642.028C229.269 639.225 211.324 634.379 209.639 610.723C217.08 591.524 250.924 580.639 268.632 583.442C286.34 586.245 310.082 601.519 315.379 626.455C263.765 629.323 263.302 642.179 246.977 642.028Z" fill="#37C050"/>
<rect x="252.311" y="608.068" width="7.6204" height="50.4852" rx="3.8102" transform="rotate(85.2333 252.311 608.068)" fill="#087A0D"/>
<mask id="path-18-inside-2_163_3" fill="white">
<path d="M445.486 251.707C446.701 251.092 447.111 249.548 446.251 248.492C444.707 246.596 442.886 244.889 440.844 243.427C438.086 241.454 434.978 239.966 431.697 239.049C428.415 238.132 425.025 237.803 421.719 238.082C418.414 238.361 415.257 239.241 412.431 240.673C409.604 242.106 407.162 244.061 405.245 246.429C403.328 248.797 401.973 251.53 401.257 254.473C400.54 257.415 400.478 260.51 401.072 263.579C401.543 266.014 402.42 268.395 403.668 270.638C404.228 271.645 405.494 271.971 406.522 271.45V271.45C407.737 270.834 408.131 269.299 407.523 268.081C406.738 266.506 406.175 264.857 405.849 263.177C405.368 260.689 405.419 258.182 405.999 255.798C406.579 253.414 407.677 251.199 409.23 249.281C410.784 247.363 412.762 245.778 415.052 244.618C417.342 243.457 419.9 242.744 422.578 242.518C425.256 242.292 428.003 242.559 430.662 243.302C433.32 244.045 435.839 245.25 438.073 246.849C439.742 248.044 441.229 249.441 442.486 250.993C443.212 251.889 444.458 252.228 445.486 251.707V251.707Z"/>
</mask>
<path d="M445.486 251.707C446.701 251.092 447.111 249.548 446.251 248.492C444.707 246.596 442.886 244.889 440.844 243.427C438.086 241.454 434.978 239.966 431.697 239.049C428.415 238.132 425.025 237.803 421.719 238.082C418.414 238.361 415.257 239.241 412.431 240.673C409.604 242.106 407.162 244.061 405.245 246.429C403.328 248.797 401.973 251.53 401.257 254.473C400.54 257.415 400.478 260.51 401.072 263.579C401.543 266.014 402.42 268.395 403.668 270.638C404.228 271.645 405.494 271.971 406.522 271.45V271.45C407.737 270.834 408.131 269.299 407.523 268.081C406.738 266.506 406.175 264.857 405.849 263.177C405.368 260.689 405.419 258.182 405.999 255.798C406.579 253.414 407.677 251.199 409.23 249.281C410.784 247.363 412.762 245.778 415.052 244.618C417.342 243.457 419.9 242.744 422.578 242.518C425.256 242.292 428.003 242.559 430.662 243.302C433.32 244.045 435.839 245.25 438.073 246.849C439.742 248.044 441.229 249.441 442.486 250.993C443.212 251.889 444.458 252.228 445.486 251.707V251.707Z" fill="black" stroke="black" stroke-width="2" mask="url(#path-18-inside-2_163_3)"/>
<mask id="path-19-inside-3_163_3" fill="white">
<path d="M402.149 335.804C400.582 336.659 399.98 338.625 400.959 340.118C402.828 342.966 405.114 345.516 407.746 347.682C411.205 350.529 415.192 352.654 419.482 353.936C423.771 355.219 428.277 355.634 432.744 355.158C437.21 354.681 441.549 353.323 445.513 351.16C449.476 348.997 452.987 346.072 455.845 342.552C458.703 339.031 460.851 334.985 462.167 330.643C463.484 326.302 463.942 321.75 463.517 317.248C463.196 313.851 462.377 310.532 461.09 307.398C460.4 305.716 458.383 305.118 456.787 305.989V305.989C455.22 306.844 454.651 308.794 455.297 310.458C456.224 312.848 456.819 315.365 457.062 317.937C457.407 321.584 457.035 325.272 455.969 328.79C454.902 332.307 453.161 335.586 450.846 338.438C448.531 341.29 445.686 343.66 442.475 345.412C439.263 347.165 435.748 348.265 432.129 348.651C428.51 349.037 424.859 348.701 421.384 347.662C417.909 346.623 414.678 344.901 411.875 342.595C409.923 340.988 408.205 339.12 406.767 337.044C405.731 335.55 403.745 334.933 402.149 335.804V335.804Z"/>
</mask>
<path d="M402.149 335.804C400.582 336.659 399.98 338.625 400.959 340.118C402.828 342.966 405.114 345.516 407.746 347.682C411.205 350.529 415.192 352.654 419.482 353.936C423.771 355.219 428.277 355.634 432.744 355.158C437.21 354.681 441.549 353.323 445.513 351.16C449.476 348.997 452.987 346.072 455.845 342.552C458.703 339.031 460.851 334.985 462.167 330.643C463.484 326.302 463.942 321.75 463.517 317.248C463.196 313.851 462.377 310.532 461.09 307.398C460.4 305.716 458.383 305.118 456.787 305.989V305.989C455.22 306.844 454.651 308.794 455.297 310.458C456.224 312.848 456.819 315.365 457.062 317.937C457.407 321.584 457.035 325.272 455.969 328.79C454.902 332.307 453.161 335.586 450.846 338.438C448.531 341.29 445.686 343.66 442.475 345.412C439.263 347.165 435.748 348.265 432.129 348.651C428.51 349.037 424.859 348.701 421.384 347.662C417.909 346.623 414.678 344.901 411.875 342.595C409.923 340.988 408.205 339.12 406.767 337.044C405.731 335.55 403.745 334.933 402.149 335.804V335.804Z" fill="black" stroke="black" stroke-width="2" mask="url(#path-19-inside-3_163_3)"/>
<path d="M103.648 710.501H339.022C389.128 710.501 424.128 760.114 407.322 807.317L357.302 947.817C347.016 976.707 319.667 996.001 289.001 996.001H153.914C123.289 996.001 95.9675 976.758 85.6514 947.923L35.3857 807.423C18.6235 760.57 52.9515 711.277 102.476 710.51L103.648 710.501Z" fill="#D1DB12" stroke="#3D4806"/>
</svg>
