<svg width="713" height="1081" viewBox="0 0 713 1081" fill="none" xmlns="http://www.w3.org/2000/svg">
<path d="M208.534 639.41C227.832 545.055 317.894 417.375 317.894 417.375L328.067 431.283C328.067 431.283 244.746 551.176 225.828 639.41C201.683 752.028 220.99 822.878 256.856 932.477C274.943 987.748 317.894 1068.58 317.894 1068.58H301.109C301.109 1068.58 258.19 987.738 240.071 932.477C204.135 822.878 185.453 752.261 208.534 639.41Z" fill="#087A0D"/>
<path d="M376.203 300.284C373.111 300.003 370.245 301.072 367.655 303.75C365.048 306.445 362.721 310.772 360.782 316.986C358.965 322.805 357.498 330.248 356.45 339.488L356.247 341.36C347.748 422.572 307.902 472.13 277.441 507.905C269.824 516.851 262.806 524.922 257.002 532.416C251.198 539.911 246.633 546.8 243.913 553.37C241.196 559.932 240.327 566.156 241.884 572.343C243.394 578.343 247.199 584.368 253.933 590.666L254.594 591.276C311.505 643.194 396.605 643.813 454.226 592.993L455.581 591.783L455.911 591.479C462.8 585.03 466.799 573.958 468.413 559.68C470.052 545.194 469.225 527.498 466.55 508.206C461.202 469.624 448.477 424.741 433.414 386.546C425.883 367.449 417.771 350.034 409.711 335.92C401.643 321.794 393.652 311.019 386.376 305.16C382.738 302.231 379.323 300.567 376.203 300.284Z" fill="#4C97FF" stroke="black"/>
<path d="M405.669 305.831C404.093 303.229 401.531 301.59 397.791 301.112C394.026 300.631 389.07 301.33 382.777 303.442C376.883 305.419 369.849 308.626 361.571 313.217L359.899 314.154C323.731 334.613 293.179 341.123 267.534 340.548C241.892 339.973 221.197 332.316 204.749 324.505C196.538 320.607 189.351 316.651 183.183 313.544C176.984 310.421 171.824 308.159 167.562 307.551C165.442 307.248 163.572 307.36 161.918 307.961C160.269 308.559 158.798 309.657 157.498 311.39C155.041 314.663 153.212 320.166 151.987 328.69L151.75 330.435C146.861 368.589 142.346 417.183 148.686 458.113C154.978 498.741 171.921 531.603 209.574 539.429L210.467 539.609L210.912 539.693C220.304 541.358 231.836 538.025 244.627 530.924C257.604 523.72 271.796 512.684 286.227 499.252C315.088 472.388 344.847 435.994 367.688 401.674C379.107 384.515 388.792 367.883 395.769 353.228C402.752 338.56 406.999 325.919 407.589 316.728C407.884 312.132 407.261 308.46 405.669 305.831Z" fill="#4C97FF" stroke="black"/>
<path d="M425.257 322.626C428.179 319.962 430.023 316.971 430.653 313.642C431.244 310.519 430.778 307.052 429.063 303.219L428.703 302.447C420.524 285.58 411.466 261.581 401.295 236.288C391.118 210.979 379.82 184.355 367.148 162.179C354.464 139.981 340.455 122.336 324.898 114.869C317.138 111.145 308.997 109.955 300.424 111.993C292.109 113.969 283.346 118.991 274.107 127.765L273.212 128.626C253.984 147.331 240.824 159.35 231.199 168.167C221.567 176.988 215.496 182.584 210.418 188.459C200.898 199.474 194.859 211.477 175.541 247.549L171.495 255.092L170.991 256.059C165.957 266.035 166.4 275.2 170.975 283.526C175.714 292.154 184.915 299.924 197.196 306.724C221.753 320.32 258.418 329.924 295.514 334.806C332.609 339.688 370.06 339.84 396.174 334.579C409.244 331.946 419.393 327.972 425.257 322.626Z" fill="#4C97FF" stroke="black"/>
<path d="M374.125 301.786C371.96 303.948 371.003 306.789 371.501 310.44C372.002 314.116 373.979 318.608 377.7 323.996C381.185 329.041 386.181 334.843 392.869 341.459L394.229 342.793C453.456 400.396 467.765 461.831 477.027 507.471C479.343 518.884 481.34 529.291 483.644 538.414C485.948 547.538 488.552 555.339 492.064 561.544C495.572 567.74 499.977 572.324 505.884 575.043C511.61 577.68 518.801 578.589 528.052 577.449L528.953 577.333C606.087 566.879 660.184 502.737 656.068 427.028L655.959 425.238L655.926 424.796C655.136 415.507 648.849 405.496 638.51 395.275C628.019 384.904 613.423 374.383 596.395 364.257C562.341 344.007 518.629 325.382 478.763 312.743C458.831 306.425 439.871 301.605 423.568 298.827C407.251 296.046 393.648 295.319 384.405 297.146C379.783 298.06 376.312 299.601 374.125 301.786Z" fill="#4C97FF" stroke="black"/>
<path d="M369.863 293.597C369.686 290.584 370.874 287.831 373.707 285.398C376.558 282.948 381.071 280.829 387.502 279.155C393.927 277.483 402.226 276.265 412.613 275.59C496.014 270.171 548.135 233.043 585.826 204.581C595.252 197.463 603.759 190.899 611.635 185.501C619.51 180.101 626.723 175.89 633.546 173.467C640.362 171.047 646.769 170.418 653.055 172.158C659.148 173.846 665.181 177.775 671.388 184.57L671.99 185.237C723.099 242.608 720.721 325.663 666.681 380.091L665.395 381.372L665.072 381.683C658.226 388.179 646.748 391.692 632.074 392.763C617.187 393.849 599.104 392.415 579.454 389.122C540.157 382.537 494.672 368.528 456.115 352.475C436.838 344.448 419.302 335.915 405.143 327.548C390.971 319.174 380.227 310.993 374.489 303.684C371.62 300.03 370.042 296.643 369.863 293.597Z" fill="#4C97FF" stroke="black"/>
<path d="M368.405 353.841C365.552 352.652 363.554 350.381 362.582 346.822C361.603 343.24 361.667 338.352 362.991 331.986C364.231 326.023 366.57 318.794 370.153 310.181L370.887 308.44C403.007 233.075 392.129 170.97 382.785 125.347C380.448 113.938 378.211 103.577 376.762 94.2881C375.312 84.9984 374.656 76.8188 375.468 69.7753C376.278 62.7408 378.549 56.862 382.936 52.1433C387.189 47.5679 393.474 44.0385 402.467 41.6309L403.345 41.402C478.702 22.2083 553.835 61.2289 579.728 132.707L580.33 134.402L580.473 134.823C583.386 143.697 581.504 155.294 575.963 168.601C570.34 182.103 560.985 197.281 549.227 213.004C525.712 244.446 492.639 277.998 460.77 304.583C444.836 317.875 429.212 329.419 415.243 338.082C401.261 346.753 388.981 352.513 379.726 354.282C375.098 355.166 371.285 355.042 368.405 353.841Z" fill="#4C97FF" stroke="black"/>
<path d="M240.99 758.142C224.446 750.644 208.24 741.13 213.185 718.07C225.815 701.752 261.961 700.563 278.506 708.061C295.05 715.558 314.021 736.615 312.254 761.881C260.956 750.573 256.92 762.73 240.99 758.142Z" fill="#37C050"/>
<rect width="7.5906" height="51.2281" rx="3.7953" transform="matrix(-0.338123 0.941102 -0.946012 -0.324132 258.415 730.114)" fill="#087A0D"/>
<path d="M104.489 796.378H345.844C395.788 796.378 430.651 845.639 414.353 892.602L413.958 893.711L363.42 1032.33C352.985 1060.95 325.77 1080 295.306 1080H155.274C125.327 1080 98.5153 1061.6 87.7021 1033.77L87.1992 1032.44L36.4131 893.817C19.0807 846.506 54.1032 796.378 104.489 796.378Z" fill="#BDC70A" stroke="#3D4806"/>
<ellipse cx="102.413" cy="77.3312" rx="102.413" ry="77.3312" transform="matrix(-0.540264 0.841495 -0.852843 -0.522168 551.824 292.49)" fill="#DCF1C2"/>
<path d="M417.625 288.242L448.144 311.091" stroke="black" stroke-width="5" stroke-linecap="round"/>
<path d="M393.697 361.741L424.216 384.59" stroke="black" stroke-width="5" stroke-linecap="round"/>
<path d="M461.369 321.025L491.888 343.875" stroke="black" stroke-width="5" stroke-linecap="round"/>
<path d="M428.591 298.136C426.668 300.699 424.594 303.116 422.487 305.248C420.381 307.38 418.283 309.185 416.314 310.561C414.344 311.938 412.542 312.858 411.01 313.269C409.477 313.68 408.245 313.574 407.383 312.957C406.521 312.34 406.046 311.224 405.985 309.674C405.924 308.123 406.279 306.167 407.029 303.919C407.78 301.67 408.91 299.173 410.357 296.569C411.804 293.965 413.538 291.305 415.461 288.742L422.026 293.439L428.591 298.136Z" fill="black"/>
<path d="M475.387 328.932C473.464 331.496 471.39 333.912 469.283 336.044C467.177 338.176 465.079 339.982 463.11 341.358C461.14 342.734 459.338 343.654 457.806 344.065C456.273 344.476 455.041 344.37 454.179 343.753C453.317 343.136 452.842 342.021 452.781 340.47C452.72 338.919 453.075 336.964 453.825 334.715C454.576 332.467 455.706 329.969 457.153 327.365C458.6 324.761 460.334 322.101 462.257 319.538L468.822 324.235L475.387 328.932Z" fill="black"/>
</svg>
