<svg width="713" height="1081" viewBox="0 0 713 1081" fill="none" xmlns="http://www.w3.org/2000/svg">
<path d="M204.851 636.501C223.808 541.523 312.28 413.001 312.28 413.001L322.273 427.001C322.273 427.001 240.423 547.685 221.84 636.501C198.121 749.862 217.087 821.179 252.32 931.501C270.087 987.137 312.28 1068.5 312.28 1068.5H295.791C295.791 1068.5 253.63 987.127 235.831 931.501C200.529 821.179 182.178 750.096 204.851 636.501Z" fill="#087A0D"/>
<path d="M373.682 295.693C370.661 295.336 367.824 296.338 365.214 298.969C362.587 301.617 360.193 305.916 358.133 312.123C356.203 317.936 354.575 325.39 353.314 334.663L353.067 336.542C342.69 418.052 302.322 466.945 271.512 502.202C263.808 511.018 256.714 518.968 250.827 526.367C244.94 533.768 240.285 540.588 237.449 547.135C234.616 553.673 233.606 559.917 234.981 566.185C236.314 572.263 239.901 578.42 246.357 584.922L246.99 585.552C301.575 639.182 385.119 641.886 442.971 592.16L444.333 590.975L444.665 590.677C451.591 584.356 455.797 573.31 457.74 558.98C459.711 544.44 459.342 526.612 457.198 507.133C452.911 468.176 441.537 422.698 427.7 383.894C420.781 364.493 413.251 346.769 405.688 332.369C398.119 317.957 390.541 306.919 383.542 300.846C380.043 297.809 376.734 296.054 373.682 295.693Z" fill="#4C97FF" stroke="black"/>
<path d="M404.805 314.579C403.517 311.821 401.171 309.936 397.561 309.102C393.928 308.262 389.016 308.491 382.658 310.008C376.704 311.429 369.514 313.971 360.973 317.784L359.248 318.563C321.893 335.621 291.386 339.236 266.367 336.22C241.352 333.205 221.863 323.565 206.541 314.176C198.893 309.489 192.251 304.842 186.523 301.143C180.766 297.424 175.941 294.668 171.834 293.653C169.791 293.149 167.952 293.082 166.278 293.526C164.609 293.968 163.065 294.928 161.625 296.539C158.906 299.583 156.583 304.922 154.556 313.345L154.155 315.071C145.66 352.831 136.516 401.087 138.73 442.696C140.927 483.999 154.294 518.536 190.346 529.958L191.203 530.224L191.631 530.349C200.649 532.91 212.246 530.668 225.442 524.772C238.831 518.789 253.781 509.084 269.198 496.999C300.031 472.831 332.669 439.199 358.341 406.988C371.177 390.883 382.265 375.142 390.512 361.124C398.767 347.093 404.15 334.832 405.622 325.68C406.358 321.105 406.107 317.365 404.805 314.579Z" fill="#4C97FF" stroke="black"/>
<path d="M416.042 319.883C418.973 317.266 420.851 314.296 421.545 310.959C422.197 307.829 421.817 304.33 420.22 300.436L419.883 299.652C412.233 282.496 403.879 258.144 394.463 232.467C385.04 206.771 374.547 179.729 362.604 157.133C350.65 134.515 337.292 116.45 322.185 108.594C314.651 104.676 306.684 103.298 298.219 105.159C290.009 106.964 281.288 111.824 272.016 120.45L271.118 121.297C251.811 139.696 238.615 151.5 228.962 160.16C219.304 168.824 213.216 174.321 208.095 180.122C198.496 190.997 192.293 202.943 172.505 238.817L168.362 246.319L167.844 247.281C162.674 257.21 162.904 266.443 167.207 274.921C171.665 283.706 180.523 291.728 192.429 298.841C216.237 313.066 252.027 323.541 288.348 329.274C324.667 335.007 361.444 335.987 387.209 331.27C400.104 328.909 410.162 325.135 416.042 319.883Z" fill="#4C97FF" stroke="black"/>
<path d="M362.984 301.198C360.942 303.455 360.114 306.349 360.743 310.003C361.376 313.68 363.489 318.123 367.349 323.401C370.964 328.344 376.092 333.992 382.913 340.395L384.299 341.686C444.661 397.394 461.077 458.65 471.93 504.209C474.644 515.601 477.006 525.993 479.62 535.083C482.234 544.173 485.089 551.922 488.776 558.03C492.459 564.129 496.959 568.573 502.86 571.085C508.581 573.52 515.674 574.163 524.711 572.668L525.591 572.518C600.903 559.094 651.53 492.537 644.569 416.541L644.394 414.743L644.344 414.3C643.211 404.988 636.653 395.157 626.11 385.266C615.413 375.231 600.681 365.198 583.575 355.655C549.366 336.57 505.74 319.484 466.119 308.275C446.31 302.671 427.513 298.539 411.403 296.359C395.279 294.177 381.897 293.958 372.895 296.145C368.394 297.238 365.046 298.919 362.984 301.198Z" fill="#4C97FF" stroke="black"/>
<path d="M368.287 296.162C367.409 293.247 367.901 290.277 370.034 287.246C372.182 284.195 375.994 281.087 381.743 277.974C387.486 274.865 395.126 271.769 404.889 268.726C483.288 244.288 524.362 195.987 553.683 159.482C561.015 150.353 567.6 141.977 573.855 134.886C580.111 127.795 586.011 122.018 591.958 118.082C597.898 114.151 603.866 112.067 610.274 112.329C616.486 112.583 623.169 115.044 630.693 120.271L631.424 120.785C693.716 165.218 710.944 247.066 672.099 312.74L671.171 314.289L670.937 314.667C665.924 322.595 655.788 328.664 642.025 333.077C628.062 337.555 610.453 340.3 590.911 341.585C551.83 344.153 505.095 340.876 464.498 334.008C444.2 330.574 425.447 326.244 409.959 321.303C394.457 316.358 382.274 310.815 375.077 304.978C371.479 302.06 369.175 299.106 368.287 296.162Z" fill="#4C97FF" stroke="black"/>
<path d="M391.641 357.65C388.671 356.991 386.322 355.109 384.725 351.764C383.116 348.398 382.272 343.55 382.371 337.01C382.464 330.885 383.382 323.311 385.246 314.14L385.632 312.284C402.681 231.906 380.673 172.431 363.198 128.984C358.828 118.119 354.748 108.274 351.627 99.3465C348.506 90.4179 346.358 82.4432 345.836 75.3269C345.315 68.2199 346.419 61.991 349.781 56.5266C353.041 51.2287 358.456 46.5993 366.692 42.5895L367.498 42.2029C436.698 9.57173 516.464 34.5734 554.705 100.601L555.6 102.168L555.816 102.559C560.273 110.811 560.605 122.626 557.719 136.797C554.792 151.174 548.572 167.885 540.132 185.569C523.253 220.935 497.536 260.121 471.69 292.193C458.769 308.229 445.821 322.478 433.939 333.579C422.045 344.69 411.254 352.611 402.646 356.036C398.343 357.749 394.641 358.316 391.641 357.65Z" fill="#4C97FF" stroke="black"/>
<path d="M257.849 725.877C240.356 729.751 221.895 731.81 211.675 710.413C211.571 689.823 239.063 667.305 256.556 663.431C274.05 659.557 301.717 665.081 315.765 686.347C268.814 707.909 273.086 720.042 257.849 725.877Z" fill="#37C050"/>
<rect width="7.61941" height="50.4582" rx="3.80971" transform="matrix(0.44188 0.897074 -0.896842 0.442352 250.386 692.322)" fill="#087A0D"/>
<path d="M103.625 794.501H338.752C388.46 794.501 423.303 843.33 407.441 890.196L407.058 891.303L357.069 1031.8C346.788 1060.7 319.435 1080 288.764 1080H153.857C123.706 1080 96.7569 1061.35 86.0859 1033.25L85.5898 1031.91L35.3574 891.409C18.4751 844.19 53.4785 794.501 103.625 794.501Z" fill="#BDC70A" stroke="#3D4806"/>
<ellipse cx="102.37" cy="76.4815" rx="102.37" ry="76.4815" transform="matrix(-0.530947 0.847405 -0.847088 -0.531452 542.078 287.292)" fill="#DCF1C2"/>
<path d="M410.249 283.016L440.229 306.016" stroke="black" stroke-width="5" stroke-linecap="round"/>
<path d="M386.744 357L416.724 380" stroke="black" stroke-width="5" stroke-linecap="round"/>
<path d="M453.22 316.016L483.201 339.016" stroke="black" stroke-width="5" stroke-linecap="round"/>
<path d="M429.661 299.724C427.772 302.304 425.735 304.736 423.666 306.882C421.596 309.028 419.535 310.846 417.601 312.231C415.666 313.616 413.896 314.542 412.391 314.956C410.885 315.37 409.675 315.263 408.828 314.642C407.981 314.021 407.514 312.898 407.455 311.337C407.395 309.776 407.744 307.808 408.481 305.545C409.217 303.281 410.328 300.767 411.749 298.146C413.17 295.525 414.874 292.848 416.763 290.268L423.212 294.996L429.661 299.724Z" fill="black"/>
<path d="M470.988 329.103C469.099 331.683 467.062 334.115 464.993 336.261C462.924 338.407 460.863 340.225 458.928 341.61C456.994 342.995 455.223 343.921 453.718 344.335C452.212 344.749 451.002 344.642 450.155 344.021C449.308 343.4 448.841 342.277 448.782 340.716C448.722 339.155 449.071 337.187 449.808 334.924C450.545 332.66 451.655 330.146 453.076 327.525C454.498 324.904 456.201 322.227 458.09 319.647L464.539 324.375L470.988 329.103Z" fill="black"/>
</svg>
