<svg width="538" height="743" viewBox="0 0 538 743" fill="none" xmlns="http://www.w3.org/2000/svg">
<path d="M152.5 148.008C171.47 53.0303 259.5 86.4996 259.5 86.4996L251 103C251 103 183.096 63.6921 164.5 152.508C140.765 265.869 217.231 483.687 252.487 594.009C270.266 649.645 312.487 731.009 312.487 731.009H295.987C295.987 731.009 253.798 649.635 235.987 594.009C200.662 483.688 129.812 261.603 152.5 148.008Z" fill="#67990A"/>
<path d="M103.648 457.01H339.022C389.128 457.01 424.128 506.623 407.322 553.826L357.302 694.326C347.016 723.216 319.667 742.51 289.001 742.51H153.914C123.289 742.51 95.9675 723.267 85.6514 694.432L35.3857 553.932C18.6235 507.079 52.9515 457.786 102.476 457.019L103.648 457.01Z" fill="#0E0E01" stroke="#3D4806"/>
<path d="M225.375 87.8882C226.793 87.347 228.884 86.5584 231.574 85.5682C236.954 83.5877 244.73 80.8017 254.31 77.5817C273.472 71.1414 299.849 62.9649 328.711 56.02C357.576 49.0745 388.915 43.3635 418.004 41.8478C447.105 40.3315 473.893 43.0185 493.7 52.8128C503.652 57.7338 510.981 61.9233 516.097 65.5992C521.228 69.2855 524.066 72.4093 525.138 75.175C525.669 76.5441 525.768 77.8254 525.497 79.0585C525.225 80.2976 524.573 81.5195 523.557 82.7509C521.515 85.2257 518.062 87.6668 513.525 90.2876C495.446 100.731 460.77 113.647 435.116 142.8C422.481 157.158 403.01 161 380.763 158.588C358.523 156.178 333.62 147.526 310.279 137.041C286.944 126.56 265.203 114.26 249.292 104.58C241.338 99.7403 234.843 95.5556 230.337 92.5818C228.084 91.0948 226.328 89.9108 225.136 89.0985C224.717 88.8129 224.367 88.5727 224.091 88.3821C224.426 88.2526 224.855 88.0866 225.375 87.8882Z" fill="#85A4CE" stroke="black"/>
<path d="M232.972 81.532C234.098 81.4076 235.764 81.2305 237.916 81.0182C242.22 80.5936 248.474 80.0291 256.268 79.4727C271.857 78.3598 293.606 77.2767 318.247 77.3948C367.545 77.631 428.352 82.6767 474.563 101.872C486.087 106.658 494.123 112.45 499.246 118.921C504.363 125.385 506.594 132.549 506.472 140.13C506.228 155.327 496.525 172.255 481.464 188.482C451.355 220.922 400.161 250.204 362.125 256.77C343.278 260.023 325.705 250.797 309.896 234.962C294.09 219.13 280.127 196.769 268.53 173.96C256.936 151.158 247.723 127.939 241.408 110.418C238.25 101.659 235.818 94.3254 234.176 89.1826C233.354 86.6112 232.73 84.5874 232.311 83.207C232.107 82.5348 231.951 82.0155 231.846 81.6595C232.125 81.6274 232.501 81.584 232.972 81.532Z" fill="#85A4CE" stroke="black"/>
<path d="M226.626 83.6669C227.802 84.502 229.523 85.7367 231.701 87.3319C236.056 90.5224 242.238 95.157 249.541 100.932C264.151 112.482 283.244 128.589 301.186 146.822C319.134 165.06 335.906 185.4 345.901 205.413C355.898 225.432 359.068 245.024 350.001 261.863C331.77 295.72 299.831 303.234 267.697 305.386C259.666 305.924 251.632 306.126 243.802 306.323C235.977 306.52 228.354 306.713 221.16 307.231C206.789 308.267 194.039 310.609 184.742 316.978C182.49 318.521 180.818 318.864 179.595 318.421C178.369 317.977 177.378 316.665 176.686 314.353C175.303 309.74 175.278 301.717 176.296 291.268C178.329 270.414 184.479 240.23 191.783 209.234C199.086 178.245 207.536 146.468 214.161 122.437C217.473 110.422 220.329 100.344 222.356 93.2704C223.37 89.7334 224.177 86.9471 224.73 85.0455C225.007 84.0947 225.221 83.365 225.365 82.8731C225.373 82.8458 225.38 82.8189 225.387 82.793C225.687 83.0032 226.103 83.2955 226.626 83.6669Z" fill="#85A4CE" stroke="black"/>
<path d="M227.405 83.7882C228.313 83.9632 229.653 84.2337 231.381 84.6145C234.837 85.3764 239.843 86.581 246.034 88.3489C258.415 91.8849 275.535 97.6752 294.482 106.69C332.38 124.723 377.557 155.643 406.769 207.205C421.321 232.892 418.933 254.799 407.277 272.277C395.594 289.797 374.557 302.928 351.721 310.892C328.888 318.855 304.341 321.624 285.707 318.497C276.389 316.934 268.592 313.904 263.223 309.354C257.871 304.821 254.909 298.765 255.253 291.059C256.659 259.524 249.488 207.474 241.977 163.35C238.22 141.279 234.375 121.176 231.47 106.591C230.017 99.2983 228.8 93.385 227.945 89.2946C227.517 87.2493 227.18 85.6597 226.951 84.5814C226.873 84.2174 226.807 83.9116 226.755 83.6662C226.938 83.7003 227.156 83.7401 227.405 83.7882Z" fill="#85A4CE" stroke="black"/>
<path d="M221.339 80.7384L218.39 94.4335L225.393 96.9269L229.895 99.9227L230.888 91.9218L234.117 90.5726L234.614 86.5721L239.227 84.6447L238.456 82.7993L241.417 82.1042L236.838 80.2239L221.339 80.7384Z" fill="#5C870B"/>
</svg>
