<svg width="733" height="783" viewBox="0 0 733 783" fill="none" xmlns="http://www.w3.org/2000/svg">
<path d="M491.53 218.134C621.553 99.0656 643.462 116.211 512.486 218.134C383.368 318.612 536.035 527.781 513.566 734.087C513.011 739.184 508.658 742.99 503.532 742.99V742.99C497.235 742.99 492.445 737.331 493.226 731.083C518.697 527.407 363.99 334.93 491.53 218.134Z" fill="#075431"/>
<path d="M246.132 501.796C109.936 455.934 118.803 442.057 262.132 491.621C404.069 540.704 453.502 584.49 506.388 731.876C507.329 734.499 506.66 737.488 504.657 739.425V739.425C500.836 743.119 494.437 741.419 492.808 736.36C444.192 585.408 379.115 546.575 246.132 501.796Z" fill="#075431"/>
<path d="M451.872 670.977C468.517 677.637 484.94 686.343 481.336 709.783C469.823 726.854 434.407 729.961 417.762 723.3C401.116 716.64 381.354 696.479 381.719 670.99C432.684 679.641 435.987 667.209 451.872 670.977Z" fill="#67B375"/>
<rect x="439.14" y="702.907" width="7.6204" height="50.4852" rx="3.8102" transform="rotate(-81.9517 439.14 702.907)" fill="#075431"/>
<path d="M412.817 273.763C429.463 280.424 445.885 289.13 442.282 312.57C430.768 329.64 395.353 332.747 378.707 326.087C362.062 319.426 342.299 299.266 342.665 273.776C393.63 282.428 396.932 269.995 412.817 273.763Z" fill="#67B375"/>
<rect x="400.085" y="305.694" width="7.6204" height="50.4852" rx="3.8102" transform="rotate(-81.9517 400.085 305.694)" fill="#075431"/>
<path d="M382.551 508.504C369.978 521.285 355.603 533.069 335.375 520.69C324.077 503.476 334.892 469.61 347.466 456.829C360.039 444.049 386.269 433.608 409.639 443.792C381.971 487.459 392.163 495.308 382.551 508.504Z" fill="#67B375"/>
<rect x="358.018" y="484.426" width="7.6204" height="50.4852" rx="3.8102" transform="rotate(30.7725 358.018 484.426)" fill="#075431"/>
<path d="M546.303 548.492C530.52 556.998 513.31 564.021 497.631 546.228C491.91 526.448 512.229 497.276 528.012 488.771C543.795 480.265 571.937 478.022 591.265 494.643C551.953 528.212 559.378 538.717 546.303 548.492Z" fill="#67B375"/>
<rect x="529.959" y="518.251" width="7.6204" height="50.4852" rx="3.8102" transform="rotate(47.9196 529.959 518.251)" fill="#075431"/>
<path d="M656.726 192.515C618.944 190.492 596.252 177.127 576.206 157.034C584.909 145.156 607.205 120.043 648.445 107.626C690.257 102.822 724.652 113.827 727.618 139.638C730.583 165.45 699.012 194.78 656.726 192.515Z" fill="#A5A2E2"/>
<path d="M583.1 68.7388C594.144 104.969 588.987 131.16 576.392 157.32C561.87 153.477 529.826 141.691 503.58 107.479C484.524 69.9535 483.361 33.6288 507.386 21.429C531.41 9.22925 570.739 28.1897 583.1 68.7388Z" fill="#7D79D5"/>
<path d="M662.235 134.482C631.723 156.923 605.306 160.751 576.448 157.551C575.254 142.576 575.738 108.437 599.301 72.3246C628.376 41.8959 662.257 28.7441 681.738 47.3586C701.219 65.9732 696.385 109.365 662.235 134.482Z" fill="#7D79D5"/>
<path d="M628.821 86.7466C618.236 123.072 600.049 142.119 575.914 157.055C566.334 145.873 546.966 118.438 544.28 75.4526C549.137 33.6474 567.694 2.66731 593.502 5.66548C619.309 8.66365 640.668 46.091 628.821 86.7466Z" fill="#A5A2E2"/>
<path d="M201.368 387.808C196.08 425.273 180.801 446.722 159.047 464.953C147.967 455.254 124.879 430.867 116.081 388.705C114.916 346.635 128.859 313.322 154.83 312.603C180.801 311.884 207.287 345.877 201.368 387.808Z" fill="#A5A2E2"/>
<path d="M71.68 450.438C108.731 442.573 134.377 449.978 159.347 464.792C154.261 478.927 139.744 509.829 103.387 533.014C64.3524 548.748 28.0635 546.76 17.9903 521.769C7.91722 496.778 30.2128 459.239 71.68 450.438Z" fill="#7D79D5"/>
<path d="M144.03 377.294C163.745 409.635 165.27 436.285 159.582 464.757C144.561 464.649 110.592 461.21 76.6556 434.607C48.8595 403.006 38.6916 368.114 58.9234 350.319C79.1553 332.523 121.966 341.097 144.03 377.294Z" fill="#7D79D5"/>
<path d="M93.58 406.448C128.852 420.139 146.252 439.907 159.042 465.245C147.072 473.822 118.063 490.74 75.0061 489.693C33.7787 481.234 4.52235 460.063 9.7445 434.612C14.9667 409.161 54.1033 391.124 93.58 406.448Z" fill="#A5A2E2"/>
</svg>
