<svg width="1359" height="1378" viewBox="0 0 1359 1378" fill="none" xmlns="http://www.w3.org/2000/svg">
<circle cx="669.306" cy="693.539" r="346.5" transform="rotate(91.507 669.306 693.539)" fill="#F5FF68"/>
<path d="M702.298 563.416C702.298 563.416 709.234 209.827 562.172 78.6568C429.259 -39.8929 1203.88 119.843 1002.52 157.841C808.881 194.383 702.298 563.416 702.298 563.416Z" fill="#F5FF68"/>
<path d="M767.16 608.574C767.16 608.574 1050.28 396.646 1063.31 200.016C1075.09 22.3051 1425.37 731.423 1271.61 595.988C1123.73 465.738 767.16 608.574 767.16 608.574Z" fill="#F5FF68"/>
<path d="M771.421 713.96C771.421 713.96 1111.4 811.354 1275.9 702.853C1424.58 604.792 1071.51 1312.53 1086.43 1108.17C1100.77 911.628 771.421 713.96 771.421 713.96Z" fill="#F5FF68"/>
<path d="M695.683 797.588C695.683 797.588 831.652 1124.06 1019.07 1184.95C1188.46 1239.97 415.064 1405.53 584.093 1289.7C746.649 1178.31 695.683 797.588 695.683 797.588Z" fill="#F5FF68"/>
<path d="M605.193 778.537C605.193 778.537 422.245 1081.2 483.929 1268.35C539.678 1437.51 -51.0377 911.574 142.305 979.438C328.244 1044.7 605.193 778.537 605.193 778.537Z" fill="#F5FF68"/>
<path d="M539.149 714.155C539.149 714.155 187.249 749.364 74.5198 910.996C-27.3633 1057.08 39.0177 268.952 100.716 464.349C160.052 652.264 539.149 714.155 539.149 714.155Z" fill="#F5FF68"/>
<path d="M586.13 602.52C586.13 602.52 331.321 357.273 135.164 376.121C-42.1205 393.156 601.235 -66.8897 492.366 106.703C387.666 273.648 586.13 602.52 586.13 602.52Z" fill="#F5FF68"/>
<rect x="526.939" y="558.647" width="88" height="112" rx="33" fill="#FDFFDE" stroke="black" stroke-width="10"/>
<rect x="744.939" y="558.647" width="88" height="112" rx="33" fill="#FDFFDE" stroke="black" stroke-width="10"/>
<path d="M468.439 755.147C468.439 755.147 489.847 799.506 511.439 821.647C589.69 901.888 711.519 888.553 801.439 821.647C829.712 800.61 857.439 755.147 857.439 755.147" stroke="black" stroke-width="23" stroke-linecap="round"/>
<path d="M613 632H527L530.48 583.564L547.879 561.964L593.116 560L613 583.564V632Z" fill="black" stroke="black" stroke-width="4" stroke-linecap="round"/>
<path d="M832 632H746L749.48 583.564L766.879 561.964L812.116 560L832 583.564V632Z" fill="black" stroke="black" stroke-width="4" stroke-linecap="round"/>
<path d="M574 634C574 637.546 573.612 641.057 572.858 644.332C572.104 647.608 570.999 650.585 569.607 653.092C568.214 655.599 566.56 657.588 564.74 658.945C562.92 660.302 560.97 661 559 661C557.03 661 555.08 660.302 553.26 658.945C551.44 657.588 549.786 655.599 548.393 653.092C547.001 650.585 545.896 647.608 545.142 644.332C544.388 641.057 544 637.546 544 634L559 634H574Z" fill="#1C3E89"/>
<path d="M792 634C792 637.546 791.612 641.057 790.858 644.332C790.104 647.608 788.999 650.585 787.607 653.092C786.214 655.599 784.56 657.588 782.74 658.945C780.92 660.302 778.97 661 777 661C775.03 661 773.08 660.302 771.26 658.945C769.44 657.588 767.786 655.599 766.393 653.092C765.001 650.585 763.896 647.608 763.142 644.332C762.388 641.057 762 637.546 762 634L777 634H792Z" fill="#1C3E89"/>
</svg>
