<svg width="1718" height="1663" viewBox="0 0 1718 1663" fill="none" xmlns="http://www.w3.org/2000/svg">
<circle cx="845.5" cy="838.5" r="346.5" fill="#F5FF68"/>
<path d="M732.017 672.743L317.281 385.306L708.753 168.675L732.017 672.743Z" fill="#F5FF68"/>
<path d="M930.6 656.069L902.304 152.258L1313.84 327.81L930.6 656.069Z" fill="#F5FF68"/>
<path d="M1061.59 772.138L1399.01 396.941L1564.57 812.597L1061.59 772.138Z" fill="#F5FF68"/>
<path d="M1038.64 944.057L1541.45 986.624L1309.97 1369.51L1038.64 944.057Z" fill="#F5FF68"/>
<path d="M875.062 1037.41L1142.18 1465.52L696.936 1509.53L875.062 1037.41Z" fill="#F5FF68"/>
<path d="M698.764 997.437L529.805 1472.92L218.326 1151.73L698.764 997.437Z" fill="#F5FF68"/>
<path d="M642.021 831.559L154.628 962.229L242.363 523.501L642.021 831.559Z" fill="#F5FF68"/>
</svg>
