<svg width="2286" height="2279" viewBox="0 0 2286 2279" fill="none" xmlns="http://www.w3.org/2000/svg">
<circle cx="1160.59" cy="1115.5" r="346.5" transform="rotate(-19.4601 1160.59 1115.5)" fill="#F5FF68"/>
<path d="M998.369 997.022L511.566 864.174L808.504 529.499L998.369 997.022Z" fill="#F5FF68"/>
<path d="M1178.79 877.267L984.269 411.663L1430.78 440.084L1178.79 877.267Z" fill="#F5FF68"/>
<path d="M1342.22 980.943L1535.37 514.767L1829.95 851.523L1342.22 980.943Z" fill="#F5FF68"/>
<path d="M1377.87 1150.68L1866.13 1023.31L1775.44 1461.44L1377.87 1150.68Z" fill="#F5FF68"/>
<path d="M1294.91 1367.6L1689.39 1682.26L1284.25 1872.09L1294.91 1367.6Z" fill="#F5FF68"/>
<path d="M1075.19 1314.25L1074.29 1818.85L673.598 1619.78L1075.19 1314.25Z" fill="#F5FF68"/>
<path d="M883.61 1169.7L467.592 1455.28L404.153 1012.39L883.61 1169.7Z" fill="#F5FF68"/>
</svg>
