<svg width="1359" height="1378" viewBox="0 0 1359 1378" fill="none" xmlns="http://www.w3.org/2000/svg">
<circle cx="669.306" cy="693.539" r="346.5" transform="rotate(91.507 669.306 693.539)" fill="#F5FF68"/>
<path d="M702.298 563.416C702.298 563.416 709.234 209.827 562.172 78.6568C429.259 -39.8929 1203.88 119.843 1002.52 157.841C808.881 194.383 702.298 563.416 702.298 563.416Z" fill="#F5FF68"/>
<path d="M767.16 608.575C767.16 608.575 1050.28 396.646 1063.31 200.017C1075.09 22.3056 1425.37 731.424 1271.61 595.988C1123.73 465.738 767.16 608.575 767.16 608.575Z" fill="#F5FF68"/>
<path d="M771.421 713.961C771.421 713.961 1111.4 811.354 1275.9 702.854C1424.58 604.793 1071.51 1312.53 1086.43 1108.17C1100.77 911.628 771.421 713.961 771.421 713.961Z" fill="#F5FF68"/>
<path d="M695.683 797.588C695.683 797.588 831.652 1124.06 1019.07 1184.95C1188.46 1239.97 415.064 1405.53 584.093 1289.7C746.649 1178.31 695.683 797.588 695.683 797.588Z" fill="#F5FF68"/>
<path d="M605.193 778.537C605.193 778.537 422.245 1081.2 483.929 1268.36C539.678 1437.51 -51.0377 911.575 142.305 979.438C328.244 1044.7 605.193 778.537 605.193 778.537Z" fill="#F5FF68"/>
<path d="M539.149 714.155C539.149 714.155 187.249 749.364 74.5198 910.996C-27.3633 1057.08 39.0177 268.952 100.716 464.349C160.052 652.264 539.149 714.155 539.149 714.155Z" fill="#F5FF68"/>
<path d="M586.13 602.521C586.13 602.521 331.321 357.274 135.164 376.122C-42.1205 393.156 601.235 -66.8892 492.366 106.703C387.666 273.648 586.13 602.521 586.13 602.521Z" fill="#F5FF68"/>
<rect x="526.939" y="558.647" width="88" height="112" rx="33" fill="#FDFFDE" stroke="black" stroke-width="10"/>
<rect x="744.939" y="558.647" width="88" height="112" rx="33" fill="#FDFFDE" stroke="black" stroke-width="10"/>
<path d="M468.439 755.147C468.439 755.147 489.847 799.506 511.439 821.647C589.69 901.888 711.519 888.553 801.439 821.647C829.712 800.61 857.439 755.147 857.439 755.147" stroke="black" stroke-width="23" stroke-linecap="round"/>
<path d="M613 598H527L530.48 572.436L547.879 561.036L593.116 560L613 572.436V598Z" fill="black" stroke="black" stroke-width="4" stroke-linecap="round"/>
<path d="M832 598H746L749.48 572.436L766.879 561.036L812.116 560L832 572.436V598Z" fill="black" stroke="black" stroke-width="4" stroke-linecap="round"/>
<path d="M593 600C593 603.546 592.612 607.057 591.858 610.332C591.104 613.608 589.999 616.585 588.607 619.092C587.214 621.599 585.56 623.588 583.74 624.945C581.92 626.302 579.97 627 578 627C576.03 627 574.08 626.302 572.26 624.945C570.44 623.588 568.786 621.599 567.393 619.092C566.001 616.585 564.896 613.608 564.142 610.332C563.388 607.057 563 603.546 563 600L578 600H593Z" fill="#1C3E89"/>
<path d="M810 600C810 603.546 809.612 607.057 808.858 610.332C808.104 613.608 806.999 616.585 805.607 619.092C804.214 621.599 802.56 623.588 800.74 624.945C798.92 626.302 796.97 627 795 627C793.03 627 791.08 626.302 789.26 624.945C787.44 623.588 785.786 621.599 784.393 619.092C783.001 616.585 781.896 613.608 781.142 610.332C780.388 607.057 780 603.546 780 600L795 600H810Z" fill="#1C3E89"/>
</svg>
