<svg width="1359" height="1378" viewBox="0 0 1359 1378" fill="none" xmlns="http://www.w3.org/2000/svg">
<circle cx="669.306" cy="693.539" r="346.5" transform="rotate(91.507 669.306 693.539)" fill="#F5FF68"/>
<path d="M702.298 563.416C702.298 563.416 709.234 209.827 562.172 78.6568C429.259 -39.8929 1203.88 119.843 1002.52 157.841C808.881 194.383 702.298 563.416 702.298 563.416Z" fill="#F5FF68"/>
<path d="M767.16 608.574C767.16 608.574 1050.28 396.646 1063.31 200.016C1075.09 22.3054 1425.37 731.424 1271.61 595.988C1123.73 465.738 767.16 608.574 767.16 608.574Z" fill="#F5FF68"/>
<path d="M771.421 713.96C771.421 713.96 1111.4 811.354 1275.9 702.854C1424.58 604.792 1071.51 1312.53 1086.43 1108.17C1100.77 911.628 771.421 713.96 771.421 713.96Z" fill="#F5FF68"/>
<path d="M695.683 797.588C695.683 797.588 831.652 1124.06 1019.07 1184.95C1188.46 1239.97 415.064 1405.53 584.093 1289.7C746.649 1178.31 695.683 797.588 695.683 797.588Z" fill="#F5FF68"/>
<path d="M605.193 778.537C605.193 778.537 422.245 1081.2 483.929 1268.36C539.678 1437.51 -51.0377 911.575 142.305 979.438C328.244 1044.7 605.193 778.537 605.193 778.537Z" fill="#F5FF68"/>
<path d="M539.149 714.155C539.149 714.155 187.249 749.364 74.5198 910.996C-27.3633 1057.08 39.0177 268.952 100.716 464.349C160.052 652.264 539.149 714.155 539.149 714.155Z" fill="#F5FF68"/>
<path d="M586.13 602.521C586.13 602.521 331.321 357.274 135.164 376.122C-42.1205 393.156 601.235 -66.8892 492.366 106.703C387.666 273.648 586.13 602.521 586.13 602.521Z" fill="#F5FF68"/>
<rect x="526.939" y="558.647" width="88" height="112" rx="33" fill="#FDFFDE" stroke="black" stroke-width="10"/>
<rect x="744.939" y="558.647" width="88" height="112" rx="33" fill="#FDFFDE" stroke="black" stroke-width="10"/>
<path d="M468.439 755.147C468.439 755.147 489.847 799.506 511.439 821.647C589.69 901.888 711.519 888.553 801.439 821.647C829.712 800.61 857.439 755.147 857.439 755.147" stroke="black" stroke-width="23" stroke-linecap="round"/>
<path d="M613.439 614.647H526.939L530.439 577.647L547.939 561.147L593.439 559.647L613.439 577.647V614.647Z" fill="black" stroke="black" stroke-width="4" stroke-linecap="round"/>
<path d="M832.439 614.647H745.939L749.439 577.647L766.939 561.147L812.439 559.647L832.439 577.647V614.647Z" fill="black" stroke="black" stroke-width="4" stroke-linecap="round"/>
<path d="M584.939 616.647C584.939 620.193 584.551 623.704 583.797 626.979C583.043 630.255 581.938 633.232 580.545 635.739C579.152 638.246 577.499 640.235 575.679 641.592C573.859 642.949 571.909 643.647 569.939 643.647C567.969 643.647 566.018 642.949 564.198 641.592C562.379 640.235 560.725 638.246 559.332 635.739C557.939 633.232 556.834 630.255 556.081 626.979C555.327 623.704 554.939 620.193 554.939 616.647L569.939 616.647H584.939Z" fill="#1C3E89"/>
<path d="M803.939 616.647C803.939 620.193 803.551 623.704 802.797 626.979C802.043 630.255 800.938 633.232 799.545 635.739C798.152 638.246 796.499 640.235 794.679 641.592C792.859 642.949 790.909 643.647 788.939 643.647C786.969 643.647 785.018 642.949 783.198 641.592C781.379 640.235 779.725 638.246 778.332 635.739C776.939 633.232 775.834 630.255 775.081 626.979C774.327 623.704 773.939 620.193 773.939 616.647L788.939 616.647H803.939Z" fill="#1C3E89"/>
</svg>
