<svg width="2083" height="2081" viewBox="0 0 2083 2081" fill="none" xmlns="http://www.w3.org/2000/svg">
<circle cx="1073.92" cy="1098.48" r="346.5" transform="rotate(-75.2777 1073.92 1098.48)" fill="#F5FF68"/>
<path d="M802.082 1166.38L418.682 1494.45L308.65 1060.78L802.082 1166.38Z" fill="#F5FF68"/>
<path d="M915.776 993.874L421.315 893.204L695.689 539.794L915.776 993.874Z" fill="#F5FF68"/>
<path d="M1081.84 841L804.712 419.305L1248.8 364.815L1081.84 841Z" fill="#F5FF68"/>
<path d="M1316.84 904.288L1485.79 428.807L1797.27 749.988L1316.84 904.288Z" fill="#F5FF68"/>
<path d="M1251.75 1135.08L1733.68 985.528L1663.1 1427.34L1251.75 1135.08Z" fill="#F5FF68"/>
<path d="M1190.35 1280.79L1607.28 1565.04L1217.48 1784.67L1190.35 1280.79Z" fill="#F5FF68"/>
<path d="M1060.77 1262.36L1063.29 1766.96L661.263 1570.61L1060.77 1262.36Z" fill="#F5FF68"/>
</svg>
